<?xml version="1.0" encoding="utf-8"?>
<!-- Generator: Adobe Illustrator 25.4.1, SVG Export Plug-In . SVG Version: 6.00 Build 0)  -->
<svg version="1.1" id="Calque_1" xmlns="http://www.w3.org/2000/svg" xmlns:xlink="http://www.w3.org/1999/xlink" x="0px" y="0px"
	 viewBox="0 0 61.3 61.3" style="enable-background:new 0 0 61.3 61.3;" xml:space="preserve">
<style type="text/css">
	.st0{fill:#50D9C2;}
	.st1{fill:#FFFFFF;}
</style>
<path id="Path_956" class="st0" d="M61.3,30.7c0,16.9-13.7,30.7-30.7,30.7S0,47.6,0,30.7S13.7,0,30.7,0c0,0,0,0,0,0
	C47.6,0,61.3,13.7,61.3,30.7L61.3,30.7"/>
<path id="Path_957" class="st1" d="M24.9,53.8h8.4V34.5h6.2l1.2-7.8h-7.4v-5.9c0-2.2,2.1-3.4,4.1-3.4H41v-6.5l-6.5-0.3
	c-6.2-0.4-9.6,4.5-9.6,10.3v5.8h-7v7.8h7V53.8z"/>
</svg>
