<?xml version="1.0" encoding="utf-8"?>
<!-- Generator: Adobe Illustrator 25.4.1, SVG Export Plug-In . SVG Version: 6.00 Build 0)  -->
<svg version="1.1" id="Calque_1" xmlns="http://www.w3.org/2000/svg" xmlns:xlink="http://www.w3.org/1999/xlink" x="0px" y="0px"
	 viewBox="0 0 61.3 61.3" style="enable-background:new 0 0 61.3 61.3;" xml:space="preserve">
<style type="text/css">
	.st0{fill:#50D9C2;}
	.st1{fill:#FFFFFF;}
</style>
<g id="Group_152" transform="translate(0 0)">
	<g>
		<g id="Group_151">
			<path id="Path_958" class="st0" d="M61.3,30.7c0,16.9-13.7,30.7-30.7,30.7S0,47.6,0,30.7C0,13.7,13.7,0,30.7,0c0,0,0,0,0,0
				C47.6,0,61.3,13.7,61.3,30.7C61.3,30.7,61.3,30.7,61.3,30.7"/>
			<path id="Path_959" class="st1" d="M31,25.2c-1.5-8,8.1-12.7,13.7-6.9c1.7-0.5,3.3-1.2,4.7-2.1c-0.6,1.8-1.9,3.4-3.5,4.4
				c1.5-0.2,3-0.6,4.3-1.2c-0.8,1.6-2.1,2.9-3.7,3.7c1.3,18.2-18.3,29.3-34.2,20.2c0,0,7.9,0.4,11.2-3.4c0,0-4.8,0.4-7.2-5.4
				c1.2,0.4,2.5,0.3,3.6-0.2c0,0-5.6-0.9-6.1-7.7c1.1,0.8,2.5,1.1,3.8,0.9c0,0-6.2-3.7-2.7-10.5C14.8,17.1,21.4,25.5,31,25.2"/>
		</g>
	</g>
</g>
</svg>
