<svg id="Group_87" data-name="Group 87" xmlns="http://www.w3.org/2000/svg" xmlns:xlink="http://www.w3.org/1999/xlink" width="282.428" height="161.064" viewBox="0 0 282.428 161.064">
  <defs>
    <clipPath id="clip-path">
      <rect id="Rectangle_61" data-name="Rectangle 61" width="282.428" height="161.064" fill="none"/>
    </clipPath>
  </defs>
  <g id="Group_86" data-name="Group 86" clip-path="url(#clip-path)">
    <path id="Path_534" data-name="Path 534" d="M.067,94.737c-.1-.033-.1-.107.1-.254.572-.416,2.074-1.2,2.653-1.56,1.1-.673,2.083-1.311,3.106-1.973Q9.237,88.8,12.5,86.593c4.9-3.316,9.7-6.766,14.313-10.4A152.167,152.167,0,0,0,55.413,47.22q3.5-4.773,6.509-9.818c1.02-1.707,1.985-3.436,2.911-5.185a28.3,28.3,0,0,1,2.914-4.968c.368-.428,1.86.873,2.081,4.663a10.529,10.529,0,0,1-.076,2.5,18.9,18.9,0,0,1-1.522,4.443A47.006,47.006,0,0,1,61.519,48.8C54.926,56.641,46.977,63.557,38.8,70.045A265.763,265.763,0,0,1,13.907,87.773C9.8,90.318,5.118,93.379.067,94.737" transform="translate(0 3.508)" fill="#fff"/>
    <path id="Path_535" data-name="Path 535" d="M86.249,47.345c1.035-1.268-.014-5.277-.357-6.245A24.967,24.967,0,0,0,78.3,28.49c-2.107-2-4.774-4.133-7.592-4.94-4.5-1.3-7.267.766-7.469,1.608-.252,1.044-.348,2.738,2.349,4.776,1.743,1.326,6.494,3.528,7.973,5.154,3.539,3.906,4.147,6.329,7.912,10.775,1.287,1.516,3.037,3.619,4.774,1.481" transform="translate(8.15 2.987)" fill="#fff"/>
    <path id="Path_536" data-name="Path 536" d="M87.8.628c1.274,2.23-1.244,5.159-2.5,6.66-3.367,4.025-7.568,7.36-11.681,10.587a31.34,31.34,0,0,1-5.676,3.851,19.614,19.614,0,0,1-3.7,1.209c-1.344-.992,1.1-3.79,1.978-4.764a59.162,59.162,0,0,0,5.891-7.513C77.006,3.076,86.41-1.8,87.8.628" transform="translate(8.244 0)" fill="#fff"/>
    <path id="Path_537" data-name="Path 537" d="M44.277,31.553c7.169.622,16.589-.946,18.6-8.991.863-3.445-7.844-1.046-9.4-.787-4.589.763-9.14,1.714-13.732,2.487-2.726.432-5.934.537-8.808,1.626-.42.161-.5.366-.519.511-.067,4.8,10.078,4.824,13.863,5.153" transform="translate(3.927 2.675)" fill="#fff"/>
    <path id="Path_538" data-name="Path 538" d="M55.336,2.725c3.854-1.557,6.483-.095,6.692,4.153a42.808,42.808,0,0,1-.506,5.7,52.122,52.122,0,0,0,.079,8.211c-1.436-.234-3.149-2.337-4.1-3.42a25.918,25.918,0,0,1-3.792-5.423c-1.733-3.369-2.364-7.613,1.625-9.223" transform="translate(6.761 0.274)" fill="#fff"/>
    <path id="Path_539" data-name="Path 539" d="M53.1,75.446q5.511-5.784,11.389-5.783a5.472,5.472,0,0,1,3.453,1,3.56,3.56,0,0,1,1.28,2.973q0,4.009-4.69,6.853a24.684,24.684,0,0,1-9.868,3.488l-1.588.2a18.408,18.408,0,0,0-.5,1.82A8.74,8.74,0,0,0,52.44,87.7a4.723,4.723,0,0,0,1.6,3.806,5.653,5.653,0,0,0,3.8,1.361,8.744,8.744,0,0,0,4.426-1.379,36.633,36.633,0,0,0,3.867-2.879l.731.639a17.525,17.525,0,0,1-3.592,3.246,14.239,14.239,0,0,1-8.327,2.975,7.33,7.33,0,0,1-5.176-2.089,7.783,7.783,0,0,1-2.23-5.974q0-6.175,5.568-11.961m9.017,3.737q3.34-2.961,3.338-5.873a2.619,2.619,0,0,0-.5-1.682,1.783,1.783,0,0,0-1.476-.622,5.357,5.357,0,0,0-3.547,1.541,21,21,0,0,0-3.129,3.482,27.567,27.567,0,0,0-2.338,4.364c-.315.738-.649,1.582-1,2.522a16.229,16.229,0,0,0,8.65-3.733M72.655,60.076a2.933,2.933,0,0,1-.7.624l-9.739,6.071H60.2l9.252-9.106a1.963,1.963,0,0,1,.665-.414,2.141,2.141,0,0,1,.807-.167,2.028,2.028,0,0,1,1.406.57,1.847,1.847,0,0,1,.626,1.432,1.551,1.551,0,0,1-.3.99" transform="translate(6.137 7.37)" fill="#fff"/>
    <path id="Path_540" data-name="Path 540" d="M78.833,61.153a3.163,3.163,0,0,0,.139-.729c.02-.241.029-.439.029-.586a1.045,1.045,0,0,0-.76-1.157,13.2,13.2,0,0,0-3.027-.183v-.9l2.907-.388c1.092-.15,1.81-.25,2.143-.3q1.573-.278,3.814-.829c.137,0,.265.095.4.279L75.2,89.8c-.2.8-.321,1.284-.36,1.446a2.388,2.388,0,0,0-.053.5,1.916,1.916,0,0,0,.2.906.731.731,0,0,0,.72.376q1.008,0,2.627-1.783A29.029,29.029,0,0,0,81.069,87.8l.745.526a38.77,38.77,0,0,1-3.742,4.9A6.7,6.7,0,0,1,73.4,95.54a3.221,3.221,0,0,1-1.786-.5,2.777,2.777,0,0,1-1.2-2.562,10.792,10.792,0,0,1,.221-1.866c.11-.463.245-1,.417-1.606Z" transform="translate(9.093 7.24)" fill="#fff"/>
    <path id="Path_541" data-name="Path 541" d="M103.166,69.266a4.08,4.08,0,0,1,1.012,1.616l.142.388.626-2.1a2.407,2.407,0,0,1,.2-.48.544.544,0,0,1,.4-.155l3.222-.357c.172,0,.271.035.3.1a.625.625,0,0,1-.014.344c-.082.244-.139.434-.178.572s-.1.338-.18.6l-2.758,9.968q-.893,3.255-1.528,5.62a41.841,41.841,0,0,0-1.026,4.876.725.725,0,0,0,.205.569.767.767,0,0,0,.516.178,1.127,1.127,0,0,0,.556-.167,6.509,6.509,0,0,0,.744-.5l.5-.391c.152-.132.331-.282.526-.456s.427-.4.7-.654l1.809-1.779.672.587a29.294,29.294,0,0,1-4.767,5.014,5.867,5.867,0,0,1-3.427,1.321,1.948,1.948,0,0,1-1.624-.724,2.808,2.808,0,0,1-.572-1.8,15.665,15.665,0,0,1,.377-2.869q.373-1.875.734-3.149-.5.833-1.68,2.434a19.527,19.527,0,0,1-2.9,3.1,13.718,13.718,0,0,1-3.891,2.563,8.487,8.487,0,0,1-2.779.5,5.626,5.626,0,0,1-4.082-1.856,7.139,7.139,0,0,1-1.836-5.252q0-5.855,5.287-12.209,5.449-6.605,11.293-6.606a4.793,4.793,0,0,1,3.427,1.145m-.9,1.058a3.014,3.014,0,0,0-2.246-.947q-4.575,0-8.508,6.972-3.453,6.134-3.454,10.565a4.615,4.615,0,0,0,.96,3.248,3.108,3.108,0,0,0,2.371,1.02q4.188,0,8.072-6.775,3.731-6.17,3.731-11.129a4.088,4.088,0,0,0-.926-2.955" transform="translate(10.737 8.796)" fill="#fff"/>
    <path id="Path_542" data-name="Path 542" d="M108.525,93.365l4.767-17.2q.61-2.192.711-2.652a4.836,4.836,0,0,0,.095-1,1.719,1.719,0,0,0-.46-1.273,2.542,2.542,0,0,0-1.79-.463,5.189,5.189,0,0,0-.652.041c-.211.028-.446.061-.708.1v-.907q1.8-.279,2.561-.422t1.644-.331l4.955-1.085a.552.552,0,0,1,.219.25L116.215,80.4a66.57,66.57,0,0,1,5.7-7.746q4.019-4.478,7.2-4.479a4.481,4.481,0,0,1,2.124.472,3.433,3.433,0,0,1,1.7,3.313,7.388,7.388,0,0,1-.142,1.393c-.093.479-.212,1-.358,1.557l-3.669,13.343c-.076.28-.158.618-.251,1.014a4.468,4.468,0,0,0-.139.851,1.437,1.437,0,0,0,.2.754.665.665,0,0,0,.618.332,2.532,2.532,0,0,0,1.6-.852,30.925,30.925,0,0,0,2.958-3.641l.8.731a34.014,34.014,0,0,1-3.543,4.34,6.336,6.336,0,0,1-4.28,2.2,3.01,3.01,0,0,1-1.786-.626,2.62,2.62,0,0,1-.864-2.264,7.727,7.727,0,0,1,.07-1,6.042,6.042,0,0,1,.182-.916l3.579-13.538a17.953,17.953,0,0,0,.374-1.824,8.523,8.523,0,0,0,.1-1.017,2.046,2.046,0,0,0-.322-1.155,1.265,1.265,0,0,0-1.137-.487q-2.105,0-5.309,3.784A48.367,48.367,0,0,0,117.8,80.3a27.447,27.447,0,0,0-2.323,4.715q-.843,2.3-2.647,8.349Z" transform="translate(14.012 8.802)" fill="#fff"/>
    <path id="Path_543" data-name="Path 543" d="M49.254,101.464h1.341v9.48h3.49v1.16H49.254Z" transform="translate(6.359 13.101)" fill="#fff"/>
    <path id="Path_544" data-name="Path 544" d="M58.981,101.465,62.458,112.1h-1.4l-.852-2.774H56.147l-.855,2.774H53.951l3.567-10.639Zm.869,6.706-1.63-5.3h-.032l-1.677,5.3Z" transform="translate(6.966 13.101)" fill="#fff"/>
    <path id="Path_545" data-name="Path 545" d="M66.142,101.464H70.9v1.157H67.483v3.385h3.246v1.158H67.483V112.1H66.142Z" transform="translate(8.54 13.101)" fill="#fff"/>
    <path id="Path_546" data-name="Path 546" d="M75.63,101.369c2.363,0,3.872,2.028,3.872,5.32,0,3.673-1.478,5.534-3.994,5.534-2.362,0-3.872-2.028-3.872-5.32,0-3.673,1.478-5.534,3.994-5.534m-.122,9.756c1.4,0,2.591-1.157,2.591-4.435,0-2.15-.671-4.223-2.469-4.223-1.4,0-2.591,1.158-2.591,4.436,0,2.149.671,4.222,2.469,4.222" transform="translate(9.249 13.088)" fill="#fff"/>
    <path id="Path_547" data-name="Path 547" d="M80.424,101.464h1.662l4.008,8.779h.03v-8.779h1.28V112.1H85.744l-4.008-8.719H81.7V112.1h-1.28Z" transform="translate(10.384 13.101)" fill="#fff"/>
    <path id="Path_548" data-name="Path 548" d="M88.687,101.465H91a4.608,4.608,0,0,1,2.835.761,5.047,5.047,0,0,1,1.967,4.39c0,3.08-1.464,5.488-5.457,5.488H88.687Zm1.341,9.48h.807c2.347,0,3.567-1.6,3.567-4.329,0-2.225-.944-3.994-3.567-3.994h-.807Z" transform="translate(11.451 13.101)" fill="#fff"/>
    <path id="Path_549" data-name="Path 549" d="M100.563,101.465,104.04,112.1h-1.4l-.852-2.774H97.728l-.854,2.774H95.533L99.1,101.465Zm.869,6.706-1.63-5.3h-.032l-1.676,5.3Z" transform="translate(12.335 13.101)" fill="#fff"/>
    <path id="Path_550" data-name="Path 550" d="M105.385,102.622h-2.439v-1.157h6.219v1.157h-2.439V112.1h-1.341Z" transform="translate(13.292 13.101)" fill="#fff"/>
    <rect id="Rectangle_54" data-name="Rectangle 54" width="1.341" height="10.64" transform="translate(124.057 114.565)" fill="#fff"/>
    <path id="Path_551" data-name="Path 551" d="M116.875,101.369c2.363,0,3.872,2.028,3.872,5.32,0,3.673-1.478,5.534-3.994,5.534-2.362,0-3.872-2.028-3.872-5.32,0-3.673,1.479-5.534,3.994-5.534m-.122,9.756c1.4,0,2.591-1.157,2.591-4.435,0-2.15-.671-4.223-2.469-4.223-1.4,0-2.591,1.158-2.591,4.436,0,2.149.671,4.222,2.469,4.222" transform="translate(14.575 13.088)" fill="#fff"/>
    <path id="Path_552" data-name="Path 552" d="M121.67,101.464h1.661l4.01,8.779h.03v-8.779h1.28V112.1h-1.662l-4.008-8.719h-.03V112.1h-1.28Z" transform="translate(15.71 13.101)" fill="#fff"/>
    <path id="Path_553" data-name="Path 553" d="M49.118,116.465h2.317a4.608,4.608,0,0,1,2.835.761,5.047,5.047,0,0,1,1.967,4.39c0,3.08-1.463,5.488-5.457,5.488H49.118Zm1.341,9.48h.808c2.347,0,3.567-1.6,3.567-4.329,0-2.225-.945-3.994-3.567-3.994h-.808Z" transform="translate(6.342 15.038)" fill="#fff"/>
    <path id="Path_554" data-name="Path 554" d="M57.137,116.464h4.955v1.157H58.479v3.385h3.445v1.158H58.479v3.779H62.29v1.16H57.137Z" transform="translate(7.377 15.037)" fill="#fff"/>
    <path id="Path_555" data-name="Path 555" d="M66.9,116.464h1.341v9.48H71.73v1.16H66.9Z" transform="translate(8.638 15.037)" fill="#fff"/>
    <path id="Path_556" data-name="Path 556" d="M70.923,119.3h1.158l1.006-3.536h-1.4Z" transform="translate(9.157 14.947)" fill="#fff"/>
    <rect id="Rectangle_55" data-name="Rectangle 55" width="1.341" height="10.64" transform="translate(84.318 131.501)" fill="#fff"/>
    <path id="Path_557" data-name="Path 557" d="M78.078,116.464H79.74l4.008,8.779h.03v-8.779h1.28V127.1H83.4l-4.009-8.719h-.03V127.1h-1.28Z" transform="translate(10.081 15.037)" fill="#fff"/>
    <path id="Path_558" data-name="Path 558" d="M90.921,118.016a3.582,3.582,0,0,0-1.813-.488,1.558,1.558,0,0,0-1.662,1.585c0,.685.274,1.113,1.8,2,1.646.945,2.195,1.875,2.195,3.1a2.852,2.852,0,0,1-3.095,3.017,5.3,5.3,0,0,1-2.225-.457v-1.387a4.408,4.408,0,0,0,2.028.685,1.731,1.731,0,0,0,1.89-1.676c0-.824-.213-1.3-1.646-2.166-1.921-1.158-2.347-1.814-2.347-3.186A2.665,2.665,0,0,1,89,116.37a5.389,5.389,0,0,1,1.921.351Z" transform="translate(11.11 15.025)" fill="#fff"/>
    <path id="Path_559" data-name="Path 559" d="M94.246,117.622H91.807v-1.157h6.219v1.157H95.587V127.1H94.246Z" transform="translate(11.854 15.038)" fill="#fff"/>
    <rect id="Rectangle_56" data-name="Rectangle 56" width="1.341" height="10.64" transform="translate(111.481 131.501)" fill="#fff"/>
    <path id="Path_560" data-name="Path 560" d="M103.777,117.622h-2.439v-1.157h6.219v1.157h-2.439V127.1h-1.341Z" transform="translate(13.084 15.038)" fill="#fff"/>
    <path id="Path_561" data-name="Path 561" d="M114.939,123.186a4.753,4.753,0,0,1-.427,2.378,3.4,3.4,0,0,1-5.823,0,4.754,4.754,0,0,1-.427-2.378v-6.722H109.6v6.92c0,1.661.732,2.728,2,2.728s2-1.067,2-2.728v-6.92h1.341Z" transform="translate(13.979 15.037)" fill="#fff"/>
    <path id="Path_562" data-name="Path 562" d="M118.032,117.622h-2.439v-1.157h6.219v1.157h-2.439V127.1h-1.341Z" transform="translate(14.925 15.038)" fill="#fff"/>
    <path id="Path_563" data-name="Path 563" d="M125.758,116.465h2.318a4.613,4.613,0,0,1,2.835.761,5.05,5.05,0,0,1,1.966,4.39c0,3.08-1.462,5.488-5.457,5.488h-1.662Zm1.343,9.48h.807c2.349,0,3.566-1.6,3.566-4.329,0-2.225-.944-3.994-3.566-3.994H127.1Z" transform="translate(16.237 15.038)" fill="#fff"/>
    <path id="Path_564" data-name="Path 564" d="M133.777,116.464h4.955v1.157h-3.613v3.385h3.445v1.158h-3.445v3.779h3.811v1.16h-5.152Z" transform="translate(17.273 15.037)" fill="#fff"/>
    <path id="Path_565" data-name="Path 565" d="M143.538,116.464h2.729a2.986,2.986,0,0,1,2.24.732,2.722,2.722,0,0,1,.793,2.028,2.43,2.43,0,0,1-2.1,2.546v.029a1.364,1.364,0,0,1,1.158,1.037l1.494,4.268H148.4l-1.219-3.6a1.5,1.5,0,0,0-1.693-1.219h-.61V127.1h-1.341Zm1.341,4.725h1.037a1.793,1.793,0,0,0,1.982-1.874c0-1.189-.778-1.754-1.951-1.754h-1.067Z" transform="translate(18.533 15.037)" fill="#fff"/>
    <path id="Path_566" data-name="Path 566" d="M150.679,116.776h4.955v1.157H152.02v3.384h3.445v1.16H152.02v3.779h3.811v1.16h-5.152Zm2.622-2.729h1.51l-1.556,2.211h-.974Z" transform="translate(19.455 14.725)" fill="#fff"/>
    <path id="Path_567" data-name="Path 567" d="M161.163,116.465,164.64,127.1h-1.4l-.854-2.774h-4.055l-.854,2.774h-1.341l3.567-10.639Zm.869,6.706-1.63-5.3h-.031l-1.677,5.3Z" transform="translate(20.159 15.038)" fill="#fff"/>
    <path id="Path_568" data-name="Path 568" d="M164.814,116.465h2.317a4.608,4.608,0,0,1,2.835.761,5.047,5.047,0,0,1,1.967,4.39c0,3.08-1.464,5.488-5.457,5.488h-1.662Zm1.341,9.48h.807c2.347,0,3.567-1.6,3.567-4.329,0-2.225-.944-3.994-3.567-3.994h-.807Z" transform="translate(21.28 15.038)" fill="#fff"/>
    <path id="Path_569" data-name="Path 569" d="M176.69,116.465l3.477,10.639h-1.4l-.852-2.774h-4.055L173,127.1H171.66l3.568-10.639Zm.869,6.706-1.63-5.3H175.9l-1.677,5.3Z" transform="translate(22.164 15.038)" fill="#fff"/>
    <path id="Path_570" data-name="Path 570" d="M180.476,116.464h2.561a3.073,3.073,0,0,1,2.3.823,2.966,2.966,0,0,1,.838,2.2c0,2.073-1.2,3.171-3.461,3.171h-.9V127.1h-1.341Zm1.341,5.091h.732c1.632,0,2.225-.762,2.225-1.951,0-1.462-.823-2.043-2.2-2.043h-.762Z" transform="translate(23.302 15.037)" fill="#fff"/>
    <path id="Path_571" data-name="Path 571" d="M188.746,117.622h-2.439v-1.157h6.219v1.157h-2.439V127.1h-1.341Z" transform="translate(24.055 15.038)" fill="#fff"/>
    <path id="Path_572" data-name="Path 572" d="M196.725,116.465,200.2,127.1h-1.4l-.852-2.774H193.89l-.854,2.774H191.7l3.568-10.639Zm.869,6.706-1.632-5.3h-.03l-1.676,5.3Z" transform="translate(24.751 15.038)" fill="#fff"/>
    <path id="Path_573" data-name="Path 573" d="M201.547,117.622h-2.439v-1.157h6.219v1.157h-2.44V127.1h-1.34Z" transform="translate(25.708 15.038)" fill="#fff"/>
    <rect id="Rectangle_57" data-name="Rectangle 57" width="1.343" height="10.64" transform="translate(232.634 131.501)" fill="#fff"/>
    <path id="Path_574" data-name="Path 574" d="M213.037,116.369c2.362,0,3.872,2.028,3.872,5.32,0,3.673-1.479,5.534-3.994,5.534-2.363,0-3.872-2.028-3.872-5.32,0-3.673,1.479-5.534,3.994-5.534m-.122,9.756c1.4,0,2.591-1.157,2.591-4.435,0-2.15-.671-4.223-2.469-4.223-1.4,0-2.591,1.158-2.591,4.436,0,2.149.671,4.222,2.469,4.222" transform="translate(26.991 15.025)" fill="#fff"/>
    <path id="Path_575" data-name="Path 575" d="M217.831,116.464h1.662l4.01,8.779h.029v-8.779h1.282V127.1h-1.662l-4.009-8.719h-.029V127.1h-1.282Z" transform="translate(28.126 15.037)" fill="#fff"/>
    <path id="Path_576" data-name="Path 576" d="M49.254,131.464h4.953v1.157H50.595v3.385H54.04v1.158H50.595v3.779h3.811v1.16H49.254Z" transform="translate(6.359 16.974)" fill="#fff"/>
    <path id="Path_577" data-name="Path 577" d="M55.639,131.464H57.3l4.008,8.779h.03v-8.779h1.28V142.1H60.958l-4.008-8.719h-.03V142.1h-1.28Z" transform="translate(7.184 16.974)" fill="#fff"/>
    <path id="Path_578" data-name="Path 578" d="M67.276,131.465h2.317a4.61,4.61,0,0,1,2.835.761,5.047,5.047,0,0,1,1.966,4.39c0,3.08-1.463,5.488-5.457,5.488H67.276Zm1.341,9.48h.807c2.347,0,3.567-1.6,3.567-4.329,0-2.225-.945-3.994-3.567-3.994h-.807Z" transform="translate(8.686 16.974)" fill="#fff"/>
    <path id="Path_579" data-name="Path 579" d="M75.3,131.776h4.953v1.157H76.636v3.384h3.445v1.16H76.636v3.779h3.811v1.16H75.3Zm2.622-2.729h1.509l-1.555,2.211h-.976Z" transform="translate(9.722 16.662)" fill="#fff"/>
    <path id="Path_580" data-name="Path 580" d="M81.68,131.464h4.756v1.157H83.022v3.385h3.246v1.158H83.022V142.1H81.68Z" transform="translate(10.546 16.974)" fill="#fff"/>
    <rect id="Rectangle_58" data-name="Rectangle 58" width="1.341" height="10.64" transform="translate(98.872 148.438)" fill="#fff"/>
    <path id="Path_581" data-name="Path 581" d="M97.3,141.9a6.665,6.665,0,0,1-1.935.321c-3.369,0-4.787-2.561-4.787-5.441,0-3.324,1.936-5.412,4.711-5.412a4.814,4.814,0,0,1,2.012.382v1.311a3.663,3.663,0,0,0-2-.534c-1.738,0-3.322,1.388-3.322,3.979,0,2.743,1.1,4.557,3.414,4.557a3.826,3.826,0,0,0,1.9-.5Z" transform="translate(11.695 16.962)" fill="#fff"/>
    <rect id="Rectangle_59" data-name="Rectangle 59" width="1.341" height="10.64" transform="translate(111.051 148.438)" fill="#fff"/>
    <path id="Path_582" data-name="Path 582" d="M101.754,131.464h4.955v1.157H103.1v3.385h3.445v1.158H103.1v3.779h3.811v1.16h-5.152Z" transform="translate(13.138 16.974)" fill="#fff"/>
    <path id="Path_583" data-name="Path 583" d="M108.14,131.464H109.8l4.009,8.779h.03v-8.779h1.28V142.1H113.46l-4.009-8.719h-.03V142.1h-1.28Z" transform="translate(13.963 16.974)" fill="#fff"/>
    <path id="Path_584" data-name="Path 584" d="M122.868,141.9a6.666,6.666,0,0,1-1.936.321c-3.368,0-4.786-2.561-4.786-5.441,0-3.324,1.936-5.412,4.711-5.412a4.814,4.814,0,0,1,2.012.382v1.311a3.662,3.662,0,0,0-2-.534c-1.739,0-3.324,1.388-3.324,3.979,0,2.743,1.1,4.557,3.416,4.557a3.826,3.826,0,0,0,1.9-.5Z" transform="translate(14.996 16.962)" fill="#fff"/>
    <path id="Path_585" data-name="Path 585" d="M123.921,131.464h4.953v1.157h-3.612v3.385h3.445v1.158h-3.445v3.779h3.811v1.16h-5.152Z" transform="translate(16 16.974)" fill="#fff"/>
    <path id="Path_586" data-name="Path 586" d="M133.681,131.464h2.561a3.073,3.073,0,0,1,2.3.823,2.966,2.966,0,0,1,.838,2.2c0,2.073-1.2,3.171-3.461,3.171h-.9V142.1h-1.341Zm1.341,5.091h.732c1.63,0,2.226-.762,2.226-1.951,0-1.462-.823-2.043-2.2-2.043h-.762Z" transform="translate(17.26 16.974)" fill="#fff"/>
    <path id="Path_587" data-name="Path 587" d="M140.31,131.464h1.341v4.542h3.719v-4.542h1.341V142.1H145.37v-4.939h-3.719V142.1H140.31Z" transform="translate(18.116 16.974)" fill="#fff"/>
    <path id="Path_588" data-name="Path 588" d="M150.421,137.638l-3.185-6.174h1.524l2.346,4.71,2.363-4.71h1.479l-3.186,6.174V142.1h-1.341Z" transform="translate(19.011 16.974)" fill="#fff"/>
    <path id="Path_589" data-name="Path 589" d="M159.27,133.016a3.579,3.579,0,0,0-1.813-.488,1.558,1.558,0,0,0-1.662,1.585c0,.685.274,1.113,1.8,2,1.646.945,2.195,1.875,2.195,3.1a2.852,2.852,0,0,1-3.094,3.017,5.287,5.287,0,0,1-2.225-.457v-1.387a4.4,4.4,0,0,0,2.027.685,1.731,1.731,0,0,0,1.89-1.676c0-.824-.213-1.3-1.646-2.166-1.921-1.158-2.347-1.814-2.347-3.186a2.665,2.665,0,0,1,2.957-2.667,5.385,5.385,0,0,1,1.921.351Z" transform="translate(19.935 16.962)" fill="#fff"/>
    <rect id="Rectangle_60" data-name="Rectangle 60" width="1.341" height="10.64" transform="translate(181.734 148.438)" fill="#fff"/>
    <path id="Path_590" data-name="Path 590" d="M169.969,144.1l-1.6-1.936a1.281,1.281,0,0,1-.26.046c-.091,0-.183.016-.274.016-2.362,0-3.872-2.028-3.872-5.32,0-3.673,1.478-5.534,3.994-5.534,2.363,0,3.872,2.028,3.872,5.32,0,2.713-.808,4.435-2.256,5.152l2.043,2.256Zm-2.134-2.973c1.4,0,2.591-1.157,2.591-4.435,0-2.15-.671-4.223-2.469-4.223-1.4,0-2.591,1.158-2.591,4.436,0,2.149.671,4.222,2.469,4.222" transform="translate(21.17 16.962)" fill="#fff"/>
    <path id="Path_591" data-name="Path 591" d="M179.427,138.186a4.753,4.753,0,0,1-.427,2.378,3.4,3.4,0,0,1-5.823,0,4.753,4.753,0,0,1-.427-2.378v-6.722h1.341v6.92c0,1.661.732,2.728,2,2.728s2-1.067,2-2.728v-6.92h1.341Z" transform="translate(22.305 16.974)" fill="#fff"/>
    <path id="Path_592" data-name="Path 592" d="M180.878,131.464h4.955v1.157h-3.613v3.385h3.445v1.158h-3.445v3.779h3.811v1.16h-5.152Z" transform="translate(23.354 16.974)" fill="#fff"/>
    <path id="Path_593" data-name="Path 593" d="M190.5,131.469h2.317a4.608,4.608,0,0,1,2.835.761,5.047,5.047,0,0,1,1.967,4.39c0,3.08-1.463,5.488-5.457,5.488H190.5Zm1.341,9.48h.808c2.347,0,3.566-1.6,3.566-4.329,0-2.226-.944-3.994-3.566-3.994h-.808Z" transform="translate(24.597 16.975)" fill="#fff"/>
    <path id="Path_594" data-name="Path 594" d="M198.521,131.468h4.955v1.157h-3.613v3.384h3.446v1.16h-3.446v3.779h3.812v1.16h-5.153Z" transform="translate(25.632 16.975)" fill="#fff"/>
    <path id="Path_595" data-name="Path 595" d="M213.749,144.1l-1.6-1.936a1.268,1.268,0,0,1-.259.046c-.093,0-.183.016-.275.016-2.362,0-3.871-2.028-3.871-5.32,0-3.673,1.478-5.534,3.994-5.534,2.362,0,3.871,2.028,3.871,5.32,0,2.713-.807,4.435-2.256,5.152l2.043,2.256Zm-2.135-2.973c1.4,0,2.591-1.157,2.591-4.435,0-2.15-.671-4.223-2.468-4.223-1.4,0-2.591,1.158-2.591,4.436,0,2.149.671,4.222,2.468,4.222" transform="translate(26.823 16.962)" fill="#fff"/>
    <path id="Path_596" data-name="Path 596" d="M223.209,138.19a4.752,4.752,0,0,1-.429,2.378,3.4,3.4,0,0,1-5.821,0,4.741,4.741,0,0,1-.428-2.378v-6.722h1.341v6.92c0,1.661.732,2.728,2,2.728s2-1.067,2-2.728v-6.92h1.341Z" transform="translate(27.958 16.975)" fill="#fff"/>
    <path id="Path_597" data-name="Path 597" d="M224.658,131.78h4.955v1.157H226v3.384h3.445v1.16H226v3.78h3.811v1.158h-5.153Zm2.622-2.729h1.508l-1.555,2.211h-.974Z" transform="translate(29.007 16.663)" fill="#fff"/>
    <path id="Path_598" data-name="Path 598" d="M231.045,131.468h2.7c2.057,0,2.957,1.128,2.957,2.7a2.366,2.366,0,0,1-1.752,2.362v.032a2.418,2.418,0,0,1,1.982,2.638c0,1.478-1.007,2.911-3.323,2.911h-2.56Zm1.34,4.6h.792c1.495,0,2.181-.685,2.181-1.829,0-.916-.55-1.678-1.952-1.678h-1.021Zm0,4.939h1.143a1.843,1.843,0,0,0,2.057-1.906,1.768,1.768,0,0,0-1.906-1.935h-1.294Z" transform="translate(29.832 16.975)" fill="#fff"/>
    <path id="Path_599" data-name="Path 599" d="M238.185,131.468h4.953v1.157h-3.613v3.384h3.445v1.16h-3.445v3.779h3.811v1.16h-5.151Z" transform="translate(30.754 16.975)" fill="#fff"/>
    <path id="Path_600" data-name="Path 600" d="M250.9,141.906a6.653,6.653,0,0,1-1.936.321c-3.367,0-4.785-2.561-4.785-5.441,0-3.324,1.936-5.412,4.711-5.412a4.812,4.812,0,0,1,2.011.382v1.311a3.659,3.659,0,0,0-2-.534c-1.738,0-3.323,1.388-3.323,3.979,0,2.743,1.1,4.557,3.414,4.557a3.826,3.826,0,0,0,1.9-.5Z" transform="translate(31.528 16.963)" fill="#fff"/>
  </g>
</svg>
