<svg xmlns="http://www.w3.org/2000/svg" width="43.236" height="59.127" viewBox="0 0 43.236 59.127">
  <g id="Group_20" data-name="Group 20" transform="translate(-1201.372 -33.587)">
    <path id="Path_223" data-name="Path 223" d="M1220.64,91.23c-.676-4.924-6.262-7.2-10.106-10.355a18.581,18.581,0,0,1-6.7-14.029c-.018-2.509.722-5.352,2.949-6.506a6.264,6.264,0,0,1,5.273.177,11.855,11.855,0,0,1,6.735,12.73c-1.784-5.418,2.371-11.261,7.505-13.746,2.341-1.134,5.388-1.7,7.362-.01,1.925,1.652,1.888,4.634,1.315,7.1a25.3,25.3,0,0,1-7.276,12.636c-1.754,1.648-3.748,3.046-5.341,4.85a8.574,8.574,0,0,0-2.468,6.551" fill="none" stroke="#31b9a2" stroke-linecap="round" stroke-linejoin="round" stroke-width="2.635"/>
    <path id="Path_224" data-name="Path 224" d="M1203.229,40.757l8.548,10.063" fill="none" stroke="#31b9a2" stroke-linecap="round" stroke-linejoin="round" stroke-width="2.635"/>
    <path id="Path_225" data-name="Path 225" d="M1226.094,35.291a28.88,28.88,0,0,0-1.9,11.794" fill="none" stroke="#31b9a2" stroke-linecap="round" stroke-linejoin="round" stroke-width="2.635"/>
    <path id="Path_226" data-name="Path 226" d="M1242.91,40.9a34.674,34.674,0,0,1-6.288,10.524" fill="none" stroke="#31b9a2" stroke-linecap="round" stroke-linejoin="round" stroke-width="2.635"/>
  </g>
</svg>
