<svg xmlns="http://www.w3.org/2000/svg" xmlns:xlink="http://www.w3.org/1999/xlink" width="695.829" height="457.491" viewBox="0 0 695.829 457.491">
  <defs>
    <clipPath id="clip-path">
      <rect id="Rectangle_92" data-name="Rectangle 92" width="695.829" height="457.491" fill="none"/>
    </clipPath>
  </defs>
  <g id="Group_128" data-name="Group 128" clip-path="url(#clip-path)">
    <path id="Path_655" data-name="Path 655" d="M180.8,240.357a29.405,29.405,0,0,1-.927,3.1,14.76,14.76,0,0,1-1.358,2.226,1.747,1.747,0,0,1-.78.6,2.8,2.8,0,0,0-.858.484,22.492,22.492,0,0,0-2.752,3.147c-1.65,2.629-3.187,5.335-4.645,8.076a8.177,8.177,0,0,0-1.45,3.788,3.075,3.075,0,0,1-.586,1.356q-1.926,3.267-3.893,6.511a2.1,2.1,0,0,1-1.91,1.184,2.83,2.83,0,0,0-1.749.545,2,2,0,0,1-.79.336.9.9,0,0,1-1.073-1.121,1.977,1.977,0,0,1,.879-1.306,10.753,10.753,0,0,0,3.38-3.428.385.385,0,0,1,.076-.1,12.924,12.924,0,0,0,3.065-4.478,2.237,2.237,0,0,1,.564-.813c1.268-.983,1.807-2.449,2.569-3.767,1.467-2.539,2.583-5.265,4.123-7.767a50.219,50.219,0,0,1,3.955-5.721,12.724,12.724,0,0,0,1.934-3.034,2.555,2.555,0,0,1,.384-.636,1,1,0,0,1,1.231-.312c.435.186.561.578.611,1.13" fill="#62cbff"/>
    <path id="Path_656" data-name="Path 656" d="M193.237,43.141a1.132,1.132,0,0,1-.738,1.164,1.181,1.181,0,0,1-1.457-.4c-.761-1.144-1.827-2.035-2.556-3.194a10.467,10.467,0,0,0-.958-1.3,8.293,8.293,0,0,1-1.634-2.609,4.3,4.3,0,0,0-.961-1.725,1.009,1.009,0,0,1-.321-.65c.055-1.445-.817-2.49-1.53-3.59a20.789,20.789,0,0,1-1.054-2.1,26.285,26.285,0,0,1-1.994-7.277,13.423,13.423,0,0,0-1.425-4.172c-.435-.787-.918-1.551-1.287-2.376-.122-.273-.229-.553.046-.8a.693.693,0,0,1,.814-.025,2.957,2.957,0,0,1,1.214,1.044,12.213,12.213,0,0,1,1.49,2.418,48.089,48.089,0,0,1,2.383,6.655,15.559,15.559,0,0,0,1.344,3.606,3.518,3.518,0,0,1,.477,1.274,13.135,13.135,0,0,0,2.389,5.89c.13.212.248.431.367.649a1.349,1.349,0,0,0,.937.764c1.442.206,1.977,1.36,2.614,2.408a15.008,15.008,0,0,1,1.541,3.372l.3.964" fill="#62cbff"/>
    <path id="Path_657" data-name="Path 657" d="M297.292,118.089c-.43.007-.8-.272-1.05-.934a.61.61,0,0,1,.259-.849,5.855,5.855,0,0,1,.661-.346,11.359,11.359,0,0,0,2.6-1.441,2.239,2.239,0,0,1,1-.484c.382-.063.706-.125.828-.594a.847.847,0,0,1,.77-.552,16.914,16.914,0,0,0,5.907-2.553c2.4-1.394,4.817-2.764,7.274-4.057.732-.385,1.519-.663,2.283-.985a1.606,1.606,0,0,1,.358-.1c.727-.119,1.28.171,1.386.722a1.028,1.028,0,0,1-.882,1.162,11.213,11.213,0,0,0-2.972,1.531,6.457,6.457,0,0,0-1.9,1.763,4.284,4.284,0,0,1-1.72,1.369q-3.715,1.887-7.583,3.433c-1.89.755-3.705,1.647-5.537,2.512a3.819,3.819,0,0,1-1.681.4" fill="#62cbff"/>
    <path id="Path_658" data-name="Path 658" d="M297.936,49.793c-.01.114.011.214-.028.276-.646,1.049-.785,2.335-1.593,3.315a35.437,35.437,0,0,0-3.527,5.26,17.816,17.816,0,0,1-2,3,18.307,18.307,0,0,0-2.368,3.49,3.166,3.166,0,0,1-1.558,1.356.966.966,0,0,1-1.236-.22,1,1,0,0,1-.158-1.356c.618-.934,1.251-1.858,1.89-2.778a1.558,1.558,0,0,0,.422-1.367,1.287,1.287,0,0,1,.235-1.064,18.859,18.859,0,0,1,2.171-3.027c.994-1,1.871-2.1,2.875-3.1a12.777,12.777,0,0,0,1.839-2.944,17.959,17.959,0,0,1,.962-1.6.96.96,0,0,1,1.225-.325,1.192,1.192,0,0,1,.847,1.086" fill="#62cbff"/>
    <path id="Path_659" data-name="Path 659" d="M81.3,221.95a5.113,5.113,0,0,1-.743,0,1.3,1.3,0,0,1-.908-2.254,5.621,5.621,0,0,1,2.8-1.977,7.473,7.473,0,0,0,2.512-1.559c.318-.241.272-.489-.112-.635-.154-.059-.324-.079-.474-.146a.945.945,0,0,1-.64-.839c-.02-.443.278-.659.635-.825a4.565,4.565,0,0,1,2.159-.488,9.765,9.765,0,0,0,2.831-.27c.872-.218,1.382-.031,1.633.476a1.6,1.6,0,0,1-.524,1.784,1.564,1.564,0,0,1-.4.291,1.877,1.877,0,0,0-1.2,1.961,1.957,1.957,0,0,1-1.351,1.879,25.039,25.039,0,0,0-4.529,2.292,2.663,2.663,0,0,1-1.679.315" fill="#62cbff"/>
    <path id="Path_660" data-name="Path 660" d="M149.915,147.944c1,.078,2.031.147,3.059.242a3.236,3.236,0,0,0,2.454-.66,2.989,2.989,0,0,1,2.241-.519q3.039.227,6.057.648c.822.116,1.1.322,1.1.9a1.158,1.158,0,0,1-1.158,1.288.922.922,0,0,0-.875.562c-.479,1.111-1.392,1.124-2.4,1.026-2.232-.216-4.415-.742-6.636-1.025a31.284,31.284,0,0,0-5.2-.2,2.573,2.573,0,0,1-2.161-.713c-.422-.453-.378-.785.183-1.061a2.255,2.255,0,0,1,.709-.219c.865-.1,1.733-.175,2.632-.264" fill="#62cbff"/>
    <path id="Path_661" data-name="Path 661" d="M95.944,211.74c-.549-.041-.988-.069-1.161-.539a.97.97,0,0,1,.334-1.009,3.381,3.381,0,0,1,1.568-.963,27.711,27.711,0,0,0,6.58-2.888,24.5,24.5,0,0,1,5.535-2.186,2.63,2.63,0,0,1,.857-.117,1.02,1.02,0,0,1,1.031,1.347,1.7,1.7,0,0,1-.388.9,9.373,9.373,0,0,1-2.416,1.915q-2.645,1.08-5.291,2.157a4.491,4.491,0,0,1-1.687.383,10.648,10.648,0,0,0-4.124.789,5.126,5.126,0,0,1-.838.215" fill="#62cbff"/>
    <path id="Path_662" data-name="Path 662" d="M330.352,159.167c-.354-.062-.77-.1-1.17-.209-3.407-.892-6.872-1.549-10.25-2.557-1.016-.3-2.01-.576-2.161-1.9-.054-.471-.554-.588-.956-.683a9.612,9.612,0,0,1-2.3-.933c-.146-.078-.3-.148-.438-.237-.8-.5-1.071-1.065-.786-1.607s.753-.663,1.646-.383a4.705,4.705,0,0,1,2.178,1.141,2.17,2.17,0,0,0,.728.467,27.928,27.928,0,0,0,7.5,2.187c.247.031.495.059.739.106.9.175,1.144.333,1.116,1.19a1.021,1.021,0,0,0,.958,1.191c.85.183,1.7.353,2.547.562a5.447,5.447,0,0,1,1.042.406c.314.151.564.387.455.784s-.437.459-.843.471" fill="#62cbff"/>
    <path id="Path_663" data-name="Path 663" d="M101.362,96.433a5.7,5.7,0,0,1-2.251-.641,27.263,27.263,0,0,0-5.79-2.181,7.736,7.736,0,0,1-1.939-1.091,21.247,21.247,0,0,1-3.966-2.963c-.218-.2-.432-.423-.315-.75a.634.634,0,0,1,.6-.379,3.176,3.176,0,0,1,2.256.429,13.647,13.647,0,0,0,6.6,2.971c1.569.148,2.9.834,4.388,1.095a9,9,0,0,1,3.188,1.341c.466.29.786.636.637,1.211-.135.523-.562.659-1.052.7-.742.066-1.481.16-2.351.256" fill="#62cbff"/>
    <path id="Path_664" data-name="Path 664" d="M401.284,104.133c.86-.092,1.6,0,2.026.873.2.4.656.461,1.037.624.771.33.851.963.232,1.549a2.261,2.261,0,0,1-1,.475c-.956.273-1.908.563-2.86.852a3.068,3.068,0,0,0-1.514,1.019,2.785,2.785,0,0,1-4.108-.014,1.12,1.12,0,0,0-.738-.4c-.37-.046-.741-.092-1.1-.168s-.753-.17-.835-.624a1,1,0,0,1,.483-1.069,14.445,14.445,0,0,1,1.938-1.116,26.454,26.454,0,0,1,4.259-1.728,7.067,7.067,0,0,1,2.183-.277" fill="#62cbff"/>
    <path id="Path_665" data-name="Path 665" d="M257.7,205.51c-.474-.872-.959-1.739-1.468-2.591a1.473,1.473,0,0,0-1.551-.812,1.187,1.187,0,0,0-.206.059l-.127.059a1.76,1.76,0,0,0-.691,1.286,1.52,1.52,0,0,0-.039.493c.089.863.147,1.733.3,2.585a2.86,2.86,0,0,1-.239,2.157,1.258,1.258,0,0,0,.068,1.51,5.65,5.65,0,0,1,.937,2.406c.2,1.1.545,2.16.661,3.282a1.278,1.278,0,0,0,1.534,1.239c.708-.156.973-.694.817-1.666-.039-.245-.083-.49-.133-.733a12.55,12.55,0,0,1-.089-3.942c.162-1.46-.144-2.97.479-4.387a.926.926,0,0,0,0-.226,4.383,4.383,0,0,0-.258-.719" fill="#62cbff"/>
    <path id="Path_666" data-name="Path 666" d="M293.169,134.6c-.214-.648-.637-.829-1.51-.64q-5.35,1.162-10.7,2.331c-.486.106-.983.167-1.465.285a1.067,1.067,0,0,0-.9.861q.345.637.67,1.285c.033.018.064.038.1.054a1.759,1.759,0,0,0,1.45.035,5.507,5.507,0,0,1,3.78.013,6.837,6.837,0,0,0,2.305.4c.957-.164,2.144-.351,3.324-.579.394-.076.805-.389.561-.78-.57-.912.033-1.112.669-1.394.453-.2.867-.488,1.311-.711a.834.834,0,0,0,.406-1.155" fill="#62cbff"/>
    <path id="Path_667" data-name="Path 667" d="M339.815,162.652a.922.922,0,0,1,1.446-.851,3,3,0,0,1,.3.219,19.062,19.062,0,0,0,7.168,3.277,9.4,9.4,0,0,1,4.182,2.315,8.018,8.018,0,0,0,3.6,1.592c.9.221,1.515.924,2.377,1.2a.786.786,0,0,1,.419,1.054c-.233.538-.727.507-1.174.337a29.115,29.115,0,0,1-3.487-1.234,14.06,14.06,0,0,0-2.96-.9,8.352,8.352,0,0,1-4.657-2.633,4.248,4.248,0,0,0-2.489-1.289,16.212,16.212,0,0,1-3.653-1.539,1.707,1.707,0,0,1-1.069-1.548" fill="#62cbff"/>
    <path id="Path_668" data-name="Path 668" d="M287.006,123.285a1.146,1.146,0,0,0-1.183-.031c-2.593,1.193-5.238,2.267-7.778,3.584-1.648.854-3.166,1.9-4.723,2.89q.777.921,1.5,1.872a3.406,3.406,0,0,1,1.264-.74,20.555,20.555,0,0,0,3.509-1.586,11.905,11.905,0,0,1,3.419-1.472c1.94-.4,3.1-1.793,4.264-3.187.441-.527.3-.959-.273-1.33" fill="#62cbff"/>
    <path id="Path_669" data-name="Path 669" d="M132.031,106.836a1.877,1.877,0,0,1,1.43.593,12.34,12.34,0,0,0,2.865,1.928.917.917,0,0,0,.591.152c1.224-.33,2.186.357,3.165.84,1.786.881,3.627,1.633,5.429,2.475.113.053.231.1.34.154a.979.979,0,0,1,.537,1.145.835.835,0,0,1-.915.685c-2.369-.023-4.733-.1-6.823-1.444-1.494-.962-3.047-1.83-4.456-2.927-.777-.6-1.832-.684-2.631-1.315-.485-.384-.987-.754-1.454-1.161-.28-.245-.214-.528.119-.7a4.2,4.2,0,0,1,1.8-.427" fill="#62cbff"/>
    <path id="Path_670" data-name="Path 670" d="M319.551,174.163c-.19.639.184.988.7,1.27.389.214.713.508.521.989-.218.548-.711.492-1.167.374a4.66,4.66,0,0,1-.932-.339c-1.848-.93-3.684-1.883-5.533-2.811a4.207,4.207,0,0,1-1.963-1.831,1.993,1.993,0,0,0-1.151-1.044,18.991,18.991,0,0,1-2.469-1.641,1.627,1.627,0,0,1-.492-.7.863.863,0,0,1,.282-1.105.787.787,0,0,1,1.015-.122c1.314.7,2.662,1.339,3.952,2.079,2.011,1.155,4.1,2.144,6.185,3.153,1,.485,1.092.65,1.057,1.726" fill="#62cbff"/>
    <path id="Path_671" data-name="Path 671" d="M150.272,287.033c-.523.086-.982.7-1.4.092-.331-.49-.038-.951.224-1.384a3.278,3.278,0,0,1,4.038-1.013,1.679,1.679,0,0,1,.647,1.869,7.451,7.451,0,0,1-.567,1.379,27.3,27.3,0,0,0-1.4,3.187,3.869,3.869,0,0,1-.832,1.366,23.583,23.583,0,0,0-3.257,3.725,2.681,2.681,0,0,1-.715.684.877.877,0,0,1-1.15-.007.888.888,0,0,1-.256-1.014,13.446,13.446,0,0,1,2.542-4.78,11.114,11.114,0,0,0,2.118-4.1" fill="#62cbff"/>
    <path id="Path_672" data-name="Path 672" d="M84.632,143.225a16.843,16.843,0,0,1-3.749-.624,6.129,6.129,0,0,0-1.452-.3c-1.45.142-2.47-.689-3.554-1.4a.932.932,0,0,1-.445-1.265c.1-.227.172-.465.264-.695.325-.806.737-1.094,1.53-.822a16.094,16.094,0,0,0,4.9.634c.989.025,1.965.238,2.96.288.937.046,2.262,1.742,2.22,2.686a1.328,1.328,0,0,1-.834,1.144,3.65,3.65,0,0,1-1.843.361" fill="#62cbff"/>
    <path id="Path_673" data-name="Path 673" d="M117.791,269.063c-.85-.017-1.074-.349-.684-1.082a6.388,6.388,0,0,1,1.87-2.128,5.026,5.026,0,0,0,1.753-2.045,3.1,3.1,0,0,1,.639-.91,4.027,4.027,0,0,0,1.475-2.765,1.219,1.219,0,0,1,.665-1c.789-.445,1.587-.864,2.355-1.353s1.678.426,1.5,1.458a6.313,6.313,0,0,1-1.765,3.854c-.732.67-1.3,1.513-2.006,2.192a26.5,26.5,0,0,1-4.268,3.36,2.744,2.744,0,0,1-1.538.418" fill="#62cbff"/>
    <path id="Path_674" data-name="Path 674" d="M309.309,32.239a.956.956,0,0,1,1.01,1.275,11.563,11.563,0,0,1-2.4,4.154,25.641,25.641,0,0,0-3.633,5.156c-.453.97-1.44,1.326-2.275,1.84a.675.675,0,0,1-.889-.219,1.142,1.142,0,0,1-.309-1.252,19.393,19.393,0,0,1,1.118-2.35,36.064,36.064,0,0,0,2.392-4.476,2.5,2.5,0,0,1,1.045-1.184,11.541,11.541,0,0,0,3.08-2.471,1.234,1.234,0,0,1,.86-.473" fill="#62cbff"/>
    <path id="Path_675" data-name="Path 675" d="M154.445,251.13c-.6-.017-1-.1-1.183-.562a.889.889,0,0,1,.233-1.024,32.548,32.548,0,0,0,4.042-5.609,12.946,12.946,0,0,1,1.806-2.353,12.239,12.239,0,0,0,1.4-1.743,11.033,11.033,0,0,1,1.228-1.4c.333-.324.688-.651,1.2-.433a1.156,1.156,0,0,1,.718,1.319,5.351,5.351,0,0,1-1.388,3.364c-.43.388-.813.828-1.239,1.221a17.3,17.3,0,0,0-4.135,5.532c-.57,1.249-1.707,1.439-2.676,1.684" fill="#62cbff"/>
    <path id="Path_676" data-name="Path 676" d="M209.706,277.314c-.1.406-.237,1.012-.411,1.607a10.694,10.694,0,0,0-.567,3.668,7.345,7.345,0,0,1-.775,2.726,27.986,27.986,0,0,1-1.4,4.368c-.407.794-.817,1.041-1.43.833a1.481,1.481,0,0,1-1.019-1.642c.1-.655.249-1.3.376-1.953a63.783,63.783,0,0,1,1.836-7.735,7.528,7.528,0,0,1,1.4-2.879,1.063,1.063,0,0,1,1.307-.4c.525.225.713.659.686,1.412" fill="#62cbff"/>
    <path id="Path_677" data-name="Path 677" d="M268.652,94.3c1.414.173,1.827.886,1.258,2.4a2.985,2.985,0,0,1-.563.814,9.718,9.718,0,0,0-1.5,2.557,5.487,5.487,0,0,1-3.378,3.413,1.842,1.842,0,0,0-.967.742,2.991,2.991,0,0,1-.979.94,1.315,1.315,0,0,1-1.838-.464c-.536-.71-.526-1.086.105-1.732.925-.948,1.894-1.853,2.8-2.819a17.327,17.327,0,0,0,2.919-4.746,1.864,1.864,0,0,1,2.14-1.1" fill="#62cbff"/>
    <path id="Path_678" data-name="Path 678" d="M291.929,197.364a1.182,1.182,0,0,1,.724-1.2,1.327,1.327,0,0,1,1.6.3,22.524,22.524,0,0,1,1.922,2.114,8.977,8.977,0,0,0,.928,1.166c.756.758,1.177,1.5.276,2.454-.321.341-.181.782.074,1.151.33.477.637.973,1,1.425,1.919,2.4,3.231,5.183,4.913,7.733a20.209,20.209,0,0,0,1.641,2.468,1.092,1.092,0,0,1,.228.432.519.519,0,0,1-.173.562.412.412,0,0,1-.564-.067,2.959,2.959,0,0,1-.659-.733c-.93-1.855-2.263-3.447-3.343-5.2-.542-.881-1.079-1.776-1.661-2.617-1.17-1.69-2.517-3.259-3.814-4.858a24.17,24.17,0,0,1-2.851-4.045,2.248,2.248,0,0,1-.239-1.085" fill="#62cbff"/>
    <path id="Path_679" data-name="Path 679" d="M287.909,145.989a15.542,15.542,0,0,0,3.213.1,4.639,4.639,0,0,1,2.83.754,2.2,2.2,0,0,0,1.168.372,7.662,7.662,0,0,0,1.485.12,10.028,10.028,0,0,1,5.976,1.649c.415.228.874.464.73,1.009-.15.573-.664.706-1.2.624-2.575-.39-5.163-.668-7.756-.894a1.307,1.307,0,0,1-.6-.137c-1.237-.841-2.675-.754-4.06-.926a5.487,5.487,0,0,1-2.448-.818c-.5-.333-.9-.628-.7-1.272.191-.613.725-.59,1.361-.58" fill="#62cbff"/>
    <path id="Path_680" data-name="Path 680" d="M373.89,144.7a2.7,2.7,0,0,1,2.844,1.034c.392.593,1.041.5,1.589.387a21.635,21.635,0,0,1,4.824-.125c.824.007,1.647.139,2.471.219a1.222,1.222,0,0,1,.884.387.63.63,0,0,1-.124,1.046,3.087,3.087,0,0,1-1.623.554,24.136,24.136,0,0,0-6.156.608,3.057,3.057,0,0,1-2.593-.55,2.782,2.782,0,0,0-1.975-.521,5.337,5.337,0,0,1-2.867-.656,1.092,1.092,0,0,1,.252-2.092,10.348,10.348,0,0,1,2.474-.291" fill="#62cbff"/>
    <path id="Path_681" data-name="Path 681" d="M243.133,205.308a6.171,6.171,0,0,0-.766,2.025c-.273,1.747-.335,3.545-1.277,5.128a2.705,2.705,0,0,0-.2.587c-.346,1.139-.247,1.364.907,1.671.454.12.748.3.83.777a2.5,2.5,0,0,0,.184.591.949.949,0,0,0,.981.614.989.989,0,0,0,.953-.669,6.083,6.083,0,0,0,.173-.847c.657-3.256.15-6.614.863-9.948a1.486,1.486,0,0,0,0-.293q-1.31.232-2.646.364" fill="#62cbff"/>
    <path id="Path_682" data-name="Path 682" d="M104.2,248.859a2.962,2.962,0,0,1-.538-.071c-.819-.244-1.074-1.176-.348-1.585,1.213-.683,2.061-1.927,3.509-2.234a2.518,2.518,0,0,0,.925-.612c1.668-1.292,3.354-2.56,5.014-3.861a10.072,10.072,0,0,1,1.85-1c.444-.219.869-.306,1.212.172a1.157,1.157,0,0,1-.158,1.575c-.963.593-1.677,1.481-2.63,2.071a4.1,4.1,0,0,0-1.934,2.182,1.527,1.527,0,0,1-.693.858,12.393,12.393,0,0,1-3.157,1.681c-1.006.219-1.9.854-3.052.827" fill="#62cbff"/>
    <path id="Path_683" data-name="Path 683" d="M326.286,105.16c-.25-.027-.665-.053-1.071-.124a.942.942,0,0,1-.773-.864.789.789,0,0,1,.537-.881,14.267,14.267,0,0,1,4.5-1.322,12.434,12.434,0,0,0,3.775-1.019c2.146-.964,4.258-2.028,6.479-2.827a1.212,1.212,0,0,1,.97.007.912.912,0,0,1,.065,1.6c-1.729,1.06-3.412,2.2-5.227,3.111a1.921,1.921,0,0,1-.817.264c-1.789-.01-3.368.788-5.026,1.273a11.455,11.455,0,0,1-3.411.778" fill="#62cbff"/>
    <path id="Path_684" data-name="Path 684" d="M310.119,69.453a1,1,0,0,1-.917-1.592,10.052,10.052,0,0,1,1.13-1.319c1.68-1.713,3.072-3.7,4.938-5.235.224-.184.412-.464.709-.472a4.343,4.343,0,0,0,2.587-1.347,1.127,1.127,0,0,1,1.255-.282.845.845,0,0,1,.427,1.3,8.841,8.841,0,0,1-2.259,2.445,26.628,26.628,0,0,0-3.267,3.715c-.172.229-.266.53-.524.681-1.1.647-2.21,1.291-3.331,1.907a2.813,2.813,0,0,1-.748.2" fill="#62cbff"/>
    <path id="Path_685" data-name="Path 685" d="M72.82,161.668a19.091,19.091,0,0,0,3.1-.168,2.248,2.248,0,0,1,.985.049c.574.135,1,.421,1.028,1.068a1.351,1.351,0,0,1-.735,1.45,2.488,2.488,0,0,1-.946.279,26.1,26.1,0,0,1-3.584.115,5.961,5.961,0,0,0-4.287.866,6.88,6.88,0,0,1-3.338.8.866.866,0,0,1-1-.559c-.17-.471-.339-.964.063-1.4a2.853,2.853,0,0,1,1.366-1.036c1.408-.339,2.756-.869,4.139-1.286a12.709,12.709,0,0,1,3.215-.169" fill="#62cbff"/>
    <path id="Path_686" data-name="Path 686" d="M280.429,73.115a1.136,1.136,0,0,1,.991,1.317,4.885,4.885,0,0,1-.683,1.589c-.754,1.233-1.491,2.477-2.227,3.721a4.835,4.835,0,0,0-.536,1.384c-.541,2.324-2.331,3.637-4.071,4.979-.43.333-.787.11-1-.324a1.388,1.388,0,0,1,.064-1.42,15.818,15.818,0,0,0,1.614-3.885,3.538,3.538,0,0,1,.748-1.419c1.5-1.662,2.779-3.489,4.109-5.279a1.343,1.343,0,0,1,.995-.663" fill="#62cbff"/>
    <path id="Path_687" data-name="Path 687" d="M180.987,52.043a1.473,1.473,0,0,1-1.245-.45,1.91,1.91,0,0,0-1.327-.586,2.218,2.218,0,0,1-1.837-1.295,18.348,18.348,0,0,0-3.193-4.848c-.733-.69-.887-1.763-1.393-2.618a.95.95,0,0,1,.279-1.132.8.8,0,0,1,1.021-.163,4.4,4.4,0,0,0,.922.357.961.961,0,0,1,.79.813,10.922,10.922,0,0,0,.8,1.812,2.787,2.787,0,0,0,1.108,1.316c1.755.893,2.75,2.533,4,3.923.3.338.6.686.877,1.047a1.076,1.076,0,0,1,.175,1.166,1.138,1.138,0,0,1-.982.658" fill="#62cbff"/>
    <path id="Path_688" data-name="Path 688" d="M181.814,260.056a1.167,1.167,0,0,1-1.234-1.367,1.959,1.959,0,0,1,.441-1.014,11.157,11.157,0,0,0,2.163-4.834,4.18,4.18,0,0,1,1.052-2.078,11.159,11.159,0,0,0,1.514-2.421,2.292,2.292,0,0,1,1.426-1.118,1.135,1.135,0,0,1,1.554,1.294,2.289,2.289,0,0,1-.388.906,31.528,31.528,0,0,0-2.889,5.9,17.29,17.29,0,0,1-2.368,4.073,1.446,1.446,0,0,1-1.271.66" fill="#62cbff"/>
    <path id="Path_689" data-name="Path 689" d="M151.944,255.235a3.741,3.741,0,0,1-1.2,2.382,13.832,13.832,0,0,0-2.411,3.567c-.551,1.185-1.316,2.285-1.963,3.437a7.321,7.321,0,0,1-2.2,1.965c-.518.4-1.2-.132-1.082-.811a4.881,4.881,0,0,1,.465-1.141,3.774,3.774,0,0,0,.608-1.739,4.692,4.692,0,0,1,1.474-3.317,56.47,56.47,0,0,0,3.841-4.7,5.045,5.045,0,0,1,.376-.493,1.337,1.337,0,0,1,1.527-.548c.605.244.565.849.572,1.4" fill="#62cbff"/>
    <path id="Path_690" data-name="Path 690" d="M137.687,80.323c0-1.018.476-1.312,1.38-1.072a16.427,16.427,0,0,1,5.142,2.382c1.362.936,2.841,1.7,4.249,2.571a1.6,1.6,0,0,1,.194,2.849,1.193,1.193,0,0,1-1.268.268,6.081,6.081,0,0,1-2.1-1.231,16.559,16.559,0,0,0-3.6-2.392c-.978-.54-1.992-1.012-2.94-1.611a2.455,2.455,0,0,1-1.052-1.764" fill="#62cbff"/>
    <path id="Path_691" data-name="Path 691" d="M318.267,236.4a1.472,1.472,0,0,1,1.164.761,15.411,15.411,0,0,1,1.244,2,15.4,15.4,0,0,0,3.062,3.875c1.113,1.229,2.138,2.518,3.15,3.826a1.015,1.015,0,0,1-.084,1.45,1.091,1.091,0,0,1-1.423.393,2.759,2.759,0,0,1-1.162-.906c-1.158-1.89-2.895-3.275-4.314-4.937a4.779,4.779,0,0,1-1.413-2.274,1.981,1.981,0,0,0-.633-1.05,3.1,3.1,0,0,1-.839-1.762c-.159-.906.181-1.35,1.248-1.376" fill="#62cbff"/>
    <path id="Path_692" data-name="Path 692" d="M266.914,123.652a2.227,2.227,0,0,0,.862-1.5,8.067,8.067,0,0,1,1.748-3.662c.885-1.1,1.528-2.366,2.437-3.445a2.173,2.173,0,0,0,.367-1.043c.192-.992.009-1.512-.653-1.748-.5-.181-.949.09-1.458.892a53.24,53.24,0,0,1-5.246,7.078c-.366.408-.714.833-1.06,1.259q1.531,1.032,3,2.173" fill="#62cbff"/>
    <path id="Path_693" data-name="Path 693" d="M370.483,233.56a3.936,3.936,0,0,1-.974-.379,34.4,34.4,0,0,0-3.743-1.932,6.733,6.733,0,0,1-2.2-1.831,21.276,21.276,0,0,0-2.779-2.462c-.7-.585-1.4-1.159-2.129-1.706a3.349,3.349,0,0,1-1.157-1.716c-.108-.328-.225-.645.073-.918a1.082,1.082,0,0,1,1.151-.256,3.926,3.926,0,0,1,1.453.93c.877.878,1.851,1.656,2.729,2.522a34.21,34.21,0,0,0,5.274,4.091,28.246,28.246,0,0,1,3.185,2.362c.275.243.569.542.29.96-.231.348-.588.429-1.175.335" fill="#62cbff"/>
    <path id="Path_694" data-name="Path 694" d="M105.682,116.473a7.615,7.615,0,0,1,1.749.38,55.832,55.832,0,0,0,7.359,2.268,16.182,16.182,0,0,1,2.686.961c.725.3,1.072.8.95,1.292a1.517,1.517,0,0,1-1.277,1.045,2.527,2.527,0,0,1-1.225-.128,50.29,50.29,0,0,0-5.511-.953,3.935,3.935,0,0,1-2.7-1.355,5.345,5.345,0,0,0-1.844-1.447,6.514,6.514,0,0,1-.752-.438c-.393-.249-.793-.514-.645-1.076.1-.4.58-.589,1.208-.549" fill="#62cbff"/>
    <path id="Path_695" data-name="Path 695" d="M360.992,200.685a6.135,6.135,0,0,1-3.018-1.053c-1.609-1.017-3.2-2.064-4.9-2.922a2.419,2.419,0,0,1-.994-.908,9.374,9.374,0,0,0-1.622-2.187.675.675,0,0,1-.19-.894,1.1,1.1,0,0,1,.973-.662,2.159,2.159,0,0,1,1.46.6,36.126,36.126,0,0,0,6.063,4.09,5.71,5.71,0,0,0,1.938.8,3.731,3.731,0,0,1,1.042.39c.766.374,1.152,1,.989,1.533a2.207,2.207,0,0,1-1.737,1.212" fill="#62cbff"/>
    <path id="Path_696" data-name="Path 696" d="M104.953,177.624a3.619,3.619,0,0,1-.589-.1,1.135,1.135,0,0,1-.86-.816c-.087-.484.3-.775.666-.949a13.435,13.435,0,0,1,2.295-.929c2.362-.626,4.614-1.582,6.958-2.258.676-.194,1.337-.446,2.021-.6a1.387,1.387,0,0,1,1.76.751,1.6,1.6,0,0,1-1.072,1.858,4.155,4.155,0,0,0-2.431,1.347c-.273.348-.81.393-1.255.485a35.479,35.479,0,0,1-4.532.734c-.985.073-1.958.313-2.961.482" fill="#62cbff"/>
    <path id="Path_697" data-name="Path 697" d="M76.473,187.813c-.893-.019-1.59-.48-1.645-1.017a1.4,1.4,0,0,1,1.131-1.426A1.737,1.737,0,0,0,77.1,184.5a2.363,2.363,0,0,1,1.569-1.138,1.951,1.951,0,0,0,1.28-.7c.735-1.11,2.007-1.072,3.062-1.469.57-.215,1.2-.282,1.795-.487a1.023,1.023,0,0,1,1.237.32,1.105,1.105,0,0,1,.028,1.39,3.391,3.391,0,0,1-1.544,1.4,3.4,3.4,0,0,0-1.709,1.382,2.655,2.655,0,0,1-1.384,1,38.041,38.041,0,0,0-4.464,1.511,1.481,1.481,0,0,1-.5.1" fill="#62cbff"/>
    <path id="Path_698" data-name="Path 698" d="M185.5,57.843c.642-.02.867.413,1.071.81a26.006,26.006,0,0,0,2.384,3.46,4.625,4.625,0,0,0,1.766,1.527,5.475,5.475,0,0,1,1.613,1.529,11.32,11.32,0,0,1,2.131,3.028c.207.488.41.911-.1,1.329a1.413,1.413,0,0,1-1.729.1,14.5,14.5,0,0,1-3.877-3.891c-1.274-1.777-2.661-3.473-4-5.2A1.582,1.582,0,0,1,185,58.064a3.509,3.509,0,0,1,.5-.221" fill="#62cbff"/>
    <path id="Path_699" data-name="Path 699" d="M319.286,283.628a1.829,1.829,0,0,1,1.952,1.437,10.211,10.211,0,0,0,1.385,2.767,4.515,4.515,0,0,1,.472,1.011,1.228,1.228,0,0,1-.223,1.489,1.575,1.575,0,0,0-.264,1.94,18.724,18.724,0,0,1,.663,2c.131.477.056.933-.5,1.111a.933.933,0,0,1-1.166-.467,5.176,5.176,0,0,1-.307-.677q-.878-2.127-1.749-4.256a6.313,6.313,0,0,0-1.377-2.051c-.088-.088-.188-.164-.276-.252-1.413-1.418-1.176-3.1.562-3.992a1.2,1.2,0,0,1,.827-.064" fill="#62cbff"/>
    <path id="Path_700" data-name="Path 700" d="M214.923,257.9c-.108.546-.174,1.085-.324,1.6-.43,1.467-.646,2.989-1.192,4.429a7.331,7.331,0,0,0-.476,2.553,6.378,6.378,0,0,1-.424,2.06.843.843,0,0,1-.671.654c-1.194.181-2.526-1.1-2.185-2.216.919-3.01,1.336-6.147,2.35-9.13.093-.274.18-.551.284-.822a1.208,1.208,0,0,1,1.3-.922,1.388,1.388,0,0,1,1.229,1.074,4.336,4.336,0,0,1,.1.721" fill="#62cbff"/>
    <path id="Path_701" data-name="Path 701" d="M324.039,129.408c-.317-.056-.563-.094-.807-.144-.556-.113-.69-.539-.73-1.02a.822.822,0,0,1,.655-.931,20.2,20.2,0,0,1,2.195-.413c1.64-.213,3.287-.377,4.928-.587a3.236,3.236,0,0,0,2.327-1.285,1.812,1.812,0,0,1,1.122-.733q2.064-.423,4.14-.8c.526-.094,1.11-.221,1.363.479a1.364,1.364,0,0,1-.7,1.585,15.955,15.955,0,0,1-2.3.94c-3.737,1.2-7.593,1.916-11.412,2.784-.281.063-.57.088-.789.121" fill="#62cbff"/>
    <path id="Path_702" data-name="Path 702" d="M176.767,222.555a6.265,6.265,0,0,1-.86,2.192c-.482.624-.968,1.244-1.432,1.881a7.857,7.857,0,0,1-2.255,2.074,14.361,14.361,0,0,0-3.384,3.266,14.96,14.96,0,0,1-1.563,1.931c-.244.217-.512.5-.868.249a.8.8,0,0,1-.207-.913,2.3,2.3,0,0,1,.263-.694,16.207,16.207,0,0,1,2.462-3.561,20.853,20.853,0,0,0,2.883-4.038,11.764,11.764,0,0,1,3.157-3.458c.917-.61,1.773-.113,1.8,1.071" fill="#62cbff"/>
    <path id="Path_703" data-name="Path 703" d="M328.1,49.517a.982.982,0,0,1-.99-.487,1.011,1.011,0,0,1,.187-1.258,21.926,21.926,0,0,1,2.2-2.183,23.1,23.1,0,0,0,2.358-2.356,4.621,4.621,0,0,1,2.244-1.682,1.647,1.647,0,0,0,.854-.677,7.447,7.447,0,0,1,1.96-1.7.854.854,0,0,1,1.133.06.93.93,0,0,1,.317,1.206,5.363,5.363,0,0,1-.873,1.351,3.375,3.375,0,0,0-.995,1.4.952.952,0,0,1-.583.6,13.931,13.931,0,0,0-4.291,3.491,16.2,16.2,0,0,1-1.826,1.671,3.626,3.626,0,0,1-1.7.563" fill="#62cbff"/>
    <path id="Path_704" data-name="Path 704" d="M339.858,188.758a8.993,8.993,0,0,1-2.3-.5c-.91-.4-1.853-.728-2.777-1.1a8.64,8.64,0,0,1-1.964-1.069c-.388-.289-.711-.636-.536-1.151.206-.6-.145-.933-.514-1.28a10.087,10.087,0,0,0-2.243-1.763,2.489,2.489,0,0,1-.945-.793c-.444-.649-.444-.9.049-1.417s.818-.59,1.419-.166a9.733,9.733,0,0,0,1.627.9,3.889,3.889,0,0,1,1.524,1.43,8.473,8.473,0,0,0,4.49,3.551,10.01,10.01,0,0,1,2.745,1.677c.357.246.679.529.5,1.02a.94.94,0,0,1-1.082.656" fill="#62cbff"/>
    <path id="Path_705" data-name="Path 705" d="M155.229,134.661c-2.363.227-4.581-.473-6.8-1.063a6.792,6.792,0,0,1-2.565-1.433,4.026,4.026,0,0,0-1.7-.957c-.787-.184-1.448-.93-1.368-1.4s1.163-.8,1.975-.524c.723.247,1.525.3,2.072,1.013a1.922,1.922,0,0,0,1.5.471,16.864,16.864,0,0,1,6.4,1.256,2.363,2.363,0,0,0,.725.13c.95.1,1.468.6,1.4,1.357a1.47,1.47,0,0,1-1.634,1.152" fill="#62cbff"/>
    <path id="Path_706" data-name="Path 706" d="M234.626,14.309a9.006,9.006,0,0,1-.01,1.241c-.1.716-.573.973-1.262.75a1.528,1.528,0,0,1-1.186-1.677,24.435,24.435,0,0,0-.543-5.559A4.869,4.869,0,0,0,230.9,7.1a7.689,7.689,0,0,1-1.314-4.817,1.084,1.084,0,0,1,.971-1.211.9.9,0,0,1,1.046.846c.114.865.746,1.575.648,2.494a1.071,1.071,0,0,0,.634,1A1.7,1.7,0,0,1,233.7,6.99a2.608,2.608,0,0,0,.414,1.534,1.907,1.907,0,0,1,.288,1.189c-.06,1.537.15,3.063.226,4.6" fill="#62cbff"/>
    <path id="Path_707" data-name="Path 707" d="M196.724,231.741a7.375,7.375,0,0,1-.448,1.767,7.956,7.956,0,0,0-.99,3.428,4.763,4.763,0,0,1-.9,2.161,24.2,24.2,0,0,0-1.67,3.053,2.688,2.688,0,0,1-1.061,1.2,1.229,1.229,0,0,1-1.6-.08,1.063,1.063,0,0,1-.22-1.456,12.241,12.241,0,0,1,.65-1.061,4.083,4.083,0,0,0,.836-2.046,2.262,2.262,0,0,1,.243-.83c.7-1.415,1.225-2.9,1.818-4.365a10.473,10.473,0,0,1,1.553-2.54.95.95,0,0,1,1.2-.39,1.067,1.067,0,0,1,.594,1.164" fill="#62cbff"/>
    <path id="Path_708" data-name="Path 708" d="M365.12,173.155a3.631,3.631,0,0,1,1.808.721,31.2,31.2,0,0,0,7.584,3.663,2,2,0,0,1,1.537,1.451,2.026,2.026,0,0,0,.956,1.1,19.227,19.227,0,0,0,5.449,2.9,2.4,2.4,0,0,1,.348.133c.227.112.473.243.431.539-.054.385-.386.427-.671.367-1.611-.339-3.286-.451-4.731-1.386-.9-.584-1.852-1.1-2.778-1.654a4.486,4.486,0,0,1-1.543-1.757,1.356,1.356,0,0,0-.883-.8,12.715,12.715,0,0,1-3.109-1.253,43.529,43.529,0,0,0-4.253-1.75,2.7,2.7,0,0,1-.959-.56.962.962,0,0,1-.327-1.112c.175-.457.534-.6,1.141-.6" fill="#62cbff"/>
    <path id="Path_709" data-name="Path 709" d="M210.971,12.6c0,.083,0,.166,0,.249-.032,1-.31,1.444-.944,1.5A1.6,1.6,0,0,1,208.48,13a25.942,25.942,0,0,0-1.088-4.959,36.3,36.3,0,0,0-1.4-3.969,16.182,16.182,0,0,1-.658-2.509A1.647,1.647,0,0,1,205.33.95c.089-.479.323-.885.849-.943a.971.971,0,0,1,1.1.637c.309.99.806,1.9,1.121,2.877.2.626.468,1.234.635,1.873a1.478,1.478,0,0,0,.794,1.052.94.94,0,0,1,.645.841c-.014,1.788.417,3.532.5,5.309" fill="#62cbff"/>
    <path id="Path_710" data-name="Path 710" d="M179.607,109.459a1.2,1.2,0,0,1,1,.3c1.4,1.024,2.834,1.981,4.184,3.079,1.308,1.062,2.714,2.017,4.025,3.086.763.622.915,1.142.486,1.641a1.451,1.451,0,0,1-2,.1c-.361-.277-.7-.585-1.054-.866-.794-.626-1.511-1.425-2.7-1.132a.836.836,0,0,1-.582-.178,32.51,32.51,0,0,1-5.032-4.13.543.543,0,0,1-.057-.675,1.818,1.818,0,0,1,1.742-1.224" fill="#62cbff"/>
    <path id="Path_711" data-name="Path 711" d="M186.777,291.368a7.19,7.19,0,0,1-.933,3.394,12.277,12.277,0,0,0-1.312,3.068,4.817,4.817,0,0,1-.2.585c-.617,1.408-1.093,1.369-2.2.361a2.892,2.892,0,0,1-.616-4.053.662.662,0,0,0,.082-.233,7.57,7.57,0,0,1,2.811-4.519c.429-.389.768-.925,1.464-.629a1.493,1.493,0,0,1,.9,1.494c0,.123,0,.247,0,.532" fill="#62cbff"/>
    <path id="Path_712" data-name="Path 712" d="M405.3,191.548c-.01.114.013.218-.029.276-.741,1.01.084,1.517.7,2a12.034,12.034,0,0,0,1.923,1.356.812.812,0,0,1,.435,1.229c-.252.523-.524.592-1.239.278a10.148,10.148,0,0,1-2.613-1.669c-1.158-1.017-2.451-1.841-3.684-2.748a4.53,4.53,0,0,1-1.741-1.709c-.14-.321-.484-.434-.791-.567-1.749-.754-3.5-1.494-5.241-2.276-1.018-.458-2.009-.976-3-1.482a3.009,3.009,0,0,1-.6-.439.339.339,0,0,1-.1-.444.38.38,0,0,1,.438-.149,4.051,4.051,0,0,1,1.949,1.049,4.186,4.186,0,0,0,1.708.965c1.613.532,3.221,1.078,4.831,1.619a20.674,20.674,0,0,0,2.3.488,41.113,41.113,0,0,1,4.146,1.265.921.921,0,0,1,.616.953" fill="#62cbff"/>
    <path id="Path_713" data-name="Path 713" d="M125.438,174.174a7.523,7.523,0,0,1-3.049-.34c-.374-.1-.714-.3-.7-.756a.88.88,0,0,1,.78-.842c.361-.081.736-.1,1.106-.147a14.3,14.3,0,0,0,4.87-1.338,10.965,10.965,0,0,1,5.284-1.177c.592.013,1.188.009,1.435.707a1.684,1.684,0,0,1-.619,1.766,4.12,4.12,0,0,1-1.531.8,42.216,42.216,0,0,1-7.577,1.326" fill="#62cbff"/>
    <path id="Path_714" data-name="Path 714" d="M134.93,128.56a18.149,18.149,0,0,1-6.894-1.822c-1.444-.718-2.771-1.613-4.166-2.4a.94.94,0,0,1-.538-1.136c.152-.5.644-.508,1.045-.449a7.316,7.316,0,0,1,2.169.484,19.591,19.591,0,0,0,3.065.977c2.018.62,4.064,1.155,6.04,1.91.881.336,1.247.75,1.166,1.371-.069.53-.725.994-1.514,1.067-.123.011-.249,0-.373,0" fill="#62cbff"/>
    <path id="Path_715" data-name="Path 715" d="M152.909,228.656a1.467,1.467,0,0,1,0-.243,16.305,16.305,0,0,1,2.026-5.12c.24-.337.516-.649.755-.986a2.552,2.552,0,0,1,2.047-1.417c.482-.01.771-.452,1.14-.712.736-.519,1.272-.516,1.789-.014a1.41,1.41,0,0,1,.085,2.014,22.924,22.924,0,0,1-1.737,1.777,28.114,28.114,0,0,0-3.607,4.722,4.025,4.025,0,0,1-.5.7,1.331,1.331,0,0,1-1.459.437c-.577-.237-.521-.783-.538-1.159" fill="#62cbff"/>
    <path id="Path_716" data-name="Path 716" d="M146.437,170.394a4.742,4.742,0,0,1-1.751-.2c-.573-.175-.716-.442-.4-.9a7.689,7.689,0,0,0,1.359-2.049.347.347,0,0,1,.429-.177c1.315.434,2.521-.238,3.775-.377,1.522-.168,3.023-.517,4.539-.746,1.131-.171,1.664.074,1.866.751.2.66-.214,1.052-1.037,1.756-1.479,1.267-3.223,1.36-5,1.453-1.081.057-2.126.338-3.193.477a3.657,3.657,0,0,1-.591,0" fill="#62cbff"/>
    <path id="Path_717" data-name="Path 717" d="M204.491,63.268c-.012.557-.2.968-.718,1.083a1.176,1.176,0,0,1-1.283-.563,5.343,5.343,0,0,1-.6-1.754,2.8,2.8,0,0,0-1.629-2.316,1.814,1.814,0,0,1-.89-1.293,10.594,10.594,0,0,0-1.444-3.01,3.885,3.885,0,0,1-.475-1.14,10.491,10.491,0,0,0-.846-2.327.733.733,0,0,1,.044-1.013c.346-.347.67-.151,1.023-.022a1.607,1.607,0,0,1,1.025,1.011,4.628,4.628,0,0,0,1.952,2.635,1.354,1.354,0,0,1,.5.539c.96,2,2.416,3.78,2.7,6.089.092.734.569,1.378.637,2.081" fill="#62cbff"/>
    <path id="Path_718" data-name="Path 718" d="M282.771,250.633a4.489,4.489,0,0,1-.154.783,1.02,1.02,0,0,1-.968.661.9.9,0,0,1-.906-.534,2.137,2.137,0,0,1-.236-.7c-.319-3.029-1.415-5.872-2.1-8.813a2.425,2.425,0,0,1,.521-2.314,1.335,1.335,0,0,1,2.217.174,8.3,8.3,0,0,1,1.206,5.233,19.823,19.823,0,0,0,.263,4.206c.031.413.1.823.162,1.3" fill="#62cbff"/>
    <path id="Path_719" data-name="Path 719" d="M306.951,218.009c.643.456,1.725.5,2.3,1.43.2.317.288.74.554.964,1.688,1.417,2.273,3.488,3.259,5.324.39.727.9,1.389,1.328,2.1.46.767.426,1.118-.077,1.527-.528.429-1,.385-1.632-.239a9.883,9.883,0,0,1-1.9-2.286c-1.042-1.943-2.5-3.612-3.72-5.435a10.465,10.465,0,0,1-1.141-2.053c-.342-.883-.087-1.328,1.027-1.33" fill="#62cbff"/>
    <path id="Path_720" data-name="Path 720" d="M111.614,97.233a2.172,2.172,0,0,1,.988.329,86.553,86.553,0,0,0,8.873,4.1c1.308.46,2.488,1.277,3.863,1.653.671.184.881.677.7,1.114a.969.969,0,0,1-1.362.482,8.681,8.681,0,0,0-3.958-.844,7.362,7.362,0,0,1-2.122-.671,17.017,17.017,0,0,0-2.454-.876,1.284,1.284,0,0,1-1.073-.928c-.2-.744-.782-1.029-1.374-1.331a8.571,8.571,0,0,1-2.552-1.948.65.65,0,0,1-.176-.685.689.689,0,0,1,.647-.4" fill="#62cbff"/>
    <path id="Path_721" data-name="Path 721" d="M150.2,58.083a1.922,1.922,0,0,1,1.036.38,8.19,8.19,0,0,1,1.841,1.66,10.967,10.967,0,0,0,2.592,2.483,19.136,19.136,0,0,1,2.55,2.358c.714.672.832,1.376.426,1.864a1.54,1.54,0,0,1-2.05.086c-1.2-.873-2.355-1.812-3.519-2.737s-2.322-1.871-3.482-2.808c-1.081-.874-1.236-1.821-.476-2.784a1.292,1.292,0,0,1,1.082-.5" fill="#62cbff"/>
    <path id="Path_722" data-name="Path 722" d="M293.628,106.027a2.857,2.857,0,0,0-2.509,1.5,14.142,14.142,0,0,1-2.776,2.617,2.483,2.483,0,0,1-1.789.317.825.825,0,0,1-.507-1.337,2.619,2.619,0,0,1,.593-.438,45.247,45.247,0,0,0,6.883-5.643c.791-.784,1.878-1.194,2.709-1.953a12.478,12.478,0,0,1,1.313-.938c.486-.34.97-.688,1.562-.192.5.417.5.785.048,1.66a1.58,1.58,0,0,1-.559.648c-.987.616-1.8,1.455-2.712,2.157a2.279,2.279,0,0,0-.61.769,1.461,1.461,0,0,1-1.646.831" fill="#62cbff"/>
    <path id="Path_723" data-name="Path 723" d="M198.753,308.675a19.046,19.046,0,0,1,.212-3.337,6.57,6.57,0,0,0-.036-2.224,2.471,2.471,0,0,1,.782-2.131,1.339,1.339,0,0,1,1.469-.406,1.356,1.356,0,0,1,1.031,1.255,1.145,1.145,0,0,1,.016.247c-.292,2.379.064,4.784-.279,7.159a6.648,6.648,0,0,1-.7,2.111,1.244,1.244,0,0,1-1.421.747,1.215,1.215,0,0,1-1.065-1.312c-.038-.7-.008-1.406-.008-2.109" fill="#62cbff"/>
    <path id="Path_724" data-name="Path 724" d="M196.54,189.578a1.587,1.587,0,0,1-.725,1.711,6.076,6.076,0,0,1-2.189,1.141,4.734,4.734,0,0,0-1.864.953,1.763,1.763,0,0,1-2.665-.115c-1.141-1.1-1.055-2.177.275-3.082a8.44,8.44,0,0,1,1.406-.8,15.157,15.157,0,0,0,3.942-2.341,1.172,1.172,0,0,1,1.371-.293c.482.256.449.749.449,1.209Z" fill="#62cbff"/>
    <path id="Path_725" data-name="Path 725" d="M92.907,181.237c-1.239-.149-2.387-.281-3.534-.427-.375-.048-.785-.13-.845-.585a.826.826,0,0,1,.619-.84c1.26-.515,2.512-1.073,3.813-1.459a36.624,36.624,0,0,0,3.664-1.14,2.1,2.1,0,0,1,1.568-.071c.467.165.939.317,1.409.472.5.166.9.428.955,1.011a1.408,1.408,0,0,1-.747,1.453,2.808,2.808,0,0,1-.931.317,41.425,41.425,0,0,0-4.834,1.1,9.017,9.017,0,0,1-1.137.169" fill="#62cbff"/>
    <path id="Path_726" data-name="Path 726" d="M235.15,291.868c-.327,1.139-.089,2.545-.582,3.853a5.484,5.484,0,0,0-.159,1.848,19.111,19.111,0,0,1-.7,3.776.993.993,0,0,1-1.08.833,1.113,1.113,0,0,1-1.128-.959,2.286,2.286,0,0,1-.053-.737c.082-.865.173-1.729.291-2.589a19.454,19.454,0,0,0,.028-4.08,4.725,4.725,0,0,1,1.177-3.987c.855-.826,1.684-.62,2.064.5a4.674,4.674,0,0,1,.141,1.539" fill="#62cbff"/>
    <path id="Path_727" data-name="Path 727" d="M292.895,283.9c.035-.467.037-.676.069-.88a1.04,1.04,0,0,1,.794-1,1.012,1.012,0,0,1,1.167.52,17.924,17.924,0,0,1,1.779,3.416c.257.876.608,1.72.847,2.593.348,1.276.56,2.589.821,3.888a1.79,1.79,0,0,1,.007.5,1.188,1.188,0,0,1-.932,1.178,1.11,1.11,0,0,1-1.319-.7,14.988,14.988,0,0,1-.674-1.871,19.175,19.175,0,0,0-.9-2.181,39.566,39.566,0,0,1-1.657-5.465" fill="#62cbff"/>
    <path id="Path_728" data-name="Path 728" d="M354.935,221.743a1.859,1.859,0,0,1-.911-.361c-.628-.472-1.295-.9-1.887-1.41a38.607,38.607,0,0,0-4.884-3.347c-1.043-.655-1.163-.885-.771-2.07.077-.23.054-.494.128-.726a1.109,1.109,0,0,1,1.705-.594c1.74,1.6,3.91,2.624,5.636,4.238.182.171.42.324.452.572a2.807,2.807,0,0,0,1.368,1.968.811.811,0,0,1,.239,1.1.919.919,0,0,1-1.075.626" fill="#62cbff"/>
    <path id="Path_729" data-name="Path 729" d="M257.668,117.877a5.812,5.812,0,0,0,.784-.865,8.693,8.693,0,0,0,1.013-2.108c.578-1.372,1.539-2.53,2.2-3.856a1.319,1.319,0,0,0-.466-1.929c-.738-.559-1.057-.519-1.794.239a3.742,3.742,0,0,0-.481.566,48.593,48.593,0,0,1-3.933,5.4,2.185,2.185,0,0,0-.532,1.147q1.628.644,3.205,1.407" fill="#62cbff"/>
    <path id="Path_730" data-name="Path 730" d="M295.723,238.7a.96.96,0,0,1,.765-1.158.986.986,0,0,1,1.277.472,59.153,59.153,0,0,1,2.9,5.616c.315.807.526,1.647.878,2.449a19.751,19.751,0,0,0,.989,2.137c.479.808.41,1.267-.145,1.623a1.216,1.216,0,0,1-1.738-.407,7.6,7.6,0,0,1-.463-.736,16.378,16.378,0,0,0-1.137-1.782,5.144,5.144,0,0,1-1.447-3.592,3.372,3.372,0,0,0-.838-1.912,7.116,7.116,0,0,1-1.045-2.71" fill="#62cbff"/>
    <path id="Path_731" data-name="Path 731" d="M165.179,135.2c1.131-.33,2.291.379,3.482.794a23.659,23.659,0,0,1,4.561,1.594,5.345,5.345,0,0,0,1.329.277c.781.205,1.091.593,1,1.185a1.447,1.447,0,0,1-1.3,1.144.3.3,0,0,1-.123,0c-1.605-.589-3.361-.326-4.975-.95a40.767,40.767,0,0,0-5.976-2.055.9.9,0,0,1-.813-.945.862.862,0,0,1,.847-.9c.573-.076,1.154-.088,1.964-.143" fill="#62cbff"/>
    <path id="Path_732" data-name="Path 732" d="M331.524,141.7c1.764.558,3.767-.164,5.731.228a2.7,2.7,0,0,0,1.235-.046,1.594,1.594,0,0,1,1.378.408c.534.378.665,1.04-.109,1.334-.268.1-.493.367-.761.41-1.508.243-3.031.391-4.515.776a.2.2,0,0,1-.123-.012c-1.768-.85-3.584-.2-5.375-.142a5.135,5.135,0,0,1-2.247-.609c-.5-.213-.5-.73-.283-1.187a1.377,1.377,0,0,1,1.16-.828c1.238-.113,2.477-.211,3.909-.332" fill="#62cbff"/>
    <path id="Path_733" data-name="Path 733" d="M388.825,168.5a10.831,10.831,0,0,1,3.3.65c1.372.456,2.717,1,4.124,1.35a2.632,2.632,0,0,1,1.282.715,3.427,3.427,0,0,0,1.533,1.007.8.8,0,0,1,.641.931,1.02,1.02,0,0,1-.789.862,1.692,1.692,0,0,1-1.21-.1,18.886,18.886,0,0,0-6.025-1.333,2.469,2.469,0,0,1-1.931-.925c-.43-.575-1.122-.844-1.6-1.363-.3-.325-.73-.606-.493-1.158a1.009,1.009,0,0,1,1.206-.633c.081.013.164.015-.039,0" fill="#62cbff"/>
    <path id="Path_734" data-name="Path 734" d="M212.619,226.686a3.719,3.719,0,0,1-1.335-.123.9.9,0,0,1-.465-1.551c.3-.391.674-.727,1.009-1.093a11.374,11.374,0,0,0,2.336-3.481,14.843,14.843,0,0,1,1.889-2.748c.41-.6,1.1-.492,1.538.14a2.854,2.854,0,0,1,.285,2.387,12.008,12.008,0,0,1-1.406,3.163c-.383.68-.793,1.352-1.2,2.009a2.651,2.651,0,0,1-2.648,1.3" fill="#62cbff"/>
    <path id="Path_735" data-name="Path 735" d="M367.72,88.426a9.747,9.747,0,0,1-.985-.1A.814.814,0,0,1,366,87.6a.913.913,0,0,1,.448-.953,8,8,0,0,1,.925-.337,46.357,46.357,0,0,1,6.2-2.01,11.636,11.636,0,0,0,1.5-.588,1.266,1.266,0,0,1,.964-.1,4,4,0,0,0,2.79-.058,2.6,2.6,0,0,1,.486-.1.618.618,0,0,1,.639.286.592.592,0,0,1-.1.793,4.959,4.959,0,0,1-1.74,1.151c-1.574.5-3.131,1.066-4.7,1.577a7.329,7.329,0,0,1-1.571.345,11.369,11.369,0,0,0-2.772.637,3.493,3.493,0,0,1-1.346.186" fill="#62cbff"/>
    <path id="Path_736" data-name="Path 736" d="M139.107,274.721a5.215,5.215,0,0,1-1.5,2.956,14.112,14.112,0,0,0-3.3,3.525,4.727,4.727,0,0,1-1.5,1.479,1.176,1.176,0,0,1-1.593-.093,1.371,1.371,0,0,1-.53-1.65,5.909,5.909,0,0,1,1.911-2.567,12.2,12.2,0,0,0,3.376-3.6c.237-.341.453-.7.7-1.028a1.323,1.323,0,0,1,1.5-.626,1.648,1.648,0,0,1,.924,1.6" fill="#62cbff"/>
    <path id="Path_737" data-name="Path 737" d="M215.139,102.627a1.01,1.01,0,0,1-.5,1.048,1.145,1.145,0,0,1-1.184-.037,2.269,2.269,0,0,1-.918-1.144,2.92,2.92,0,0,0-1.967-1.912,1.2,1.2,0,0,1-.8-.723,49.444,49.444,0,0,1-2.549-5.648,5.374,5.374,0,0,1-.229-.706.919.919,0,0,1,.461-.949.636.636,0,0,1,.793.173c1.409,1.352,3.123,2.428,3.683,4.515a7.978,7.978,0,0,0,1.922,2.863,6.442,6.442,0,0,1,1.294,2.52" fill="#62cbff"/>
    <path id="Path_738" data-name="Path 738" d="M94.934,139.785a24.845,24.845,0,0,0,5.015.192c.289.01.582-.011.869.015,1.193.1,1.47.617.855,1.62a14.26,14.26,0,0,0-.9,1.625,1.524,1.524,0,0,1-1.817.972c-1.756-.284-3.5-.626-5.256-.944a2.25,2.25,0,0,1-.9-.408c-.9-.636-.923-1.287-.082-2.007,1.182-1.012,1.392-1.116,2.213-1.065" fill="#62cbff"/>
    <path id="Path_739" data-name="Path 739" d="M231.683,204.99a5,5,0,0,1-.507,1.655c-1.164,1.82-1.247,4.032-2.19,5.93a2.365,2.365,0,0,0-.085.693c.061.376.128.826.21,1.274.113.622.391,1.108,1.1,1.145a1.25,1.25,0,0,0,1.295-.959c.366-1.011.687-2.04,1.071-3.044a37.364,37.364,0,0,0,1.48-6.4l0-.015q-1.2-.109-2.378-.283" fill="#62cbff"/>
    <path id="Path_740" data-name="Path 740" d="M97.779,115.3a1.367,1.367,0,0,1-.319-.037c-2.122-.691-4.378-.937-6.383-2.04a20,20,0,0,1-3.167-1.921,1.209,1.209,0,0,1-.514-1.062c.029-.547.356-.887.89-.767a8.861,8.861,0,0,1,3.521,1.128,1.688,1.688,0,0,0,.9.394c1.954.08,3.567,1.346,5.479,1.565a.9.9,0,0,1,.232.089c.887.371,1.2.787,1.08,1.444a1.609,1.609,0,0,1-1.721,1.207" fill="#62cbff"/>
    <path id="Path_741" data-name="Path 741" d="M296.377,85.541a2.818,2.818,0,0,1,1.134-2.312,16.282,16.282,0,0,0,2.764-3.008,12.63,12.63,0,0,1,2.762-2.491,1.189,1.189,0,0,1,1.5-.028.736.736,0,0,1,.352,1.047,4.64,4.64,0,0,1-.88,1.486,41.122,41.122,0,0,0-3.27,3.744,6.266,6.266,0,0,0-1.23,2.283c-.377,1.3-1.319,1.278-2.4,1.107-.62-.1-.815-.64-.735-1.828" fill="#62cbff"/>
    <path id="Path_742" data-name="Path 742" d="M218.682,247.549c.012-.079.028-.245.064-.406.393-1.737.761-3.481,1.192-5.208a11.754,11.754,0,0,0,.47-3.436,4.933,4.933,0,0,1,.092-1.237,1.186,1.186,0,0,1,1.322-1.04,1.272,1.272,0,0,1,1.2,1.446,9.783,9.783,0,0,1-.329,1.581,4.582,4.582,0,0,0,.052,3.281,1.075,1.075,0,0,1,.1.847,16.068,16.068,0,0,1-1.112,3.152c-.318.482-.554,1.017-.826,1.529-.04.073-.069.151-.112.222a1.339,1.339,0,0,1-1.424.778c-.52-.128-.742-.58-.69-1.509" fill="#62cbff"/>
    <path id="Path_743" data-name="Path 743" d="M266.588,197.968a2.063,2.063,0,0,0-1.439-1.149q-1.089.774-2.229,1.461c.038.018.069.039.111.055a2.777,2.777,0,0,1,1.349,1.215,13.8,13.8,0,0,1,1.572,3.361,19.718,19.718,0,0,0,2,4.92.982.982,0,0,0,1.231.541,1.027,1.027,0,0,0,.8-1.111,3.747,3.747,0,0,0-.129-.731,54.543,54.543,0,0,0-3.265-8.562" fill="#62cbff"/>
    <path id="Path_744" data-name="Path 744" d="M113.32,143.168c2.5.361,5.206.491,7.61,1.888a4.31,4.31,0,0,1,.636.383.763.763,0,0,1-.085,1.334,1.533,1.533,0,0,1-1.4.339c-1.119-.482-2.286-.2-3.423-.329a14.208,14.208,0,0,0-3.328-.106,2.93,2.93,0,0,1-2.855-1.394,1.1,1.1,0,0,1,.6-1.845,2.39,2.39,0,0,1,.6-.145c.493-.051.988-.077,1.644-.125" fill="#62cbff"/>
    <path id="Path_745" data-name="Path 745" d="M204.234,85.9a1,1,0,0,1-.6,1.039c-.452.227-1.049.246-1.263-.132-.695-1.233-2.1-1.713-2.862-2.819a41.188,41.188,0,0,1-2.218-3.582c-.441-.8-1.021-1.5-1.442-2.314-.341-.659,0-1.032.365-1.41a.987.987,0,0,1,1.445-.022,4.4,4.4,0,0,1,1.623,2.141,1.968,1.968,0,0,0,.892,1.15,4.347,4.347,0,0,1,1.345,1.439,29.25,29.25,0,0,0,1.784,2.54,5.086,5.086,0,0,1,.928,1.97" fill="#62cbff"/>
    <path id="Path_746" data-name="Path 746" d="M175.489,163.647a17.212,17.212,0,0,0,4.083.126,1.258,1.258,0,0,1,1.329.732,1.559,1.559,0,0,1-.392,1.713,3.888,3.888,0,0,1-3.266,1.084,16.049,16.049,0,0,0-5.419-.069c-.978.174-1.467-.012-1.67-.623a1.267,1.267,0,0,1,.965-1.715c1.471-.367,2.763-1.366,4.37-1.248" fill="#62cbff"/>
    <path id="Path_747" data-name="Path 747" d="M159.808,122.6a2.42,2.42,0,0,1-1.191-.307c-1.791-1.03-3.63-1.966-5.487-2.87a2.307,2.307,0,0,1-.605-.426,1.614,1.614,0,0,1,.744-2.739.734.734,0,0,1,.8.184,1.647,1.647,0,0,0,1.573.525.591.591,0,0,1,.573.168c.768.983,1.974,1.153,3.008,1.642.673.319,1.364.6,2.011.969,1.368.77,1.388,1.323.168,2.261a2.546,2.546,0,0,1-1.593.593" fill="#62cbff"/>
    <path id="Path_748" data-name="Path 748" d="M172.429,78.855A1.248,1.248,0,0,1,170.757,80a1.827,1.827,0,0,1-1.136-.9,7.432,7.432,0,0,0-2.014-2.172,21.132,21.132,0,0,1-3.422-4.056c-.547-.706-1.074-1.459-1.566-2.221-.235-.363-.463-.757-.08-1.116.427-.4.846-.166,1.2.173.449.428.869.887,1.328,1.3A8.408,8.408,0,0,0,167.9,73.17a1.306,1.306,0,0,1,.5.355c1.135,1.2,2.325,2.352,3.364,3.644a3.319,3.319,0,0,1,.671,1.686" fill="#62cbff"/>
    <path id="Path_749" data-name="Path 749" d="M131.852,74.264a1.249,1.249,0,0,1-1.337,1.523,1.826,1.826,0,0,1-1.324-.6,7.471,7.471,0,0,0-2.489-1.606,21.161,21.161,0,0,1-4.32-3.083c-.7-.549-1.4-1.148-2.066-1.764-.318-.294-.636-.619-.354-1.062.315-.494.778-.37,1.206-.13.54.3,1.061.645,1.609.934a8.383,8.383,0,0,0,3.276,1.4,1.3,1.3,0,0,1,.571.22c1.4.884,2.835,1.7,4.161,2.7a3.317,3.317,0,0,1,1.067,1.467" fill="#62cbff"/>
    <path id="Path_750" data-name="Path 750" d="M280.315,105.089a1.351,1.351,0,0,1-1.161-.913,1,1,0,0,1,.252-1.239,65.134,65.134,0,0,0,5.383-6.161c.478-.571.943-1.154,1.429-1.719.5-.581.85-.653,1.389-.32a1,1,0,0,1,.438,1.381,5.4,5.4,0,0,1-.751,1.422,34.257,34.257,0,0,0-3.741,5.539,5.633,5.633,0,0,1-3.238,2.01" fill="#62cbff"/>
    <path id="Path_751" data-name="Path 751" d="M158.171,94.009a.919.919,0,0,1,.5-.805.684.684,0,0,1,.913.031c1.972,1.731,4.39,2.8,6.478,4.355,1.03.769,2.062,1.534,3.085,2.313.414.316.767.73.544,1.273a1.2,1.2,0,0,1-1.353.678,3.9,3.9,0,0,1-1.982-.675,30.558,30.558,0,0,0-2.979-2.02,13.887,13.887,0,0,1-4.481-4.166c-.217-.346-.662-.524-.724-.984" fill="#62cbff"/>
    <path id="Path_752" data-name="Path 752" d="M205.753,213.627a8.854,8.854,0,0,1-.859,2.729,8.15,8.15,0,0,0-.649,1.73,18.839,18.839,0,0,1-2.915,5.58,1.236,1.236,0,0,1-1.766.284,1,1,0,0,1-.366-1.508c.987-1.464,1.374-3.174,2.128-4.729a37.1,37.1,0,0,0,2.511-4.971c.258-.824.919-.882,1.517-.228a1.41,1.41,0,0,1,.4,1.113" fill="#62cbff"/>
    <path id="Path_753" data-name="Path 753" d="M172.374,282.388a5.8,5.8,0,0,1-.592,2.271,27.751,27.751,0,0,1-2.734,5.3,8.041,8.041,0,0,1-.522.7,1.344,1.344,0,0,1-1.563.451,1.5,1.5,0,0,1-1.041-1.278,2.908,2.908,0,0,1,.538-2c.918-1.529,1.865-3.04,2.8-4.556.306-.494.634-.974.934-1.47s.561-1.065,1.312-.886c.582.138.859.626.864,1.477" fill="#62cbff"/>
    <path id="Path_754" data-name="Path 754" d="M154.9,185.332c1.318.024,1.841.949,1.218,2.033a2.373,2.373,0,0,1-1.329,1.054,16.83,16.83,0,0,1-3.368.822,46.257,46.257,0,0,0-4.747.879,1.327,1.327,0,0,1-1.173-.194.876.876,0,0,1-.126-1.467,2.148,2.148,0,0,1,.616-.406,12.621,12.621,0,0,0,2.693-1.51,3.17,3.17,0,0,1,1.415-.417,31.319,31.319,0,0,0,4.143-.718,2.668,2.668,0,0,1,.658-.076" fill="#62cbff"/>
    <path id="Path_755" data-name="Path 755" d="M299.955,162.209a3.014,3.014,0,0,1-1.763-.531,34.346,34.346,0,0,0-4.225-2.1,4.457,4.457,0,0,1-1.868-1.4,2.074,2.074,0,0,0-.978-.738,4.894,4.894,0,0,1-1.345-.885.977.977,0,0,1-.136-1.6c.474-.565,1.139-.668,1.588-.052a6.756,6.756,0,0,0,3.315,2.049c2.069.842,4.086,1.818,6.113,2.763a1.593,1.593,0,0,1,.922,1.614c-.093.511-.744.865-1.623.884" fill="#62cbff"/>
    <path id="Path_756" data-name="Path 756" d="M118.388,159.85c1.1-.265,2.493-.055,3.824-.5a22.8,22.8,0,0,1,3.331-.316c.978-.171,1.958-.337,2.942-.471.785-.107,1.225.151,1.367.732a1.2,1.2,0,0,1-.9,1.42,5.051,5.051,0,0,1-1.1.191,2.26,2.26,0,0,0-1.238.508,4.3,4.3,0,0,1-3.382.878,5.773,5.773,0,0,0-1.605-.092,11.09,11.09,0,0,1-3.659-.5,1.245,1.245,0,0,1-.569-.234,1.189,1.189,0,0,1-.457-1.323c.157-.479.606-.311.966-.3.082,0,.165,0,.48,0" fill="#62cbff"/>
    <path id="Path_757" data-name="Path 757" d="M236.557,259.175c.231-1.762.423-3.531.707-5.285a17.792,17.792,0,0,1,.328-2.705,3.532,3.532,0,0,1,.838-1.5,1,1,0,0,1,1.678.082,2.163,2.163,0,0,1,.361.78,6.953,6.953,0,0,1-.254,4.492,13.189,13.189,0,0,0-.774,2.871,10.136,10.136,0,0,1-.58,2.026c-.313.761-.812,1.132-1.359,1.051s-.838-.527-.9-1.439c-.008-.124,0-.248,0-.372l-.049-.005" fill="#62cbff"/>
    <path id="Path_758" data-name="Path 758" d="M306.536,259.65a1.159,1.159,0,0,1,1.088.7c.615,1.126,1.265,2.237,1.788,3.4a11.443,11.443,0,0,1,1.364,3.831,6.305,6.305,0,0,0,.835,1.92c.228.494.292.961-.23,1.319a1.074,1.074,0,0,1-1.444-.277,2.332,2.332,0,0,1-.372-.5,16.382,16.382,0,0,0-2.866-3.573c-.87-.885-.873-.9-.358-2a2.179,2.179,0,0,0-.214-1.9,5.475,5.475,0,0,1-.549-1.769.949.949,0,0,1,.958-1.157" fill="#62cbff"/>
    <path id="Path_759" data-name="Path 759" d="M325.263,199.535a2.1,2.1,0,0,1-1.181-.327c-1.21-.723-2.475-1.343-3.727-1.991a6.858,6.858,0,0,1-3.551-4.562.8.8,0,0,1,.382-.954,1.05,1.05,0,0,1,1.372-.038c1.228.985,2.528,1.893,3.667,2.971,1.034.979,2.306,1.611,3.347,2.559.121.111.279.179.411.279.406.3.813.623.675,1.215a1.446,1.446,0,0,1-1.395.848" fill="#62cbff"/>
    <path id="Path_760" data-name="Path 760" d="M253.3,225.434a6.93,6.93,0,0,1,.064-1.847c.194-.759.58-1.113,1.154-1.087.6.027.98.39,1,1.188a3.934,3.934,0,0,0,.959,2.857,1.5,1.5,0,0,1,.268.811,4.771,4.771,0,0,0,.4,1.681.75.75,0,0,1,.089.479,21.027,21.027,0,0,0-.139,3.965.942.942,0,0,1-1.767.574,2.685,2.685,0,0,1-.456-.731,25.649,25.649,0,0,1-1.565-7.89" fill="#62cbff"/>
    <path id="Path_761" data-name="Path 761" d="M243.337,226.59c-.182,1.07-.335,1.841-.439,2.619-.165,1.228-.307,2.46-.44,3.692a1.637,1.637,0,0,1-1.026,1.557,1.42,1.42,0,0,0-.839,1.144,7.524,7.524,0,0,1-.425,1.29.639.639,0,0,1-1.226-.335,41.319,41.319,0,0,1,.527-6.272c.145-.813.179-1.649.37-2.449a2.609,2.609,0,0,1,1.88-2.114c.919-.242,1.651.315,1.618.868" fill="#62cbff"/>
    <path id="Path_762" data-name="Path 762" d="M135.554,149.472c-.19-.039-.515-.1-.836-.174-.241-.058-.509-.253-.709-.194-1.324.386-2.381-.434-3.551-.731a1.75,1.75,0,0,1-.943-.569.694.694,0,0,1-.023-1.01,3.547,3.547,0,0,1,2.419-1.353,31.382,31.382,0,0,1,4.438.514c.655.07,1.3.232,1.968.257a3.416,3.416,0,0,1,.855.149,1.142,1.142,0,0,1,.958,1.143,1.044,1.044,0,0,1-.858,1.09,18.625,18.625,0,0,0-3.205.85,2.992,2.992,0,0,1-.513.028" fill="#62cbff"/>
    <path id="Path_763" data-name="Path 763" d="M234.206,277.886c.292-1.32.027-3.25.419-5.126a6.868,6.868,0,0,1,.406-1.43,1.125,1.125,0,0,1,1.013-.793,1.367,1.367,0,0,1,1.318.77,2.928,2.928,0,0,1,.25,1.819c-.236,1.722-.493,3.441-.748,5.161a14.5,14.5,0,0,0-.286,3.453,1.248,1.248,0,0,1-.187.833.918.918,0,0,1-.92.511.81.81,0,0,1-.751-.723c-.094-1.322-.718-2.563-.514-4.475" fill="#62cbff"/>
    <path id="Path_764" data-name="Path 764" d="M130.481,228.093a2.039,2.039,0,0,1-.214.706,32.738,32.738,0,0,1-2.007,2.669c-1.119,1.287-2.679,2.058-3.922,3.208a2.262,2.262,0,0,1-1,.481c-.541.142-1.075.239-1.471-.3a1.521,1.521,0,0,1-.124-1.751,4.772,4.772,0,0,1,1.469-1.673A37.141,37.141,0,0,0,128,227.7a4.867,4.867,0,0,1,.9-.67c.861-.494,1.59-.053,1.584,1.066" fill="#62cbff"/>
    <path id="Path_765" data-name="Path 765" d="M262.27,274.393a13.2,13.2,0,0,0-.281,2.982,4.858,4.858,0,0,1-.205.969,1.4,1.4,0,0,1-1.24,1.065c-.663.055-.922-.466-1.126-.974a3.184,3.184,0,0,1-.3-1.07c-.054-2.2-.642-4.328-.785-6.511a3.934,3.934,0,0,1,.25-2.07c.206-.417.437-.83.981-.823a1.172,1.172,0,0,1,1.083.877,4.193,4.193,0,0,1,.212.712,22.274,22.274,0,0,0,1.275,4.266,3.2,3.2,0,0,1,.133.577" fill="#62cbff"/>
    <path id="Path_766" data-name="Path 766" d="M146.6,239.076a2.386,2.386,0,0,1-.674,1.432,16.707,16.707,0,0,0-2.635,3.42,8.528,8.528,0,0,1-1.939,1.885,6.143,6.143,0,0,0-1.324,1.287,1.061,1.061,0,0,1-.945.5.742.742,0,0,1-.794-.877,2.425,2.425,0,0,1,.452-1.146c1.321-1.884,2.144-4.086,3.761-5.789a12.628,12.628,0,0,1,2.123-1.888,1.124,1.124,0,0,1,1.286-.052,1.274,1.274,0,0,1,.689,1.226" fill="#62cbff"/>
    <path id="Path_767" data-name="Path 767" d="M259.207,53.986c-.135,1.064-.341,2.107-.577,3.154a29.408,29.408,0,0,0-1.221,6.555.958.958,0,0,1-1.444.908,1.694,1.694,0,0,1-1.02-1.764A41.807,41.807,0,0,1,256,55.506a4.155,4.155,0,0,1,1.1-2.455c.368-.345.757-.725,1.3-.461a1.3,1.3,0,0,1,.811,1.4" fill="#62cbff"/>
    <path id="Path_768" data-name="Path 768" d="M302.684,178.631a2.15,2.15,0,0,1,1.5.751,27.532,27.532,0,0,0,4.941,4.282,10.606,10.606,0,0,1,1.91,1.744,1.057,1.057,0,0,1,.194,1.366,1.283,1.283,0,0,1-1.33.72,2.417,2.417,0,0,1-1.536-.745,16.432,16.432,0,0,0-2.939-2.26,2.079,2.079,0,0,1-.868-.857,6.973,6.973,0,0,0-1.893-2.423,3.7,3.7,0,0,1-.894-1.178c-.351-.813.029-1.394.919-1.4" fill="#62cbff"/>
    <path id="Path_769" data-name="Path 769" d="M171.643,200.4c-.044-.5.315-.888.56-1.312a3.938,3.938,0,0,1,2.624-2.113,3.729,3.729,0,0,0,1.525-.814,5.389,5.389,0,0,1,2.664-1.252,6.935,6.935,0,0,0,1.946-.808c.417-.2.894-.41,1.217.106a1.011,1.011,0,0,1-.261,1.249,4.281,4.281,0,0,1-.974.761,29.049,29.049,0,0,0-5.414,3.948,9.329,9.329,0,0,1-1.94,1.337,1.239,1.239,0,0,1-1.947-1.1" fill="#62cbff"/>
    <path id="Path_770" data-name="Path 770" d="M231.406,314.806a15.1,15.1,0,0,1-.65,3.885,3.73,3.73,0,0,0-.189,2.191,3.23,3.23,0,0,1-.032,1.6,1,1,0,0,1-.816.833,1.142,1.142,0,0,1-1.1-.432,1.679,1.679,0,0,1-.413-1.021c-.058-1.417-.486-2.773-.657-4.171a1.507,1.507,0,0,1,.17-1.189,3.614,3.614,0,0,0,.7-1.964,4.045,4.045,0,0,1,.76-1.681c.243-.415.53-.774,1.078-.645a1.416,1.416,0,0,1,1.052.965,5.993,5.993,0,0,1,.1,1.628" fill="#62cbff"/>
    <path id="Path_771" data-name="Path 771" d="M133.53,195.067c-.041,0-.083,0-.124,0-.534-.028-1.12.04-1.345-.628-.174-.519.1-.9.817-1.353a19.922,19.922,0,0,1,3.321-1.364,3.272,3.272,0,0,0,1.348-.854,3.335,3.335,0,0,1,2.164-1.1c.447-.07.881-.223,1.328-.3a1.053,1.053,0,0,1,1.242,1.357,1.835,1.835,0,0,1-.308.674c-.965,1.187-1.891,2.42-3.559,2.707-1.628.281-3.248.615-4.871.926,0-.024-.009-.047-.013-.071" fill="#62cbff"/>
    <path id="Path_772" data-name="Path 772" d="M264.759,292.874a14.6,14.6,0,0,1-.285,3.984,3.114,3.114,0,0,1-.191.717.853.853,0,0,1-.852.6.977.977,0,0,1-.9-.559,2.053,2.053,0,0,1-.224-1.082,17.031,17.031,0,0,0-.364-3.94,1.624,1.624,0,0,1,.142-1.2,3.312,3.312,0,0,0-.074-3.2,10.7,10.7,0,0,1-.549-1.377,1.406,1.406,0,0,1,.833-1.721c.577-.16,1.01.136,1.4.911a4.768,4.768,0,0,1,.588,2.377,3.6,3.6,0,0,0,.123,1.227,9.029,9.029,0,0,1,.35,3.271" fill="#62cbff"/>
    <path id="Path_773" data-name="Path 773" d="M302.092,140.927a4.391,4.391,0,0,0,.64-.055,19.284,19.284,0,0,1,5.554,0c1.607.121,3.217.212,4.827.293a6.078,6.078,0,0,1,1.709.27,1.087,1.087,0,0,1,.816,1.224.867.867,0,0,1-.968.776c-2.014-.052-4.025.537-6.043.026a3.091,3.091,0,0,1-1.568-.686,2.075,2.075,0,0,0-1.59-.548,24.372,24.372,0,0,0-3.47.123c-.123.017-.244.045-.368.055-.807.063-1.324-.222-1.347-.738-.02-.447.466-.769,1.214-.792a5.581,5.581,0,0,1,.594.053" fill="#62cbff"/>
    <path id="Path_774" data-name="Path 774" d="M399.339,220.26c0,.682-.24.887-.923.769a2.587,2.587,0,0,1-1.032-.4,13.287,13.287,0,0,0-4.99-2.12c-.785-.149-1.41-.506-1.449-1.436a.781.781,0,0,0-.551-.754c-.672-.225-.869-.846-1.2-1.361a.69.69,0,0,1,.046-.91.883.883,0,0,1,.982-.343c1.67.482,3.453.9,4.587,2.265a16.369,16.369,0,0,0,3.679,2.867,1.612,1.612,0,0,1,.847,1.424" fill="#62cbff"/>
    <path id="Path_775" data-name="Path 775" d="M81.528,110.1a7.931,7.931,0,0,1-3.071-.915,15.6,15.6,0,0,0-3.9-1.873,2.65,2.65,0,0,1-.949-.576c-.757-.588-1.021-1.351-.667-1.908a1.908,1.908,0,0,1,2.3-.646c1.2.724,2.439,1.39,3.67,2.065a23.082,23.082,0,0,0,3.272,1.494c1.027.369,1.5.921,1.357,1.519-.128.544-.744.836-2.017.84" fill="#62cbff"/>
    <path id="Path_776" data-name="Path 776" d="M183.16,214.242c.11-.7.126-1.439.876-1.922a6.155,6.155,0,0,0,1.89-2.433c.706-1.307,1.9-2.176,2.78-3.33a1.453,1.453,0,0,1,1.229-.5.92.92,0,0,1,1.005.894,2.882,2.882,0,0,1-.737,2.291c-.64.59-1.256,1.207-1.866,1.828a6.4,6.4,0,0,0-1.751,2.821,2.507,2.507,0,0,1-1.455,1.6,1.294,1.294,0,0,1-1.971-1.248" fill="#62cbff"/>
    <path id="Path_777" data-name="Path 777" d="M168.531,183.823a3.766,3.766,0,0,1-2-.823.729.729,0,0,1-.2-1,1.953,1.953,0,0,1,1.541-1.126,15.031,15.031,0,0,0,4.6-1.447,1.729,1.729,0,0,1,1.2-.217,7.925,7.925,0,0,0,1.98.156c.483-.017.926.074,1.1.609a1.327,1.327,0,0,1-.317,1.383,1.633,1.633,0,0,1-1.355.5,2.2,2.2,0,0,0-1.9.737,2.484,2.484,0,0,1-1.657.753c-.987.122-1.966.306-3,.471" fill="#62cbff"/>
    <path id="Path_778" data-name="Path 778" d="M288.789,187.758a1.419,1.419,0,0,1-1.167-.634,4.447,4.447,0,0,0-1.784-1.681,6.64,6.64,0,0,1-1.117-.98,1.407,1.407,0,0,1-.452-1.771,1.574,1.574,0,0,0-.278-1.519c-.471-.827-.969-1.64-1.4-2.487a1.607,1.607,0,0,1-.122-1.653c.437-.744,1.029-.814,1.574-.147a2.616,2.616,0,0,1,.61,1.211,9.517,9.517,0,0,0,2.294,4.341,22.494,22.494,0,0,0,2.225,2.325,6.248,6.248,0,0,1,.851,1.057,1.076,1.076,0,0,1,.007,1.28,1.318,1.318,0,0,1-1.238.658" fill="#62cbff"/>
    <path id="Path_779" data-name="Path 779" d="M381.471,211.458a7.978,7.978,0,0,1-1.3-.366c-1.5-.705-3.039-1.313-4.583-1.91-.44-.17-.852-.42-.917-.927-.091-.711-.631-.915-1.16-1.161a5.97,5.97,0,0,1-2.477-1.6c-.553-.725-.434-1.332.34-1.722a1.057,1.057,0,0,1,1.06.125c.8.444,1.588.892,2.366,1.364a8.747,8.747,0,0,1,2.651,1.98c.641.819,1.837,1.071,2.777,1.594.651.362,1.313.707,1.962,1.074.286.162.629.334.568.733-.063.416-.428.59-.778.73a2.548,2.548,0,0,1-.505.088" fill="#62cbff"/>
    <path id="Path_780" data-name="Path 780" d="M197.088,125.96c.866.715,1.522,1.63,2.357,2.37.371.329.737.77,1.244.764a7.289,7.289,0,0,1,2.16.191c.089-.007.176-.013.26-.021q.374-.419.764-.828a1.216,1.216,0,0,0-.305-.512c-.417-.457-.876-.877-1.324-1.306-1.6-1.537-3.005-3.321-5.207-4.111-.5-.179-.819-.7-1.345-.875-.447-.151-.921-.274-1.249.17s-.087.849.212,1.234a17.107,17.107,0,0,0,2.433,2.924" fill="#62cbff"/>
    <path id="Path_781" data-name="Path 781" d="M214.625,115.148c-.4.206-.795.4-1.182.622-.7.4-.785.647-.479,1.407.139.345.317.674.442,1.024.276.765.16,1.2-.372,1.5a1.176,1.176,0,0,1-1.648-.328c-.4-.417-.715-.9-1.138-1.305-.767-.737-1.486-1.517-2.285-2.231a4.425,4.425,0,0,1-1.184-3.183c-.045-.847,1.06-1.357,2-.953a3.5,3.5,0,0,1,1.556,1.2c.532.79,1.366,1.326,1.77,2.224.2.453.644.451,1.079.316.46-.144.848-.5,1.443-.294" fill="#62cbff"/>
    <path id="Path_782" data-name="Path 782" d="M191.361,220.684c.643-.045,1.157.063,1.434.633a1.457,1.457,0,0,1-.215,1.727,47.411,47.411,0,0,0-3.42,4.719A5.96,5.96,0,0,1,188.13,229a1.8,1.8,0,0,1-1.5.433,1.045,1.045,0,0,1-.97-1.313,2.377,2.377,0,0,1,.4-1.034c1.255-1.747,2.165-3.713,3.5-5.414a2.061,2.061,0,0,1,1.8-.987" fill="#62cbff"/>
    <path id="Path_783" data-name="Path 783" d="M223.035,202.813a21.357,21.357,0,0,0-1.363,2.89,9.849,9.849,0,0,1-1.443,2.861,3.52,3.52,0,0,0-.686,1.8.833.833,0,0,0,.36.9.884.884,0,0,0,1.049.01,2.973,2.973,0,0,0,.573-.475,12.4,12.4,0,0,0,2.338-3.207c.57-1.311,1.284-2.573,1.79-3.914-.883-.259-1.755-.547-2.618-.858" fill="#62cbff"/>
    <path id="Path_784" data-name="Path 784" d="M162.563,205.263c1.027,0,1.4.545,1.058,1.531a3.783,3.783,0,0,1-1.107,1.59,25.314,25.314,0,0,1-4.3,2.684,5.2,5.2,0,0,1-1.778.525,2.05,2.05,0,0,1-1.424-.32,1.029,1.029,0,0,1-.41-1.488,1.8,1.8,0,0,1,.9-.829,47.276,47.276,0,0,0,5.081-3.077,4.283,4.283,0,0,1,1.988-.616" fill="#62cbff"/>
    <path id="Path_785" data-name="Path 785" d="M210.7,196.216A18.7,18.7,0,0,1,208.351,200a2.276,2.276,0,0,0-.546,1.1,7.566,7.566,0,0,1-1.009,2.783,6.423,6.423,0,0,0-.441,1.025c-.255.854-.048,1.4.591,1.683s1.184.088,1.669-.66a9.571,9.571,0,0,0,.994-2.136,3.283,3.283,0,0,1,.424-1.028c1.274-1.553,1.537-3.545,2.341-5.3.01-.022.014-.047.023-.069q-.855-.573-1.693-1.179" fill="#62cbff"/>
    <path id="Path_786" data-name="Path 786" d="M186.521,92.009a1.406,1.406,0,0,1-1.93,1.387,2.738,2.738,0,0,1-.989-.739c-1.412-1.781-2.792-3.588-4.24-5.34a1.076,1.076,0,0,1-.027-1.534c.841-1.2.8-1.177,2.128-.494,1.023.529,1.454,1.563,2.131,2.372a26.582,26.582,0,0,0,1.982,2.377,4,4,0,0,1,.945,1.971" fill="#62cbff"/>
    <path id="Path_787" data-name="Path 787" d="M290.454,270.092c.038,1.113-.147,1.52-.7,1.641-.608.134-1.169-.24-1.439-1.087a33.072,33.072,0,0,1-1.368-4.257.3.3,0,0,0-.026-.121c-1.059-1.43-.465-3.026-.456-4.563a2.4,2.4,0,0,1,.056-.493c.121-.549.307-1.075.98-1.109.655-.034.979.418,1.119.972.365,1.444.756,2.886,1.016,4.349.239,1.346.392,2.706.748,4.031a3.377,3.377,0,0,1,.066.637" fill="#62cbff"/>
    <path id="Path_788" data-name="Path 788" d="M305.842,314.261a.915.915,0,0,1-.535.958.8.8,0,0,1-.973-.332c-1.342-1.518-2.351-3.278-3.551-4.9a3.911,3.911,0,0,1-.436-1.023c-.141-.394-.1-.81.342-.923.859-.221.995-.9,1.148-1.591.045-.2.1-.4.161-.6.134-.406.312-.8.823-.789a1,1,0,0,1,.92.724,21.083,21.083,0,0,1,.633,2.135c.474,1.967.92,3.941,1.377,5.913.037.16.069.322.091.425" fill="#62cbff"/>
    <path id="Path_789" data-name="Path 789" d="M178.618,152.693a2.665,2.665,0,0,0-1.557.333,2.81,2.81,0,0,1-.691.272,1.621,1.621,0,0,1-1.914-.756,1.5,1.5,0,0,1,.63-1.84c1.579-.84,3.186-1.632,5.067-.828a14.737,14.737,0,0,0,2.975.866,2.87,2.87,0,0,1,1.438.695.835.835,0,0,1-.029,1.389,2.114,2.114,0,0,1-2.268.531,10.959,10.959,0,0,0-3.651-.662" fill="#62cbff"/>
    <path id="Path_790" data-name="Path 790" d="M267.289,315.726a29.774,29.774,0,0,0,.39,4.983,6.712,6.712,0,0,1,.07,1.607,1.1,1.1,0,0,1-1.051,1.039.983.983,0,0,1-1.176-.84,12.187,12.187,0,0,1-.451-2.057c-.139-1.273-.213-2.553-.281-3.832a8.232,8.232,0,0,0-.361-1.693,2.675,2.675,0,0,1,.338-2.482,1.2,1.2,0,0,1,2.228.252,5,5,0,0,1,.294,2.074c0,.373,0,.745,0,.949" fill="#62cbff"/>
    <path id="Path_791" data-name="Path 791" d="M228.716,105.244a3.481,3.481,0,0,1-.289,1.534,1.156,1.156,0,0,1-1.4.758c-.644-.146-1.284-.293-1.936-.4-.358-.06-.757-.247-.782-.69-.023-.407.359-.5.659-.646.827-.4.783-.4.613-1.258-.2-1.014-.257-2.061-.5-3.064a14.73,14.73,0,0,1-.674-2.887,2.464,2.464,0,0,1,.11-1.225.877.877,0,0,1,.873-.579.753.753,0,0,1,.706.613,10.031,10.031,0,0,0,1.752,3.812.924.924,0,0,1,.153.338c.275,1.293.388,2.616.716,3.695" fill="#62cbff"/>
    <path id="Path_792" data-name="Path 792" d="M192.109,160.051a2.251,2.251,0,0,1-1.22-.593c-.229-.211-.614-.312-.733.038-.265.784-.9,1.124-1.506,1.566a.985.985,0,0,0,.243,1.833,7.9,7.9,0,0,0,2.149.53c.5-.08.993-.161,1.489-.237q-.213-1.569-.422-3.137" fill="#62cbff"/>
    <path id="Path_793" data-name="Path 793" d="M173.263,126.16a1.216,1.216,0,0,1,1.121.341,3.312,3.312,0,0,0,1.858.908c1.263.241,2.327,1.035,3.589,1.291a.813.813,0,0,1,.677.791.931.931,0,0,1-.549.9,1.814,1.814,0,0,1-1.311.26,3.124,3.124,0,0,0-2.053.218,2.291,2.291,0,0,1-1.917-.2c-.865-.394-1.713-.826-2.568-1.243a2.033,2.033,0,0,1-1.1-1.887,2.105,2.105,0,0,1,1.736-1.372c.164-.013.33,0,.521,0" fill="#62cbff"/>
    <path id="Path_794" data-name="Path 794" d="M295.219,172.893a1.816,1.816,0,0,1-1.4-.678,4.982,4.982,0,0,0-2.253-1.69,5,5,0,0,1-2.048-1.767,18.981,18.981,0,0,1-1.225-1.871c-.488-.811-.436-1.456.11-1.9a1.308,1.308,0,0,1,1.968.228q2.742,2.757,5.465,5.533a2.105,2.105,0,0,1,.431.6c.407.917-.05,1.582-1.044,1.551" fill="#62cbff"/>
    <path id="Path_795" data-name="Path 795" d="M223.878,83.913a1.789,1.789,0,0,1-2.08-1.519c-.259-.951-.418-1.931-.6-2.9a1.064,1.064,0,0,1,.03-.612c.494-1.029.27-2.175.556-3.241.108-.406.232-.678.641-.8a.84.84,0,0,1,1.086.348c.6,1.242,1.5,2.394,1.327,3.9a5.492,5.492,0,0,0,.486,2.647c.612,1.55.2,2.172-1.443,2.176" fill="#62cbff"/>
    <path id="Path_796" data-name="Path 796" d="M377.67,115.829a5.3,5.3,0,0,1-.652-.112c-.5-.131-.968-.329-1-.941a1.3,1.3,0,0,1,.716-1.329,12.988,12.988,0,0,1,5.3-1.6c.906-.069,1.821,0,2.725-.153a1.26,1.26,0,0,1,1.221.458.891.891,0,0,1-.093,1.4,2.325,2.325,0,0,1-.713.49,17.145,17.145,0,0,1-5.26,1.332,2.065,2.065,0,0,0-.947.239,2.458,2.458,0,0,1-1.289.213" fill="#62cbff"/>
    <path id="Path_797" data-name="Path 797" d="M215.233,29.142a1.08,1.08,0,0,1-1.532,1.012c-1.248-.728-2.707-1.265-2.977-3.053-.165-1.089-.712-2.162-.84-3.213a4.541,4.541,0,0,1,.513-2.908c.26-.412,1.167-.4,1.273.062.39,1.7,1.9,2.787,2.308,4.44a12.6,12.6,0,0,0,1.067,3.163,3.157,3.157,0,0,1,.188.5" fill="#62cbff"/>
    <path id="Path_798" data-name="Path 798" d="M237.041,76.138a4.994,4.994,0,0,0-.33-1.921c-.474-1.477-.982-2.985-.406-4.588a5.346,5.346,0,0,0,.263-2.209.906.906,0,0,1,.862-1.025c.571-.067.882.257,1.026.843a23.03,23.03,0,0,1,.745,7.477,8.326,8.326,0,0,0,.15,1.728c.127,1.069-.288,1.784-1.019,1.824-.751.042-1.344-.748-1.315-1.756,0-.125.016-.249.024-.373" fill="#62cbff"/>
    <path id="Path_799" data-name="Path 799" d="M170.139,38.058a1.529,1.529,0,0,1-1.284-.636,3.241,3.241,0,0,0-.851-.9c-2.4-1.429-3.129-3.894-3.9-6.326a1.727,1.727,0,0,1-.064-.732.8.8,0,0,1,1.269-.644,1.382,1.382,0,0,1,.64.572,14.264,14.264,0,0,0,2.026,2.473,50.5,50.5,0,0,1,3.177,4.721c.462.753-.089,1.47-1.009,1.467" fill="#62cbff"/>
    <path id="Path_800" data-name="Path 800" d="M406.613,127.524c.6,0,.973-.011,1.346,0,.255.01.517.074.577.371a.675.675,0,0,1-.305.757,1.864,1.864,0,0,1-.582.211,1.338,1.338,0,0,0-1.219,1.056c-.171.733-.807.9-1.45.951a3.314,3.314,0,0,0-2.22.62c-.246.225-.555.084-.822-.037a5.79,5.79,0,0,0-2.555-.442,3.17,3.17,0,0,1-1.875-.567.891.891,0,0,1-.444-.954c.089-.433.409-.541.825-.6,1.971-.266,3.936-.579,5.9-.854,1.021-.142,1.969-.711,2.819-.519" fill="#62cbff"/>
    <path id="Path_801" data-name="Path 801" d="M85.387,163.888c-.637-.07-1.295-.15-1.954-.213-.437-.042-.835-.139-.952-.634a1.28,1.28,0,0,1,.351-1.368,3.419,3.419,0,0,1,1.559-.731,51.655,51.655,0,0,1,5.758-.951c.951-.087,1.624.268,1.8.953a1.8,1.8,0,0,1-1.043,2.034,7.839,7.839,0,0,1-2.3.491c-1.071.084-2.135.273-3.222.419" fill="#62cbff"/>
    <path id="Path_802" data-name="Path 802" d="M357.01,120.541a3.964,3.964,0,0,1-.82-.094,1.16,1.16,0,0,1-.633-2,4.373,4.373,0,0,1,2.274-1.433q2.478-.554,4.965-1.07c.615-.129,1.376-.265,1.744.258.324.461-.2,1.031-.387,1.561a2.184,2.184,0,0,1-1.965,1.44c-.611.108-1.217.241-1.827.349-.326.058-.706.047-.915.322-.568.745-1.365.669-2.436.672" fill="#62cbff"/>
    <path id="Path_803" data-name="Path 803" d="M332.606,203.514a1.121,1.121,0,0,1,.808.268,20.089,20.089,0,0,0,3.132,2,9.8,9.8,0,0,1,2.315,2.235.9.9,0,0,1-.123,1.326,2.024,2.024,0,0,1-2.9.315,34.42,34.42,0,0,0-3.689-2.524c-1.015-.555-1.1-1.011-.751-2.176.072-.238.1-.489.181-.723a.967.967,0,0,1,1.025-.722" fill="#62cbff"/>
    <path id="Path_804" data-name="Path 804" d="M238.93,85.6a4.277,4.277,0,0,0,.268,1.765,19.024,19.024,0,0,1,.933,5.232c.122,1.1-.323,1.736-1.067,1.792-.772.059-1.424-.647-1.433-1.677A3.227,3.227,0,0,0,237,90.65a5.964,5.964,0,0,1-1-3.159,5.9,5.9,0,0,1,.766-2.835,1,1,0,0,1,1.295-.663,1.259,1.259,0,0,1,.9,1.3,2.713,2.713,0,0,1-.037.311" fill="#62cbff"/>
    <path id="Path_805" data-name="Path 805" d="M375.715,165.4c-1.23-.443-2.768-.289-4.18-.867-1.226-.5-2.505-.874-3.761-1.3a2.181,2.181,0,0,1-.987-.5c-.314-.345-.6-.711-.364-1.222a1.1,1.1,0,0,1,1.2-.691,9.63,9.63,0,0,1,3.7.785,4.9,4.9,0,0,0,2.166.5,1.452,1.452,0,0,1,.912.309,4.518,4.518,0,0,0,1.675.793,2.377,2.377,0,0,1,.793.342c.372.264.752.571.588,1.121a1.046,1.046,0,0,1-1.047.731c-.164.013-.331,0-.691,0" fill="#62cbff"/>
    <path id="Path_806" data-name="Path 806" d="M352.26,143.327a6.106,6.106,0,0,0,.981-.126,7.2,7.2,0,0,1,3.45-.029,8.855,8.855,0,0,0,2.591.238,1.516,1.516,0,0,1,.493.035,1.432,1.432,0,0,1,1.2,1.385,1.457,1.457,0,0,1-1.429,1.3,5.409,5.409,0,0,1-.618-.054,28.705,28.705,0,0,0-4.6-.019c-1.347.133-2.475-.59-3.676-1.016a.605.605,0,0,1-.335-.735,1.074,1.074,0,0,1,.824-.982,8.548,8.548,0,0,1,1.112-.066l.006.067" fill="#62cbff"/>
    <path id="Path_807" data-name="Path 807" d="M216.36,109.538c.024-.285.039-.533.068-.78a1.408,1.408,0,0,1,2.341-1.046,4.935,4.935,0,0,1,2.01,2.733,12.157,12.157,0,0,0,1.119,2.341c.252.59.713,1.208.072,1.816-.568.538-1.169.268-1.842.108a3.964,3.964,0,0,1-2.815-2.833,12.515,12.515,0,0,0-.676-1.325,1.4,1.4,0,0,1-.277-1.014" fill="#62cbff"/>
    <path id="Path_808" data-name="Path 808" d="M251.745,80.941a7.655,7.655,0,0,1,.7-3.378c.445-1.33,1.022-2.616,1.545-3.92a2.064,2.064,0,0,1,.173-.329c.247-.39.524-.859,1.052-.645a1.053,1.053,0,0,1,.526,1.163,44.882,44.882,0,0,1-1.068,7.6,5.777,5.777,0,0,1-.481,1.273c-.232.451-.47.9-1.106.8a1.515,1.515,0,0,1-1.27-1.2,12.887,12.887,0,0,1-.073-1.364" fill="#62cbff"/>
    <path id="Path_809" data-name="Path 809" d="M120.24,201.621c-.8-.06-1.34-.064-1.869-.151a1.232,1.232,0,0,1-.46-2.3c1.131-.469,2.079-1.282,3.384-1.459a7.307,7.307,0,0,1,3.412-.1c.575.191,1.131.41,1.21,1.091a1.384,1.384,0,0,1-.764,1.459c-1.634.778-3.218,1.791-4.913,1.459" fill="#62cbff"/>
    <path id="Path_810" data-name="Path 810" d="M102.343,164.21c-.552-.093-1.249-.191-1.936-.334a1.88,1.88,0,0,1-1.185-1.439c-.021-.371.247-.482.515-.607a17.267,17.267,0,0,1,7.752-1.189,1.207,1.207,0,0,1,1.3,1.339c0,.913-.425,1.652-1.141,1.658a30.909,30.909,0,0,0-4.793.569,4.065,4.065,0,0,1-.516,0" fill="#62cbff"/>
    <path id="Path_811" data-name="Path 811" d="M349.423,278.57a.943.943,0,0,1-1.157.864,2.323,2.323,0,0,1-1.241-.777,7.205,7.205,0,0,0-2.009-1.639,1.239,1.239,0,0,1-.72-1.216,5.159,5.159,0,0,0-.753-2.463,13.441,13.441,0,0,1-.644-1.61.755.755,0,0,1,.256-.992.993.993,0,0,1,1.063,0,2.637,2.637,0,0,1,.962.952,9.959,9.959,0,0,0,2.483,2.75,2.148,2.148,0,0,1,.693,1,20.062,20.062,0,0,0,.986,2.808,1.138,1.138,0,0,1,.081.324" fill="#62cbff"/>
    <path id="Path_812" data-name="Path 812" d="M219.288,59.783a4.6,4.6,0,0,1,.168-1.749.926.926,0,0,1,.692-.928c.475-.106.761.2,1.047.521A6.838,6.838,0,0,1,222.66,61.7a15.8,15.8,0,0,0,.652,3.536c.328.97.275,1.256-.234,1.52a1.4,1.4,0,0,1-1.757-.51,9.788,9.788,0,0,0-1.505-2.094,2.392,2.392,0,0,1-.381-1.423c-.057-1.034-.1-2.069-.147-2.947" fill="#62cbff"/>
    <path id="Path_813" data-name="Path 813" d="M389.226,80.983c-.388-.028-.68-.03-.966-.073-.554-.083-.713-.515-.8-.98a.8.8,0,0,1,.579-.971,11.693,11.693,0,0,1,1.555-.437,27.612,27.612,0,0,0,7.387-2.875c.441-.23.886-.452,1.331-.675a.9.9,0,0,1,1.268.416.8.8,0,0,1-.279,1.193,13.481,13.481,0,0,1-3.148,1.7,8.545,8.545,0,0,0-2.148.947,18.785,18.785,0,0,1-3.9,1.62,4.342,4.342,0,0,1-.884.134" fill="#62cbff"/>
    <path id="Path_814" data-name="Path 814" d="M350.33,63.625a1.694,1.694,0,0,1,1.146.331c.41.327.563.691.19,1.164A19.868,19.868,0,0,0,350.18,67.1a1.572,1.572,0,0,1-1.517.679,1.721,1.721,0,0,0-1.426.6,12.537,12.537,0,0,1-2.2,1.609c-.734.492-1.489.431-1.809,0a1.513,1.513,0,0,1,.385-1.9c1.289-1.159,2.579-2.322,3.935-3.4a6.219,6.219,0,0,1,2.778-1.052" fill="#62cbff"/>
    <path id="Path_815" data-name="Path 815" d="M399.7,150.443c-.678-.23-1.314-.414-1.924-.661a10.158,10.158,0,0,1-1.32-.689.8.8,0,0,1-.188-1.414,1.574,1.574,0,0,1,.877-.432,15.867,15.867,0,0,1,3.085-.347,13.326,13.326,0,0,0,2.849-.139,1.621,1.621,0,0,1,1.69.545,1.923,1.923,0,0,1,.555,1.934c-.274.666-.99.681-1.611.713-1.359.071-2.746-.16-4.013.49" fill="#62cbff"/>
    <path id="Path_816" data-name="Path 816" d="M173.6,315.564a39.485,39.485,0,0,1,1.954-5.547c.374-.7,1.059-.713,1.687-.194a2.971,2.971,0,0,1,.907,3.145,25.491,25.491,0,0,1-1.339,3.742c-.529.975-.879,1.224-1.588,1.067a1.96,1.96,0,0,1-1.621-2.213" fill="#62cbff"/>
    <path id="Path_817" data-name="Path 817" d="M259.045,252.094c-.379,1.572.166,3.343.411,5.136.017.122.044.244.054.368.042.53-.031,1.008-.63,1.193-.533.164-.957-.08-1.271-.7a16.509,16.509,0,0,1-.976-3.448,9.964,9.964,0,0,0-1.351-3.3,1.387,1.387,0,0,1-.2-1.5c.429-.917.79-1.084,1.758-.7.23.092.454.2.681.3.4.177.945-.056,1.224.449a2.978,2.978,0,0,1,.3,1.564c0,.124,0,.248,0,.64" fill="#62cbff"/>
    <path id="Path_818" data-name="Path 818" d="M343.528,237.981a1.152,1.152,0,0,1-.617,1.247,1.178,1.178,0,0,1-1.25-.336,2.811,2.811,0,0,1-.448-.431c-1.659-2.069-3.323-4.136-4.963-6.221a.922.922,0,0,1,.121-1.428c.555-.528.961-.587,1.524-.114a9.546,9.546,0,0,1,2.875,3.009A10.46,10.46,0,0,0,342.8,236.2a2.42,2.42,0,0,1,.727,1.781" fill="#62cbff"/>
    <path id="Path_819" data-name="Path 819" d="M200.44,194.981a1.434,1.434,0,0,1-.327.918,13.857,13.857,0,0,0-1.184,2.039,4.029,4.029,0,0,1-2.079,2.2,2.621,2.621,0,0,0-.837.728,2.765,2.765,0,0,1-.669.541,1.725,1.725,0,0,1-1.85-.283,1.315,1.315,0,0,1,.329-1.691,27.264,27.264,0,0,0,3.8-4.856c.122-.167.248-.332.367-.5.353-.5.746-.907,1.441-.67a1.654,1.654,0,0,1,1.011,1.573" fill="#62cbff"/>
    <path id="Path_820" data-name="Path 820" d="M213.995,80.562c-.036.592-.155,1.023-.673,1.194a1.519,1.519,0,0,1-1.521-.58,39.885,39.885,0,0,1-3.247-6.779,6.018,6.018,0,0,1-.264-.7.951.951,0,0,1,.4-1.191,1.252,1.252,0,0,1,1.586.143A8.174,8.174,0,0,1,211.3,74.2a4.238,4.238,0,0,0,1.487,2.227,1.331,1.331,0,0,1,.463.72,34.345,34.345,0,0,0,.748,3.411" fill="#62cbff"/>
    <path id="Path_821" data-name="Path 821" d="M237.544,40.463a5.067,5.067,0,0,0,.09,1.739,1.641,1.641,0,1,1-3.219.26c.105-2.311-.294-4.634.2-6.934.155-.734.577-1.15,1.241-1.12.306.014.566.093.641.459.324,1.581.666,3.158.984,4.74a6.064,6.064,0,0,1,.068.856" fill="#62cbff"/>
    <path id="Path_822" data-name="Path 822" d="M192.136,138.985a15.367,15.367,0,0,1-4.124-1.425,4.353,4.353,0,0,0-.71-.493c-1.081-.4-1.112-1.358-1.218-2.251a.934.934,0,0,1,.78-.991,2.456,2.456,0,0,1,2.059.106c1.392.9,2.959,1.5,4.284,2.511.7.538.933.98.738,1.546a1.863,1.863,0,0,1-1.809,1" fill="#62cbff"/>
    <path id="Path_823" data-name="Path 823" d="M235.123,54.392a13.276,13.276,0,0,0-.008-1.368,3.933,3.933,0,0,1,.8-2.551c.237-.372.455-.83,1.035-.743a1.683,1.683,0,0,1,1.189,1.3,3.67,3.67,0,0,1-.1.982,1.709,1.709,0,0,0-.018,1.1c.793,1.535.184,3.186.44,4.762A1.062,1.062,0,0,1,237.847,59a1,1,0,0,1-1.242-.275c-.865-.844-1.723-1.7-1.5-3.09a7.689,7.689,0,0,0,.011-1.243Z" fill="#62cbff"/>
    <path id="Path_824" data-name="Path 824" d="M175.914,273.036a1.155,1.155,0,0,1-1.138-.57.958.958,0,0,1,.172-1.047c.52-.694,1.137-1.307,1.6-2.056a44.7,44.7,0,0,0,2.146-4.339,9.278,9.278,0,0,1,1.162-1.9c.31-.382.56-.887,1.192-.583a1.292,1.292,0,0,1,.611,1.492,7.459,7.459,0,0,1-.892,2.168c-1.262,1.671-1.932,3.662-3.081,5.387a3.554,3.554,0,0,1-1.165,1.26,2.551,2.551,0,0,1-.6.185" fill="#62cbff"/>
    <path id="Path_825" data-name="Path 825" d="M182.9,141.194a6.219,6.219,0,0,1,3.277,1.025,5.162,5.162,0,0,0,1.72.67,6.264,6.264,0,0,1,1.181.362,1.516,1.516,0,0,1,.827,1.534,1.366,1.366,0,0,1-1.449.936,16.677,16.677,0,0,1-2.436-.439c-1-.245-2-.524-2.973-.858a3,3,0,0,1-1.9-1.292c-.546-1.022-.146-1.807,1.008-1.934a6.8,6.8,0,0,1,.742,0" fill="#62cbff"/>
    <path id="Path_826" data-name="Path 826" d="M260.01,26.459a11.787,11.787,0,0,1,.5-3.211,27.515,27.515,0,0,0,.575-3.176c.09-.913.359-1.2.952-1.218.773-.023,1.143.388,1.282,1.328a5.775,5.775,0,0,1-.074,2.21,8,8,0,0,0-.226,2.832,4.98,4.98,0,0,1-.768,3.08,1.219,1.219,0,0,1-2.342-.511,10.271,10.271,0,0,1,.1-1.334" fill="#62cbff"/>
    <path id="Path_827" data-name="Path 827" d="M193.775,172.006a2.661,2.661,0,0,0-.8-.126,14.923,14.923,0,0,0-5.729,1.392,1.922,1.922,0,0,0-.611.414c-.729.7-.613,1.372.267,1.871a4.451,4.451,0,0,0,2.542.285,11.48,11.48,0,0,0,1.607-.012,3.574,3.574,0,0,0,3.174-2.02c.023-.057.035-.1.055-.159q-.267-.814-.508-1.645" fill="#62cbff"/>
    <path id="Path_828" data-name="Path 828" d="M139.393,222.341a.909.909,0,0,1-1.019-.637,2.133,2.133,0,0,1,.708-2.444,10.629,10.629,0,0,1,2.471-1.4c.964-.471,1.936-.928,2.908-1.382a1.065,1.065,0,0,1,1.361.2.984.984,0,0,1,.042,1.367c-1.671,1.827-3.347,3.67-5.935,4.213-.2.042-.408.062-.536.081" fill="#62cbff"/>
    <path id="Path_829" data-name="Path 829" d="M193.245,270.111c-.54,2.471-.78,4.728-2.444,6.439-.394.4-.725.817-1.358.591a1.3,1.3,0,0,1-.781-1.514,6.981,6.981,0,0,1,.284-1.333,19.089,19.089,0,0,0,.948-3.594,4.957,4.957,0,0,1,.291-1.078,1.509,1.509,0,0,1,1.566-1.148,2.336,2.336,0,0,1,1.494,1.637" fill="#62cbff"/>
    <path id="Path_830" data-name="Path 830" d="M218.892,45.834a1.773,1.773,0,0,1-1.422,1.644,1.73,1.73,0,0,1-1.969-.929,3.15,3.15,0,0,1-.3-1.325,18.1,18.1,0,0,0-.444-3.314,2.393,2.393,0,0,1,.379-1.89,1.264,1.264,0,0,1,1.682-.633c.7.163.879.587.89,1.264a18.563,18.563,0,0,0,.761,3.123c.139.731.295,1.458.418,2.06" fill="#62cbff"/>
    <path id="Path_831" data-name="Path 831" d="M352.162,134.311c-.306,0-.556.017-.8,0-.8-.063-1.245-.441-1.293-1.085a1.37,1.37,0,0,1,1.032-1.378,28.379,28.379,0,0,1,3.03-.673c1.477-.2,2.97-.293,4.457-.419a4.553,4.553,0,0,1,.745.036,1.082,1.082,0,0,1,.322,2.069,3.9,3.9,0,0,1-1.566.371,25.784,25.784,0,0,0-4.379.866,12.858,12.858,0,0,1-1.545.215" fill="#62cbff"/>
    <path id="Path_832" data-name="Path 832" d="M266.988,74.459c-.513,1.182-.211,2.54-.406,3.814a9.23,9.23,0,0,1-1.767,3.923,1.3,1.3,0,0,1-1.893.156,1.071,1.071,0,0,1-.411-1.6,24.517,24.517,0,0,0,1.673-4.79c.212-.723.553-1.377.81-2.073.279-.753.638-1,1.13-.878a1.406,1.406,0,0,1,.864,1.448" fill="#62cbff"/>
    <path id="Path_833" data-name="Path 833" d="M309.135,196.357a.977.977,0,0,1,.826.484,17.309,17.309,0,0,1,1.378,2.2,2.524,2.524,0,0,0,1.28,1.46,4.438,4.438,0,0,1,1.836,1.792,12.789,12.789,0,0,0,1.674,2.143,1.658,1.658,0,0,1,.3.394,1.1,1.1,0,0,1-.159,1.273.944.944,0,0,1-1.235.212,2.271,2.271,0,0,1-.882-.671,16.187,16.187,0,0,0-1.911-1.937,3.955,3.955,0,0,1-1.312-2.16,9.226,9.226,0,0,0-1.8-2.941,9.842,9.842,0,0,1-.792-1.108.771.771,0,0,1,.8-1.141" fill="#62cbff"/>
    <path id="Path_834" data-name="Path 834" d="M194.239,100a2.6,2.6,0,0,1,2.337,1.4,10.609,10.609,0,0,0,2.2,2.8,1.527,1.527,0,0,1-.456,2.7,1.2,1.2,0,0,1-1.578-.277c-1.212-1.511-2.559-2.9-3.8-4.38a1.529,1.529,0,0,1-.388-.9c-.051-.847.577-1.352,1.686-1.347" fill="#62cbff"/>
    <path id="Path_835" data-name="Path 835" d="M279.088,206.366a1.17,1.17,0,0,1,.624-1.062,1.054,1.054,0,0,1,1.275.1,12.557,12.557,0,0,0,1.79,1.31,1.3,1.3,0,0,1,.515.676,35.429,35.429,0,0,0,1.88,4.307,1.241,1.241,0,0,1-.313,1.566.782.782,0,0,1-1.2.037,5.433,5.433,0,0,1-1.356-1.753,6.054,6.054,0,0,0-1.638-2.138,4.072,4.072,0,0,1-1.581-3.047" fill="#62cbff"/>
    <path id="Path_836" data-name="Path 836" d="M277.9,38.045a16.825,16.825,0,0,1-1.646,7.651c-.393.926-.63,1.078-1.339.888-.906-.244-1.257-.728-1.055-1.643a27.805,27.805,0,0,1,1.58-5.591c.253-.558.335-1.19.553-1.766.289-.762.662-1.025,1.135-.9a1.172,1.172,0,0,1,.772,1.357" fill="#62cbff"/>
    <path id="Path_837" data-name="Path 837" d="M236.694,25.362c0,.5.031,1-.006,1.49-.091,1.182-.834,1.567-1.757.872a4.678,4.678,0,0,1-1.837-3.249A12.429,12.429,0,0,1,233,21.766a4.106,4.106,0,0,1,.79-2.649c.26-.268.542-.555.965-.424.362.112.454.451.535.78A8.078,8.078,0,0,1,235.4,21.2c.012.453-.022.975.435,1.23a1.733,1.733,0,0,1,.794,1.813c-.01.372,0,.745,0,1.117Z" fill="#62cbff"/>
    <path id="Path_838" data-name="Path 838" d="M309.312,133.746a2.969,2.969,0,0,1-1.583-.3,4.4,4.4,0,0,0-1.4-.478,1.544,1.544,0,0,1-1.132-.69,1.217,1.217,0,0,1-.144-1.291.922.922,0,0,1,1.19-.4c1.134.341,2.214-.089,3.313-.205.9-.1,1.8-.29,2.7-.432a1.757,1.757,0,0,1,.979.047.891.891,0,0,1,.295,1.576,2.688,2.688,0,0,0-1.03,1.185,1.178,1.178,0,0,1-.875.631,6.789,6.789,0,0,1-2.307.356" fill="#62cbff"/>
    <path id="Path_839" data-name="Path 839" d="M251.515,107.7a11.755,11.755,0,0,1-1.677,4.6.872.872,0,0,1-1.081.372,1.518,1.518,0,0,1-1.236-1.239,4.266,4.266,0,0,1,.16-1.471,30.913,30.913,0,0,0,.853-3.732,6.113,6.113,0,0,1,.942-2.138c.249-.483.656-.458,1.038-.15a2.3,2.3,0,0,1,.791,1.507c.1.694.134,1.4.21,2.251" fill="#62cbff"/>
    <path id="Path_840" data-name="Path 840" d="M262.5,38.608c-.074,1.17-.1,2.037-.188,2.9a2.2,2.2,0,0,1-2.754,1.928c-.721-.227-1.093-.64-.951-1.378.286-1.489.3-3.061,1.158-4.4a1.874,1.874,0,0,0,.266-.941,1.759,1.759,0,0,1,.385-1.028,1.007,1.007,0,0,1,1.111-.348.832.832,0,0,1,.72.75c.07.94.508,1.855.253,2.517" fill="#62cbff"/>
    <path id="Path_841" data-name="Path 841" d="M321.853,213.762c-.023-1,.651-1.435,1.484-.99a3.647,3.647,0,0,1,.764.623,46.224,46.224,0,0,1,4.174,4.914,2.986,2.986,0,0,1,.335.522,1.079,1.079,0,0,1-1.258,1.577,3.529,3.529,0,0,1-1.77-1.092,52.913,52.913,0,0,1-3.2-4.256,2.282,2.282,0,0,1-.532-1.3" fill="#62cbff"/>
    <path id="Path_842" data-name="Path 842" d="M277.838,192.7a25.781,25.781,0,0,1-2.055-5.563,1.644,1.644,0,0,0-.293-.651q-.93,1.3-1.99,2.534a4.668,4.668,0,0,1-.157.693c-.141.863.538,1.328.878,1.963a11.142,11.142,0,0,0,1.986,2.664,1.034,1.034,0,0,0,1.439.223,1.1,1.1,0,0,0,.407-1.415c-.055-.155-.145-.3-.215-.448" fill="#62cbff"/>
    <path id="Path_843" data-name="Path 843" d="M288.176,225.858c-.015-.569.037-1.062.621-1.27a1.291,1.291,0,0,1,1.543.485,11.346,11.346,0,0,1,1.755,2.985c.4,1.089.872,2.144,1.3,3.218a5.1,5.1,0,0,1,.24.7,1.017,1.017,0,0,1-.375,1.107,1.1,1.1,0,0,1-1.279.095,1.443,1.443,0,0,1-.737-.8,34.19,34.19,0,0,0-2.466-4.578,3.7,3.7,0,0,1-.6-1.939" fill="#62cbff"/>
    <path id="Path_844" data-name="Path 844" d="M355.9,94.766a2.55,2.55,0,0,0-1.509.247,6.221,6.221,0,0,1-2.654.481.917.917,0,0,1-.355-1.762c.889-.337,1.77-.708,2.679-.979a10.561,10.561,0,0,0,2.087-.784,23.119,23.119,0,0,1,3.08-.926.754.754,0,0,1,.964.352.926.926,0,0,1,.085,1.046c-.466.784-.9,1.567-1.942,1.753-.8.143-1.494.746-2.435.572" fill="#62cbff"/>
    <path id="Path_845" data-name="Path 845" d="M375.929,132.794a12.936,12.936,0,0,1-2.607-.686.891.891,0,0,1-.615-.858.98.98,0,0,1,.578-1.013,6.578,6.578,0,0,1,2.507-.688c1.278-.121,2.569-.024,3.846-.246a2.427,2.427,0,0,1,1.67.388.9.9,0,0,1-.065,1.667,48.318,48.318,0,0,1-5.314,1.436" fill="#62cbff"/>
    <path id="Path_846" data-name="Path 846" d="M312.308,91.139a1.169,1.169,0,0,1-1.284-.771.935.935,0,0,1,.358-1.2,8.363,8.363,0,0,1,.837-.536,5.785,5.785,0,0,0,1.889-1.574,12.578,12.578,0,0,1,3.173-2.366,1.139,1.139,0,0,1,1.653.291,1.754,1.754,0,0,1-.485,1.972c-.239.161-.575.265-.706.489-1.081,1.851-3.324,2.091-4.75,3.46-.186.179-.535.189-.685.237" fill="#62cbff"/>
    <path id="Path_847" data-name="Path 847" d="M227.682,222.418c-.494,1.777-.077,3.72-.5,5.6a2,2,0,0,1-1.3,1.526c-1,.406-1.6.044-1.715-1.043a7.4,7.4,0,0,1,.118-2.478c.282-1.213.589-2.42.9-3.624a2.371,2.371,0,0,1,.352-.787,1.159,1.159,0,0,1,1.42-.471c.55.2.721.644.719,1.276" fill="#62cbff"/>
    <path id="Path_848" data-name="Path 848" d="M379.883,240.378a5.336,5.336,0,0,1,1.593.449.863.863,0,0,0,1.2-.243c.416-.56.957-1.036,1.683-.752.842.329,1.71.738,1.78,1.849a1.8,1.8,0,0,0,.9,1.411,4.42,4.42,0,0,1,.5.372c.388.353.709.736.314,1.281a.919.919,0,0,1-1.291.348c-.811-.415-1.655-.773-2.437-1.236a26.756,26.756,0,0,0-4.357-2.1c-.155-.057-.315-.106-.465-.175-.264-.122-.561-.251-.5-.614.056-.337.368-.423.643-.511a2.9,2.9,0,0,1,.444-.078" fill="#62cbff"/>
    <path id="Path_849" data-name="Path 849" d="M419.229,151.4c-1.072.1-2.144.033-3.216.2a3.3,3.3,0,0,1-2.627-1.175c-.51-.434-.135-1.271.66-1.5a6.99,6.99,0,0,1,3.44-.137,15.369,15.369,0,0,0,3.8.44,2.048,2.048,0,0,1,.615.064,1.218,1.218,0,0,1,1.005,1.114c.039.5-.358.912-1.081.97-.862.071-1.734.017-2.6.017" fill="#62cbff"/>
    <path id="Path_850" data-name="Path 850" d="M207.484,238.747a7.169,7.169,0,0,1-.186.733,2.944,2.944,0,0,0-.265,1.208c.141,1.567-.664,2.794-1.441,4.019-.5.786-1.169,1.023-1.775.752a1.522,1.522,0,0,1-.72-1.919,4.2,4.2,0,0,1,.289-.819,11.7,11.7,0,0,0,.9-2.708,5.181,5.181,0,0,1,.973-2.135,1.192,1.192,0,0,1,1.274-.584,1.523,1.523,0,0,1,.948,1.453" fill="#62cbff"/>
    <path id="Path_851" data-name="Path 851" d="M282.545,22.065c-.511,2.059-.491,4.324-1.872,6.189a1.217,1.217,0,0,1-1.607.492.978.978,0,0,1-.648-1.287c.272-1.471.748-2.888,1.162-4.321.253-.876.535-1.745.845-2.6.122-.336.27-.75.751-.707a1.085,1.085,0,0,1,1.118.816c.1.443.16.9.251,1.419" fill="#62cbff"/>
    <path id="Path_852" data-name="Path 852" d="M197.015,261.5c-.986-1.558-.982-1.8.033-3.076a7.431,7.431,0,0,0,1.537-3.874,2.873,2.873,0,0,1,1.6-2.48,1.067,1.067,0,0,1,1.166-.068,1.041,1.041,0,0,1,.409,1.1,8.2,8.2,0,0,1-.352,1.573,18.768,18.768,0,0,1-4.393,6.823" fill="#62cbff"/>
    <path id="Path_853" data-name="Path 853" d="M332.316,258.749c-.017-.707.055-1.161.6-1.307a1.241,1.241,0,0,1,1.456.391c.755,1.077,1.508,2.158,2.2,3.276.388.63.716,1.292,1.149,1.9a1.138,1.138,0,0,1-.06,1.671,1.306,1.306,0,0,1-1.7-.14,2.423,2.423,0,0,1-.58-.637,5.118,5.118,0,0,0-1.843-1.964.991.991,0,0,1-.48-.55c-.278-.947-.535-1.9-.742-2.641" fill="#62cbff"/>
    <path id="Path_854" data-name="Path 854" d="M240.184,105.024v2.358a1.311,1.311,0,0,1-.722,1.333c-.543.25-.949-.1-1.355-.381a2.5,2.5,0,0,1-.962-1.68c-.163-.853-.25-1.72-.421-2.57a1.364,1.364,0,0,1,.464-1.442c.379-.321.747-.654,1.116-.985a.987.987,0,0,1,1.253-.169,1.221,1.221,0,0,1,.736,1.19c-.069.781-.116,1.564-.173,2.345h.064" fill="#62cbff"/>
    <path id="Path_855" data-name="Path 855" d="M353.341,246.646a2.1,2.1,0,0,1,1.6.579,26.324,26.324,0,0,1,2.675,3.25,1.027,1.027,0,0,1,.1,1.368,1.168,1.168,0,0,1-1.463.28,6.235,6.235,0,0,1-2.4-1.492c-.536-.57-1.15-1.068-1.741-1.585a2.182,2.182,0,0,1-.567-.647.851.851,0,0,1,.4-1.325,2.6,2.6,0,0,1,1.388-.428" fill="#62cbff"/>
    <path id="Path_856" data-name="Path 856" d="M267.985,63.433c.036-.156.075-.4.151-.638.532-1.647.854-3.354,1.548-4.958.256-.592.571-.766,1.117-.681a1.226,1.226,0,0,1,1.027,1.21,4.176,4.176,0,0,1-.312.939,2.234,2.234,0,0,0-.116,1.576,2.773,2.773,0,0,1-.3,2.267c-.273.509-.462,1.065-.751,1.564-.5.863-1.087.886-1.715.11-.553-.684-.643-.864-.647-1.389" fill="#62cbff"/>
    <path id="Path_857" data-name="Path 857" d="M365.417,261.822a2.951,2.951,0,0,1-2.013-.9,15.081,15.081,0,0,0-2.448-1.666c-.661-.3-.715-.73-.3-1.4a3.774,3.774,0,0,0,.322-.661c.328-.857.71-1.044,1.493-.638a6.538,6.538,0,0,1,2.209,1.568c.469.575,1.027,1.078,1.54,1.617a1.149,1.149,0,0,1,.374,1.34,1.416,1.416,0,0,1-1.179.743" fill="#62cbff"/>
    <path id="Path_858" data-name="Path 858" d="M276.811,227.132c-.121.518-.211.965-.331,1.4a.607.607,0,0,1-.606.527.64.64,0,0,1-.6-.551c-.143-.574-.516-1.046-.7-1.586-.519-1.486-1-2.987-1.43-4.5-.233-.818.117-1.273,1.014-1.546.84-.255,1.274-.079,1.582.716a6.883,6.883,0,0,1,.4,1.437,16.577,16.577,0,0,0,.671,4.1" fill="#62cbff"/>
    <path id="Path_859" data-name="Path 859" d="M333.751,78.948c-.168-.065-.366-.123-.547-.214a1.5,1.5,0,0,0-1.316-.085c-.691.326-.965-.034-1.251-.561a.923.923,0,0,1,.376-1.365c.646-.442,1.276-.91,1.922-1.354a4.626,4.626,0,0,0,1.393-1.207.906.906,0,0,1,1.36-.376,1.364,1.364,0,0,1,.764,1.641,1.4,1.4,0,0,1-.306.53,5.108,5.108,0,0,0-1.267,2.1,1.279,1.279,0,0,1-1.128.892" fill="#62cbff"/>
    <path id="Path_860" data-name="Path 860" d="M252.955,91.856a17.057,17.057,0,0,1-.789,3.719,1.9,1.9,0,0,1-1.026,1.2,1.412,1.412,0,0,1-1.965-1.457c.13-.944.413-1.872.482-2.817.07-.969.747-1.445,1.352-1.982a.967.967,0,0,1,1.269.02,1.417,1.417,0,0,1,.677,1.315" fill="#62cbff"/>
    <path id="Path_861" data-name="Path 861" d="M411.473,178.78a7.027,7.027,0,0,1-4.257-1.715c-.334-.312-.685-.643-.393-1.174a1.114,1.114,0,0,1,1.255-.548,9.218,9.218,0,0,1,3.6,1.135,4.149,4.149,0,0,0,.921.351c.491.132.858.381.817.928a1.149,1.149,0,0,1-.947,1.019,2.915,2.915,0,0,1-.995,0" fill="#62cbff"/>
    <path id="Path_862" data-name="Path 862" d="M261.085,8.656c.806,0,1.116.254,1.247,1.062a2.754,2.754,0,0,1,.066,1.106c-.312,1.126-.3,2.3-.567,3.427-.194.831-.492,1.08-1.151.976-.908-.142-1.431-.716-1.221-1.522a21.209,21.209,0,0,0,.549-3.425c.02-.206.074-.41.082-.616.036-.928.115-1.013.995-1.008" fill="#62cbff"/>
    <path id="Path_863" data-name="Path 863" d="M415.484,104.4a9.425,9.425,0,0,1-1.082-.22c-.754-.241-.876-.851-.3-1.391a1.912,1.912,0,0,1,1.013-.426,22.9,22.9,0,0,0,3.241-.793,2.4,2.4,0,0,1,1.695,0,1.173,1.173,0,0,1,.836,1.11c.015.5-.405.671-.79.836a1.119,1.119,0,0,1-.233.083c-1.455.268-2.91.532-4.383.8" fill="#62cbff"/>
    <path id="Path_864" data-name="Path 864" d="M324.713,300.741a4.922,4.922,0,0,1,1.931,2.379,7.76,7.76,0,0,0,1.473,1.976,4.076,4.076,0,0,1,1.259,1.953,23.646,23.646,0,0,0,.91,2.307,1.252,1.252,0,0,1,.135.956.445.445,0,0,1-.231.259.35.35,0,0,1-.308-.124c-.2-.36-.379-.733-.546-1.111-.3-.68-.556-1.385-.9-2.044-.169-.326-.488-.662-.843-.128-.37.558-.662.253-.8-.125-.514-1.468-1.581-2.731-1.531-4.417a7.113,7.113,0,0,0-.556-1.881" fill="#62cbff"/>
    <path id="Path_865" data-name="Path 865" d="M358.591,60.1a1.225,1.225,0,0,1-1.338-.621c-.289-.5-.025-.879.3-1.22a14.447,14.447,0,0,1,4.224-3.014.658.658,0,0,1,.961.237c.274.417.118.647-.22.928-.963.8-1.456,1.983-2.3,2.9a2.111,2.111,0,0,1-1.626.792" fill="#62cbff"/>
    <path id="Path_866" data-name="Path 866" d="M421.1,128.979a3.7,3.7,0,0,1-2.18-.512.821.821,0,0,1-.561-.745.868.868,0,0,1,.571-.873,4.763,4.763,0,0,1,1.066-.3c.851-.152,1.707-.285,2.564-.406.754-.106,1.176.132,1.365.73a1.181,1.181,0,0,1-.649,1.546c-.716.271-1.376.826-2.176.563" fill="#62cbff"/>
    <path id="Path_867" data-name="Path 867" d="M353.082,155.621a23.23,23.23,0,0,1,3.865.694,3.609,3.609,0,0,1,.788.354.756.756,0,0,1,.317.975.679.679,0,0,1-.789.46c-1.594-.253-3.224-.174-4.808-.506-.475-.1-1.032-.147-1.024-.849.007-.617.4-1.006,1.113-1.1.164-.022.331-.017.538-.027" fill="#62cbff"/>
    <path id="Path_868" data-name="Path 868" d="M159.292,108.09c-.745-.04-1.279-.435-1.212-.852a1.007,1.007,0,0,1,1.052-.654,1.071,1.071,0,0,1,.914.985c-.057.492-.436.519-.754.521" fill="#62cbff"/>
    <path id="Path_869" data-name="Path 869" d="M171.931,82.534a.6.6,0,0,1-.658.561.509.509,0,0,1-.534-.538c.014-.389.293-.558.657-.553a.5.5,0,0,1,.535.53" fill="#62cbff"/>
  </g>
</svg>
