<?xml version="1.0" encoding="utf-8"?>
<!-- Generator: Adobe Illustrator 25.4.1, SVG Export Plug-In . SVG Version: 6.00 Build 0)  -->
<svg version="1.1" id="Calque_1" xmlns="http://www.w3.org/2000/svg" xmlns:xlink="http://www.w3.org/1999/xlink" x="0px" y="0px"
	 viewBox="0 0 131.8 91.2" style="enable-background:new 0 0 131.8 91.2;" xml:space="preserve">
<style type="text/css">
	.st0{fill:#3B7530;}
	.st1{fill:#167FBC;}
</style>
<g>
	<path id="Path_466" class="st0" d="M0.1,87.2C0,87.2,0,87.1,0.2,87c0.5-0.4,1.8-1.1,2.4-1.4c1-0.6,1.8-1.2,2.8-1.8
		c2-1.3,3.9-2.6,5.8-3.9c4.4-2.9,8.6-6,12.7-9.2c9.6-7.4,18.1-16,25.4-25.7c2.1-2.8,4-5.7,5.8-8.7c0.9-1.5,1.8-3,2.6-4.6
		c0.7-1.6,1.6-3,2.6-4.4c0.3-0.4,1.7,0.8,1.8,4.1c0.1,0.7,0,1.5-0.1,2.2c-0.3,1.4-0.7,2.7-1.3,3.9c-1.6,3.2-3.6,6.1-6,8.8
		c-5.8,7-12.9,13.1-20.2,18.9C27.4,70.9,20,76.2,12.3,81C8.7,83.2,4.5,86,0.1,87.2"/>
	<path id="Path_467" class="st1" d="M83.7,44.7c0.9-1.1,0-4.7-0.3-5.5C82.3,34.9,80,31,76.7,28c-1.9-2-4.2-3.5-6.7-4.4
		c-4-1.2-6.4,0.7-6.6,1.4c-0.2,0.9-0.3,2.4,2.1,4.2c1.5,1.2,5.8,3.1,7.1,4.6c3.1,3.5,3.7,5.6,7,9.6C80.6,44.7,82.2,46.5,83.7,44.7"
		/>
	<path id="Path_468" class="st1" d="M85.2,0.6c1.1,2-1.1,4.6-2.2,5.9c-3.1,3.5-6.6,6.6-10.4,9.4c-1.5,1.3-3.2,2.5-5,3.4
		c-1.1,0.5-2.2,0.8-3.3,1.1c-1.2-0.9,1-3.4,1.8-4.2c1.9-2.1,3.7-4.3,5.2-6.7C75.6,2.7,84-1.6,85.2,0.6"/>
	<path id="Path_469" class="st1" d="M42.8,30.4c6.4,0.6,14.7-0.8,16.5-8c0.8-3.1-7-0.9-8.3-0.7c-4.1,0.7-8.1,1.5-12.2,2.2
		c-2.4,0.4-5.3,0.5-7.8,1.4c-0.4,0.1-0.4,0.3-0.5,0.5C30.4,30,39.4,30.1,42.8,30.4"/>
	<path id="Path_470" class="st1" d="M55.1,2.7c3.4-1.4,5.8-0.1,5.9,3.7c0,1.7-0.2,3.4-0.4,5.1c-0.2,2.4-0.1,4.9,0.1,7.3
		c-1.3-0.2-2.8-2.1-3.6-3c-1.3-1.5-2.5-3.1-3.4-4.8C52.1,7.9,51.5,4.1,55.1,2.7"/>
	<path id="Path_471" class="st0" d="M52.6,73.5c3.3-3.4,6.6-5.1,10.1-5.1c1.1-0.1,2.2,0.3,3.1,0.9c0.8,0.6,1.2,1.6,1.1,2.6
		c0,2.4-1.4,4.4-4.2,6.1c-2.7,1.6-5.7,2.6-8.8,3l-1.4,0.2c-0.2,0.5-0.3,1.1-0.4,1.6c-0.1,0.5-0.1,1-0.1,1.5
		c-0.1,1.3,0.5,2.5,1.4,3.4c0.9,0.8,2.1,1.2,3.4,1.2c1.4,0,2.8-0.5,3.9-1.2c1.2-0.8,2.3-1.6,3.4-2.6l0.6,0.6c-0.9,1.1-2,2.1-3.2,2.9
		c-2.1,1.6-4.7,2.6-7.4,2.6c-1.7,0-3.4-0.7-4.6-1.9c-1.4-1.4-2.1-3.3-2-5.3C47.6,80.4,49.3,76.9,52.6,73.5 M60.5,76.8
		c2-1.8,3-3.5,3-5.2c0-0.5-0.1-1.1-0.4-1.5c-0.3-0.4-0.8-0.6-1.3-0.6c-1.2,0-2.3,0.5-3.1,1.4c-1,0.9-2,2-2.8,3.1
		c-0.8,1.2-1.5,2.5-2.1,3.9c-0.3,0.7-0.6,1.4-0.9,2.2C55.7,79.8,58.4,78.6,60.5,76.8 M69.9,59.8c-0.2,0.2-0.4,0.4-0.6,0.6l-8.6,5.4
		h-1.8l8.2-8.1c0.2-0.2,0.4-0.3,0.6-0.4c0.2-0.1,0.5-0.1,0.7-0.1c0.5,0,0.9,0.2,1.2,0.5c0.4,0.3,0.6,0.8,0.6,1.3
		C70.2,59.3,70.1,59.6,69.9,59.8"/>
	<path id="Path_472" class="st0" d="M78,60.7c0.1-0.2,0.1-0.4,0.1-0.6c0-0.2,0-0.4,0-0.5c0.1-0.5-0.2-0.9-0.7-1
		c-0.9-0.2-1.8-0.2-2.7-0.2v-0.8l2.6-0.3c1-0.1,1.6-0.2,1.9-0.3c0.9-0.2,2.1-0.4,3.4-0.7c0.1,0,0.2,0.1,0.4,0.2l-8.2,29.7
		c-0.2,0.7-0.3,1.1-0.3,1.3c0,0.1,0,0.3,0,0.4c0,0.3,0.1,0.6,0.2,0.8c0.1,0.2,0.4,0.4,0.6,0.3c0.6,0,1.4-0.5,2.3-1.6
		c0.9-1,1.7-2,2.4-3.1l0.7,0.5c-1,1.5-2.1,3-3.3,4.3c-1,1.2-2.5,2-4.1,2.1c-0.6,0-1.1-0.1-1.6-0.4c-0.7-0.5-1.1-1.4-1.1-2.3
		c0-0.6,0.1-1.1,0.2-1.7c0.1-0.4,0.2-0.9,0.4-1.4L78,60.7z"/>
	<path id="Path_473" class="st0" d="M101,69.3c0.4,0.4,0.7,0.9,0.9,1.4L102,71l0.6-1.9c0-0.1,0.1-0.3,0.2-0.4s0.2-0.1,0.4-0.1
		l2.9-0.3c0.2,0,0.2,0,0.3,0.1c0,0.1,0,0.2,0,0.3c-0.1,0.2-0.1,0.4-0.2,0.5s-0.1,0.3-0.2,0.5l-2.4,8.8c-0.5,1.9-1,3.6-1.4,5
		s-0.7,2.9-0.9,4.3c0,0.2,0.1,0.4,0.2,0.5s0.3,0.2,0.5,0.2s0.3-0.1,0.5-0.1c0.2-0.1,0.5-0.3,0.7-0.4l0.4-0.3
		c0.1-0.1,0.3-0.2,0.5-0.4s0.4-0.4,0.6-0.6l1.6-1.6l0.6,0.5c-1.2,1.6-2.6,3.1-4.2,4.4c-0.9,0.7-1.9,1.1-3,1.2
		c-0.6,0-1.1-0.2-1.4-0.6c-0.3-0.5-0.5-1-0.5-1.6c0-0.9,0.1-1.7,0.3-2.5c0.2-1.1,0.4-2,0.7-2.8c-0.3,0.5-0.8,1.2-1.5,2.2
		c-0.8,1-1.6,1.9-2.6,2.8s-2.2,1.7-3.5,2.3c-0.8,0.3-1.6,0.4-2.5,0.4c-1.4,0-2.7-0.6-3.6-1.6c-1.2-1.3-1.7-2.9-1.6-4.7
		c0-3.5,1.6-7.1,4.7-10.8c3.2-3.9,6.6-5.9,10-5.9C99.1,68.2,100.2,68.5,101,69.3 M100.2,70.2c-0.5-0.5-1.2-0.9-2-0.8
		c-2.7,0-5.2,2.1-7.5,6.2c-2,3.6-3.1,6.8-3.1,9.4c-0.1,1,0.2,2.1,0.9,2.9c0.5,0.6,1.3,0.9,2.1,0.9c2.5,0,4.9-2,7.2-6
		c2.2-3.6,3.3-6.9,3.3-9.9C101.1,71.9,100.9,70.9,100.2,70.2"/>
	<path id="Path_474" class="st0" d="M108.7,90.6l4.2-15.3c0.4-1.3,0.6-2.1,0.6-2.4c0.1-0.3,0.1-0.6,0.1-0.9c0-0.4-0.1-0.8-0.4-1.1
		c-0.5-0.3-1-0.5-1.6-0.4c-0.2,0-0.4,0-0.6,0s-0.4,0.1-0.6,0.1v-0.8c1.1-0.2,1.8-0.3,2.3-0.4s0.9-0.2,1.5-0.3l4.4-1
		c0.1,0.1,0.2,0.1,0.2,0.2l-3.2,10.6c1.5-2.4,3.2-4.7,5.1-6.9c2.4-2.6,4.5-4,6.4-4c0.7,0,1.3,0.1,1.9,0.4c1,0.6,1.6,1.7,1.5,2.9
		c0,0.4,0,0.8-0.1,1.2c-0.1,0.4-0.2,0.9-0.3,1.4l-3.3,11.8c-0.1,0.2-0.1,0.5-0.2,0.9c-0.1,0.2-0.1,0.5-0.1,0.8
		c0,0.2,0.1,0.5,0.2,0.7s0.3,0.3,0.5,0.3c0.6-0.1,1.1-0.3,1.4-0.8c1-1,1.8-2.1,2.6-3.2l0.7,0.6c-0.9,1.4-2,2.7-3.1,3.8
		c-1,1.1-2.3,1.8-3.8,1.9c-0.6,0-1.1-0.2-1.6-0.6c-0.6-0.5-0.9-1.3-0.8-2c0-0.3,0-0.6,0.1-0.9c0-0.3,0.1-0.5,0.2-0.8l3.2-12
		c0.1-0.5,0.2-1.1,0.3-1.6c0-0.3,0.1-0.6,0.1-0.9c0-0.4-0.1-0.7-0.3-1c-0.2-0.3-0.6-0.5-1-0.4c-1.2,0-2.8,1.1-4.7,3.4
		c-1.2,1.5-2.4,3.1-3.4,4.8c-0.8,1.3-1.5,2.7-2.1,4.2c-0.5,1.4-1.3,3.8-2.3,7.4L108.7,90.6z"/>
</g>
</svg>
