<?xml version="1.0" encoding="utf-8"?>
<!-- Generator: Adobe Illustrator 26.0.3, SVG Export Plug-In . SVG Version: 6.00 Build 0)  -->
<svg version="1.1" id="Calque_1" xmlns="http://www.w3.org/2000/svg" xmlns:xlink="http://www.w3.org/1999/xlink" x="0px" y="0px"
	 viewBox="0 0 30.3 30.3" style="enable-background:new 0 0 30.3 30.3;" xml:space="preserve">
<style type="text/css">
	.st0{clip-path:url(#SVGID_00000176727319121937432570000014548396302207373961_);}
	.st1{fill:#6EC1B5;}
	.st2{fill:#FFFFFF;}
</style>
<g>
	<defs>
		<rect id="SVGID_1_" width="30.3" height="30.3"/>
	</defs>
	<clipPath id="SVGID_00000085955116981726812880000000783966004063555474_">
		<use xlink:href="#SVGID_1_"  style="overflow:visible;"/>
	</clipPath>
	<g id="Groupe_214" style="clip-path:url(#SVGID_00000085955116981726812880000000783966004063555474_);">
		<path id="Tracé_988" class="st1" d="M0,15.2C0,6.8,6.8,0,15.2,0s15.2,6.8,15.2,15.2c0,8.4-6.8,15.2-15.2,15.2
			C6.8,30.3,0,23.6,0,15.2C0,15.2,0,15.2,0,15.2"/>
		<path id="Tracé_989" class="st2" d="M13.7,21.8L13.7,21.8c-0.3,0-0.5-0.1-0.6-0.3L8.7,16c-0.3-0.3-0.2-0.9,0.1-1.1
			c0.3-0.3,0.9-0.2,1.1,0.1l3.8,4.7l9.1-10.8c0.3-0.3,0.8-0.4,1.1-0.1s0.4,0.8,0.1,1.1l-9.8,11.6C14.2,21.6,13.9,21.8,13.7,21.8"/>
	</g>
</g>
</svg>
