<svg xmlns="http://www.w3.org/2000/svg" xmlns:xlink="http://www.w3.org/1999/xlink" width="208.455" height="82.417" viewBox="0 0 208.455 82.417">
  <defs>
    <clipPath id="clip-path">
      <rect id="Rectangle_98" data-name="Rectangle 98" width="208.455" height="82.417" transform="translate(0 0)" fill="none"/>
    </clipPath>
  </defs>
  <g id="Group_149" data-name="Group 149" transform="translate(0 0.001)">
    <g id="Group_148" data-name="Group 148" clip-path="url(#clip-path)">
      <path id="Path_871" data-name="Path 871" d="M83.125,72.918V59.805h-.1c-.464.429-2.187.464-2.919.464H78.838v.106c1.464.9,1.266,2.227,1.266,3.879V69.8c0,2.775-2.725,4.72-4.922,4.72-2.894,0-4.1-2.054-4.1-5.369V59.805h-.1c-.466.429-2.2.464-2.93.464H66.8v.108c1.465.9,1.263,2.225,1.263,3.877v5.531c0,5.063,2.2,7.467,6.12,7.467,2.33,0,4.721-.828,5.92-2.8v2.391H84.39v-.108c-1.463-.83-1.265-2.162-1.265-3.818" fill="#fff"/>
      <path id="Path_872" data-name="Path 872" d="M89.77,65.906a4.219,4.219,0,0,1,4.294-3.681,3.912,3.912,0,0,1,4.292,3.681ZM101.851,68c.133-4.627-2.963-8.119-7.488-8.119-4.959,0-8.317,3.6-8.317,8.588,0,5.029,3.891,8.857,9.547,8.857a11.288,11.288,0,0,0,4.594-.888l1.664-3.376h-.1a8.324,8.324,0,0,1-5.456,1.917c-3.76,0-6.588-2.567-6.656-6.979Z" fill="#fff"/>
      <path id="Path_873" data-name="Path 873" d="M104.49,52.189c.8,0,2.423-.049,2.915-.535h.1V74.361a10.163,10.163,0,0,0,2.744.43c3.637,0,5.72-2.543,5.72-6.088,0-3.475-1.621-6.16-4.958-6.16a5.359,5.359,0,0,0-2.778.787l1.783-3.057a6.605,6.605,0,0,1,2.348-.4c3.772,0,6.977,3.273,6.977,8.181,0,5.623-3.805,9.258-9.82,9.258a38.718,38.718,0,0,1-6.036-.648v-.11c1.1-.5,1-1.693,1-2.877V57.175c0-1.658.2-3.978-1.227-4.879v-.107Z" fill="#fff"/>
      <path id="Path_874" data-name="Path 874" d="M125.249,65.906a4.219,4.219,0,0,1,4.294-3.681,3.915,3.915,0,0,1,4.294,3.681ZM137.33,68c.136-4.627-2.962-8.119-7.49-8.119-4.959,0-8.318,3.6-8.318,8.588,0,5.029,3.893,8.857,9.55,8.857a11.28,11.28,0,0,0,4.593-.888l1.665-3.376h-.1a8.322,8.322,0,0,1-5.456,1.917c-3.761,0-6.587-2.567-6.657-6.979Z" fill="#fff"/>
      <path id="Path_875" data-name="Path 875" d="M152.212,63.99h-.1a5.27,5.27,0,0,0-4.063-1.766A5.514,5.514,0,0,0,142.5,68.1a6.763,6.763,0,0,0,6.919,6.879,8.165,8.165,0,0,0,4.858-1.763h.1l-1.731,3.4a11.679,11.679,0,0,1-4.395.711c-5.122,0-9.128-3.607-9.128-8.289,0-6.195,4.472-9.156,9.495-9.156a15.26,15.26,0,0,1,3.594.427Z" fill="#fff"/>
      <path id="Path_876" data-name="Path 876" d="M97.7,56.9V53.3a15.329,15.329,0,0,0-5.557,4.586v1.4A15.116,15.116,0,0,1,97.7,56.9" fill="#fff"/>
      <path id="Path_877" data-name="Path 877" d="M53.106,74.845c-5.024,0-8.519-5.67-8.519-10.486,0-.049,0-.494,0-.541.06-4.664,3.082-9.041,8.353-9.041,5.545,0,8.406,5.246,8.451,10.217v.517c0,5.3-3.294,9.334-8.287,9.334m17.225,5.51c-3.71.607-7.277-.562-11.066-4.9,3.662-1.838,5.925-6.415,5.925-10.666,0-.045,0-.487,0-.53A11.812,11.812,0,0,0,53.142,52.181,12.222,12.222,0,0,0,40.794,64.515v.492c0,7.135,5.291,12.432,11.781,12.432A11.7,11.7,0,0,0,55.3,77.08c4.251,3.98,8.04,5.675,11.312,5.281a6.129,6.129,0,0,0,4.18-2.084Z" fill="#fff"/>
      <path id="Path_878" data-name="Path 878" d="M7.915,2.494a3.756,3.756,0,0,0-2.047-.559,3.041,3.041,0,0,0-3.3,3.325A2.178,2.178,0,0,0,5.024,7.468a4.583,4.583,0,0,0,2.059-.533L6.86,8.92A9.425,9.425,0,0,1,4.5,9.242C1.762,9.242.2,7.7.2,5.2a5.028,5.028,0,0,1,1.34-3.461A5.177,5.177,0,0,1,5.557.236,9.438,9.438,0,0,1,8.485.745Z" fill="#fff"/>
      <path id="Path_879" data-name="Path 879" d="M10.206,6.426c.087.943.608,1.377,1.637,1.377a5.467,5.467,0,0,0,2.172-.484L13.766,8.9a7.941,7.941,0,0,1-2.357.36,2.875,2.875,0,0,1-3.2-2.99,4.066,4.066,0,0,1,1.141-2.8,3.928,3.928,0,0,1,2.841-1A2.488,2.488,0,0,1,14.933,5.21a5.694,5.694,0,0,1-.149,1.216Zm2.9-1.526a1.058,1.058,0,0,0-1.117-1.153c-.682,0-1.253.533-1.5,1.451h2.593a2.478,2.478,0,0,0,.025-.3" fill="#fff"/>
      <path id="Path_880" data-name="Path 880" d="M22.286,9.043H20.065l.67-3.2a3.075,3.075,0,0,0,.074-.633c0-.607-.31-.942-.806-.942-.881,0-1.464.694-1.761,2.084l-.571,2.692H15.438L16.8,2.605h2l-.248,1.141a3.213,3.213,0,0,1,2.431-1.241,1.969,1.969,0,0,1,2.084,2.233A9.125,9.125,0,0,1,22.831,6.5Z" fill="#fff"/>
      <path id="Path_881" data-name="Path 881" d="M27.864,2.667h1.575l-.322,1.526H27.541L27.07,6.414a2.914,2.914,0,0,0-.087.558c0,.459.2.657.695.657a2.874,2.874,0,0,0,.732-.124l-.323,1.526a7.79,7.79,0,0,1-1.228.137,1.833,1.833,0,0,1-2.084-1.936,3.429,3.429,0,0,1,.062-.632l.509-2.407h-1.3l.323-1.526h1.3l.323-1.513L28.323.533Z" fill="#fff"/>
      <path id="Path_882" data-name="Path 882" d="M34.858,4.491a3.8,3.8,0,0,0-.968-.174c-1.017,0-1.464.633-1.749,1.973l-.6,2.754H29.313l1.3-6.4h2.022L32.4,3.809A2.468,2.468,0,0,1,34.51,2.494a2.986,2.986,0,0,1,.844.136Z" fill="#fff"/>
      <path id="Path_883" data-name="Path 883" d="M37.213,6.426c.087.943.608,1.377,1.637,1.377a5.463,5.463,0,0,0,2.171-.484L40.773,8.9a7.95,7.95,0,0,1-2.357.36,2.875,2.875,0,0,1-3.2-2.99,4.066,4.066,0,0,1,1.141-2.8,3.928,3.928,0,0,1,2.841-1A2.487,2.487,0,0,1,41.939,5.21a5.631,5.631,0,0,1-.149,1.216Zm2.9-1.526A1.059,1.059,0,0,0,39,3.747c-.682,0-1.253.533-1.5,1.451h2.593a2.478,2.478,0,0,0,.025-.3" fill="#fff"/>
      <path id="Path_884" data-name="Path 884" d="M50.059,2.655l-1.39,6.388H46.5l1.389-6.388Zm.46-2.221-.224,1.141h-2.17l.21-1.141Z" fill="#fff"/>
      <path id="Path_885" data-name="Path 885" d="M57.216,9.043H54.995l.67-3.2a3.145,3.145,0,0,0,.074-.633c0-.607-.31-.942-.806-.942-.881,0-1.464.694-1.761,2.084L52.6,9.043H50.368l1.365-6.438h2l-.248,1.141a3.213,3.213,0,0,1,2.431-1.241A1.969,1.969,0,0,1,58,4.738,9.126,9.126,0,0,1,57.761,6.5Z" fill="#fff"/>
      <path id="Path_886" data-name="Path 886" d="M62.794,2.667h1.575l-.322,1.526H62.471L62,6.414a2.914,2.914,0,0,0-.087.558c0,.459.2.657.7.657a2.874,2.874,0,0,0,.732-.124l-.323,1.526a7.79,7.79,0,0,1-1.228.137,1.832,1.832,0,0,1-2.084-1.936,3.429,3.429,0,0,1,.062-.632l.508-2.407h-1.3l.322-1.526h1.3l.322-1.513L63.253.533Z" fill="#fff"/>
      <path id="Path_887" data-name="Path 887" d="M66.513,6.426c.087.943.608,1.377,1.638,1.377a5.467,5.467,0,0,0,2.171-.484L70.074,8.9a7.95,7.95,0,0,1-2.357.359,2.875,2.875,0,0,1-3.2-2.989,4.071,4.071,0,0,1,1.141-2.8,3.929,3.929,0,0,1,2.841-1A2.488,2.488,0,0,1,71.24,5.21a5.694,5.694,0,0,1-.149,1.216Zm2.9-1.526A1.058,1.058,0,0,0,68.3,3.747c-.683,0-1.253.533-1.5,1.451h2.593a2.493,2.493,0,0,0,.024-.3M68.461,0h2.32V.273L68.734,1.786H67.27V1.637Z" fill="#fff"/>
      <path id="Path_888" data-name="Path 888" d="M80.032,2.667,78.68,9.044c-.4,1.849-1.9,2.531-3.908,2.531a7.578,7.578,0,0,1-2.506-.447l.409-1.65a3.62,3.62,0,0,0,2,.546c1.166,0,2.084-.546,2.32-2.27a2.885,2.885,0,0,1-2.382,1.29A2.476,2.476,0,0,1,72.13,6.253a4.14,4.14,0,0,1,.731-2.42,3.094,3.094,0,0,1,2.63-1.339,2.256,2.256,0,0,1,2.1,1.253l.236-1.08ZM75.988,4.144c-.856,0-1.6.918-1.6,2.2a1.116,1.116,0,0,0,1.1,1.241,1.954,1.954,0,0,0,1.688-2.134,1.192,1.192,0,0,0-1.191-1.3" fill="#fff"/>
      <path id="Path_889" data-name="Path 889" d="M85.858,4.491a3.792,3.792,0,0,0-.967-.174c-1.018,0-1.464.633-1.75,1.973l-.6,2.754H80.313l1.3-6.4h2.022L83.4,3.809a2.468,2.468,0,0,1,2.109-1.315,2.986,2.986,0,0,1,.844.136Z" fill="#fff"/>
      <path id="Path_890" data-name="Path 890" d="M88.213,6.426c.087.943.608,1.377,1.638,1.377a5.467,5.467,0,0,0,2.171-.484L91.774,8.9a7.95,7.95,0,0,1-2.357.359,2.875,2.875,0,0,1-3.2-2.989,4.071,4.071,0,0,1,1.141-2.8,3.929,3.929,0,0,1,2.841-1A2.488,2.488,0,0,1,92.94,5.21a5.631,5.631,0,0,1-.149,1.216Zm2.9-1.526A1.059,1.059,0,0,0,90,3.747c-.682,0-1.253.533-1.5,1.451h2.593a2.5,2.5,0,0,0,.025-.3M90.161,0h2.32V.273L90.434,1.786H88.97V1.637Z" fill="#fff"/>
      <path id="Path_891" data-name="Path 891" d="M3.126,15.067l-.67,3.2a2.954,2.954,0,0,0-.074.632c0,.621.3.956.844.956.806,0,1.426-.708,1.724-2.1l.57-2.692H7.753L6.389,21.443h-2l.248-1.079A3.216,3.216,0,0,1,2.208,21.6,1.959,1.959,0,0,1,.124,19.384,9.07,9.07,0,0,1,.36,17.61l.533-2.543Z" fill="#fff"/>
      <path id="Path_892" data-name="Path 892" d="M14.821,21.443H12.6l.67-3.2a3.073,3.073,0,0,0,.075-.632c0-.608-.311-.943-.807-.943-.881,0-1.464.695-1.761,2.084l-.571,2.692H7.973l1.365-6.438h2l-.248,1.141A3.213,3.213,0,0,1,13.518,14.9,1.97,1.97,0,0,1,15.6,17.138a9.2,9.2,0,0,1-.236,1.762Z" fill="#fff"/>
      <path id="Path_893" data-name="Path 893" d="M20.089,15.055,18.7,21.443H16.528l1.39-6.388Zm.459-2.221-.223,1.142H18.154l.21-1.142Z" fill="#fff"/>
      <path id="Path_894" data-name="Path 894" d="M23.164,15.067l.5,4.59,2.27-4.59h2.333l-3.747,6.376H22.022l-1.066-6.376Z" fill="#fff"/>
      <path id="Path_895" data-name="Path 895" d="M30.256,18.825c.087.943.608,1.378,1.638,1.378a5.484,5.484,0,0,0,2.171-.484l-.248,1.575a7.918,7.918,0,0,1-2.357.36,2.875,2.875,0,0,1-3.2-2.99,4.062,4.062,0,0,1,1.141-2.8,3.925,3.925,0,0,1,2.841-1.005,2.488,2.488,0,0,1,2.742,2.754,5.693,5.693,0,0,1-.149,1.215Zm2.9-1.525a1.058,1.058,0,0,0-1.116-1.154c-.683,0-1.253.533-1.5,1.451h2.593a2.288,2.288,0,0,0,.025-.3" fill="#fff"/>
      <path id="Path_896" data-name="Path 896" d="M41.108,16.891a3.8,3.8,0,0,0-.968-.174c-1.017,0-1.464.633-1.749,1.973l-.6,2.754H35.563l1.3-6.4h2.022l-.236,1.166a2.472,2.472,0,0,1,2.109-1.315,2.986,2.986,0,0,1,.844.136Z" fill="#fff"/>
      <path id="Path_897" data-name="Path 897" d="M46.663,16.668a5.425,5.425,0,0,0-1.687-.36c-.645,0-.992.236-.992.583,0,.447.508.5,1.315.831.893.373,1.3.844,1.3,1.576,0,1.352-1.116,2.32-3.014,2.32a7.733,7.733,0,0,1-2.544-.41L41.5,19.67a3.981,3.981,0,0,0,1.787.434c.732,0,1.117-.211,1.117-.57,0-.447-.373-.534-.931-.757-1.042-.422-1.6-.819-1.6-1.8,0-1.154,1.1-2.1,3.027-2.1a7.558,7.558,0,0,1,2.245.385Z" fill="#fff"/>
      <path id="Path_898" data-name="Path 898" d="M51.114,15.055l-1.39,6.388H47.553l1.39-6.388Zm.459-2.221-.223,1.142H49.178l.211-1.142Z" fill="#fff"/>
      <path id="Path_899" data-name="Path 899" d="M55.528,15.067H57.1l-.322,1.526H55.205l-.471,2.221a2.9,2.9,0,0,0-.087.558c0,.459.2.657.694.657a2.86,2.86,0,0,0,.732-.124l-.322,1.526a7.768,7.768,0,0,1-1.228.136,1.832,1.832,0,0,1-2.084-1.935A3.429,3.429,0,0,1,52.5,19l.508-2.407h-1.3l.322-1.526h1.3l.322-1.513,2.333-.62Z" fill="#fff"/>
      <path id="Path_900" data-name="Path 900" d="M63.391,19.83a11.969,11.969,0,0,0-.261,1.613H61.282l.124-.967a2.524,2.524,0,0,1-2.208,1.1,1.9,1.9,0,0,1-2.134-1.9c0-1.427,1.315-2.32,3.759-2.32a9.919,9.919,0,0,1,1.029.062,1.223,1.223,0,0,0,.013-.211c0-.645-.422-.993-1.228-.993a4.594,4.594,0,0,0-2.085.484l.261-1.489a6.213,6.213,0,0,1,2.121-.372c1.923,0,2.965.806,2.965,2.035a6.357,6.357,0,0,1-.136,1.141ZM60.959,18.5c-1.191,0-1.811.347-1.811.992a.734.734,0,0,0,.819.72,1.759,1.759,0,0,0,1.625-1.687,5.566,5.566,0,0,0-.633-.025" fill="#fff"/>
      <path id="Path_901" data-name="Path 901" d="M68.275,15.055l-1.39,6.388H64.714l1.39-6.388Zm.459-2.221-.223,1.142H66.34l.211-1.142Z" fill="#fff"/>
      <path id="Path_902" data-name="Path 902" d="M74.2,16.891a3.792,3.792,0,0,0-.967-.174c-1.018,0-1.464.633-1.75,1.973l-.6,2.754H68.658l1.3-6.4h2.023l-.236,1.166a2.47,2.47,0,0,1,2.109-1.315,2.986,2.986,0,0,1,.844.136Z" fill="#fff"/>
      <path id="Path_903" data-name="Path 903" d="M76.557,18.825c.087.943.608,1.378,1.638,1.378a5.484,5.484,0,0,0,2.171-.484l-.248,1.575a7.918,7.918,0,0,1-2.357.36,2.875,2.875,0,0,1-3.2-2.99,4.066,4.066,0,0,1,1.141-2.8,3.925,3.925,0,0,1,2.841-1.005,2.488,2.488,0,0,1,2.742,2.754,5.693,5.693,0,0,1-.149,1.215Zm2.9-1.525a1.058,1.058,0,0,0-1.116-1.154c-.683,0-1.253.533-1.5,1.451h2.593a2.476,2.476,0,0,0,.024-.3" fill="#fff"/>
      <path id="Path_904" data-name="Path 904" d="M94.354,12.834l-1.811,8.609H90.559l.235-1.067a2.836,2.836,0,0,1-2.332,1.253c-1.514,0-2.494-1.079-2.494-2.841,0-2.32,1.4-3.9,3.387-3.9a2.255,2.255,0,0,1,2.1,1.253l.708-3.312Zm-4.5,3.709c-.856,0-1.6.918-1.6,2.2a1.115,1.115,0,0,0,1.1,1.24,1.954,1.954,0,0,0,1.687-2.134,1.192,1.192,0,0,0-1.191-1.3" fill="#fff"/>
      <path id="Path_905" data-name="Path 905" d="M96.447,18.825c.087.943.608,1.378,1.637,1.378a5.485,5.485,0,0,0,2.172-.484l-.249,1.575a7.908,7.908,0,0,1-2.357.36,2.875,2.875,0,0,1-3.2-2.99,4.062,4.062,0,0,1,1.141-2.8,3.924,3.924,0,0,1,2.841-1.005,2.488,2.488,0,0,1,2.742,2.754,5.693,5.693,0,0,1-.149,1.215Zm2.9-1.525a1.059,1.059,0,0,0-1.117-1.154c-.682,0-1.253.533-1.5,1.451h2.593a2.288,2.288,0,0,0,.025-.3" fill="#fff"/>
      <path id="Path_906" data-name="Path 906" d="M111.043,16.668a5.431,5.431,0,0,0-1.687-.36c-.645,0-.993.236-.993.583,0,.447.509.5,1.315.831.893.373,1.3.844,1.3,1.576,0,1.352-1.117,2.32-3.015,2.32a7.727,7.727,0,0,1-2.543-.41l.459-1.538a3.981,3.981,0,0,0,1.787.434c.731,0,1.116-.211,1.116-.57,0-.447-.372-.534-.93-.757-1.042-.422-1.6-.819-1.6-1.8,0-1.154,1.1-2.1,3.027-2.1a7.558,7.558,0,0,1,2.245.385Z" fill="#fff"/>
      <path id="Path_907" data-name="Path 907" d="M118.186,19.83a11.811,11.811,0,0,0-.261,1.613h-1.848l.124-.967a2.526,2.526,0,0,1-2.209,1.1,1.9,1.9,0,0,1-2.134-1.9c0-1.427,1.316-2.32,3.759-2.32a9.938,9.938,0,0,1,1.03.062,1.223,1.223,0,0,0,.013-.211c0-.645-.422-.993-1.228-.993a4.587,4.587,0,0,0-2.084.484l.26-1.489a6.215,6.215,0,0,1,2.122-.372c1.922,0,2.964.806,2.964,2.035a6.357,6.357,0,0,1-.136,1.141ZM115.754,18.5c-1.19,0-1.811.347-1.811.992a.734.734,0,0,0,.819.72,1.759,1.759,0,0,0,1.625-1.687,5.583,5.583,0,0,0-.633-.025" fill="#fff"/>
      <path id="Path_908" data-name="Path 908" d="M126.122,21.443H123.9l.67-3.2a3.143,3.143,0,0,0,.075-.632c0-.608-.311-.943-.807-.943-.881,0-1.464.695-1.762,2.084l-.57,2.692h-2.234l1.366-6.438h2l-.248,1.141a3.213,3.213,0,0,1,2.431-1.241,1.969,1.969,0,0,1,2.084,2.233,9.116,9.116,0,0,1-.236,1.762Z" fill="#fff"/>
      <path id="Path_909" data-name="Path 909" d="M131.7,15.067h1.575l-.322,1.526h-1.575l-.472,2.221a2.988,2.988,0,0,0-.087.558c0,.459.2.657.7.657a2.874,2.874,0,0,0,.732-.124l-.322,1.526a7.767,7.767,0,0,1-1.229.136,1.832,1.832,0,0,1-2.084-1.935,3.343,3.343,0,0,1,.063-.632l.507-2.407h-1.3l.322-1.526h1.3l.322-1.513,2.332-.62Z" fill="#fff"/>
      <path id="Path_910" data-name="Path 910" d="M135.419,18.826c.087.943.608,1.377,1.637,1.377a5.459,5.459,0,0,0,2.171-.484l-.248,1.576a7.943,7.943,0,0,1-2.356.359,2.875,2.875,0,0,1-3.2-2.989,4.071,4.071,0,0,1,1.141-2.8,3.929,3.929,0,0,1,2.841-1.005,2.487,2.487,0,0,1,2.741,2.754A5.624,5.624,0,0,1,140,18.826Zm2.9-1.526a1.058,1.058,0,0,0-1.116-1.153c-.683,0-1.253.533-1.5,1.451H138.3a2.719,2.719,0,0,0,.024-.3m-.955-4.9h2.319v.273l-2.047,1.514h-1.463v-.149Z" fill="#fff"/>
      <path id="Path_911" data-name="Path 911" d="M2,31.226c.087.943.608,1.377,1.637,1.377A5.48,5.48,0,0,0,5.8,32.119l-.248,1.576a7.95,7.95,0,0,1-2.357.359A2.874,2.874,0,0,1,0,31.064a4.062,4.062,0,0,1,1.141-2.8,3.924,3.924,0,0,1,2.841-1A2.487,2.487,0,0,1,6.723,30.01a5.638,5.638,0,0,1-.149,1.216ZM4.9,29.7a1.06,1.06,0,0,0-1.117-1.154c-.682,0-1.253.533-1.5,1.451H4.875a2.479,2.479,0,0,0,.025-.3" fill="#fff"/>
      <path id="Path_912" data-name="Path 912" d="M11.335,27.467h1.576l-.323,1.526H11.013l-.472,2.22a2.882,2.882,0,0,0-.086.559c0,.459.2.657.694.657a2.86,2.86,0,0,0,.732-.124l-.322,1.526a7.769,7.769,0,0,1-1.228.136,1.832,1.832,0,0,1-2.085-1.935,3.449,3.449,0,0,1,.062-.633l.509-2.406h-1.3l.323-1.526h1.3l.322-1.514,2.332-.62Z" fill="#fff"/>
      <path id="Path_913" data-name="Path 913" d="M25.274,25.234l-1.811,8.609H21.478l.236-1.067a2.837,2.837,0,0,1-2.333,1.253c-1.513,0-2.493-1.079-2.493-2.841,0-2.32,1.4-3.9,3.387-3.9a2.256,2.256,0,0,1,2.1,1.253l.707-3.312Zm-4.5,3.709c-.856,0-1.6.918-1.6,2.2a1.116,1.116,0,0,0,1.1,1.24,1.953,1.953,0,0,0,1.687-2.133,1.192,1.192,0,0,0-1.191-1.3" fill="#fff"/>
      <path id="Path_914" data-name="Path 914" d="M27.367,31.226c.087.943.608,1.377,1.638,1.377a5.484,5.484,0,0,0,2.171-.484l-.248,1.576a7.95,7.95,0,0,1-2.357.359,2.875,2.875,0,0,1-3.2-2.99,4.066,4.066,0,0,1,1.141-2.8,3.925,3.925,0,0,1,2.841-1,2.488,2.488,0,0,1,2.742,2.754,5.7,5.7,0,0,1-.149,1.216Zm2.9-1.526a1.059,1.059,0,0,0-1.116-1.154c-.682,0-1.253.533-1.5,1.451h2.593a2.477,2.477,0,0,0,.024-.3" fill="#fff"/>
      <path id="Path_915" data-name="Path 915" d="M41.963,29.067a5.431,5.431,0,0,0-1.687-.36c-.645,0-.993.236-.993.583,0,.447.509.5,1.315.832.894.372,1.3.843,1.3,1.575,0,1.352-1.116,2.32-3.015,2.32a7.752,7.752,0,0,1-2.543-.409l.459-1.539a3.982,3.982,0,0,0,1.787.435c.732,0,1.116-.211,1.116-.571,0-.447-.372-.534-.93-.757-1.042-.422-1.6-.819-1.6-1.8,0-1.154,1.1-2.1,3.027-2.1a7.559,7.559,0,0,1,2.246.385Z" fill="#fff"/>
      <path id="Path_916" data-name="Path 916" d="M44.963,31.226c.087.943.608,1.377,1.638,1.377a5.484,5.484,0,0,0,2.171-.484l-.249,1.576a7.94,7.94,0,0,1-2.357.359,2.874,2.874,0,0,1-3.2-2.99,4.062,4.062,0,0,1,1.141-2.8,3.924,3.924,0,0,1,2.841-1A2.488,2.488,0,0,1,49.69,30.01a5.7,5.7,0,0,1-.149,1.216Zm2.9-1.526a1.059,1.059,0,0,0-1.117-1.154c-.682,0-1.253.533-1.5,1.451h2.593a2.288,2.288,0,0,0,.025-.3" fill="#fff"/>
      <path id="Path_917" data-name="Path 917" d="M55.814,29.291a3.828,3.828,0,0,0-.967-.173c-1.018,0-1.464.632-1.75,1.972l-.6,2.754H50.269l1.3-6.4h2.023l-.236,1.166a2.47,2.47,0,0,1,2.109-1.315,3.022,3.022,0,0,1,.844.136Z" fill="#fff"/>
      <path id="Path_918" data-name="Path 918" d="M58.59,27.467l.5,4.59,2.271-4.59h2.332l-3.747,6.376H57.449l-1.067-6.376Z" fill="#fff"/>
      <path id="Path_919" data-name="Path 919" d="M67.134,27.455l-1.389,6.388H63.574l1.389-6.388Zm.459-2.221-.223,1.142H65.2l.211-1.142Z" fill="#fff"/>
      <path id="Path_920" data-name="Path 920" d="M73.372,29.241a3.19,3.19,0,0,0-1.365-.335,1.8,1.8,0,0,0-1.972,1.836,1.5,1.5,0,0,0,1.65,1.563,3.071,3.071,0,0,0,1.265-.3l-.261,1.688a7.272,7.272,0,0,1-1.823.26A2.876,2.876,0,0,1,67.7,30.99c0-2.159,1.55-3.71,4.044-3.71a5.642,5.642,0,0,1,2.133.422Z" fill="#fff"/>
      <path id="Path_921" data-name="Path 921" d="M75.962,31.226c.087.943.608,1.377,1.637,1.377a5.48,5.48,0,0,0,2.171-.484l-.248,1.576a7.945,7.945,0,0,1-2.357.359,2.875,2.875,0,0,1-3.2-2.99,4.062,4.062,0,0,1,1.141-2.8,3.924,3.924,0,0,1,2.841-1,2.487,2.487,0,0,1,2.741,2.754,5.7,5.7,0,0,1-.148,1.216Zm2.9-1.526a1.06,1.06,0,0,0-1.117-1.154c-.682,0-1.253.533-1.5,1.451H78.84a2.478,2.478,0,0,0,.025-.3" fill="#fff"/>
      <path id="Path_922" data-name="Path 922" d="M86.739,29.067a5.431,5.431,0,0,0-1.687-.36c-.645,0-.993.236-.993.583,0,.447.509.5,1.315.832.893.372,1.3.843,1.3,1.575,0,1.352-1.117,2.32-3.015,2.32a7.756,7.756,0,0,1-2.543-.409l.459-1.539a3.982,3.982,0,0,0,1.787.435c.732,0,1.116-.211,1.116-.571,0-.447-.372-.534-.93-.757-1.042-.422-1.6-.819-1.6-1.8,0-1.154,1.1-2.1,3.026-2.1a7.564,7.564,0,0,1,2.246.385Z" fill="#fff"/>
      <path id="Path_923" data-name="Path 923" d="M96.758,29.067a5.431,5.431,0,0,0-1.687-.36c-.645,0-.993.236-.993.583,0,.447.509.5,1.315.832.894.372,1.3.843,1.3,1.575,0,1.352-1.117,2.32-3.015,2.32a7.752,7.752,0,0,1-2.543-.409l.459-1.539a3.982,3.982,0,0,0,1.787.435c.731,0,1.116-.211,1.116-.571,0-.447-.372-.534-.93-.757-1.042-.422-1.6-.819-1.6-1.8,0-1.154,1.1-2.1,3.027-2.1a7.564,7.564,0,0,1,2.246.385Z" fill="#fff"/>
      <path id="Path_924" data-name="Path 924" d="M105.166,30.3c0,2.184-1.587,3.734-4.13,3.734-2.047,0-3.276-1.128-3.276-2.915,0-2.283,1.539-3.821,4.094-3.821,2.072,0,3.312,1.141,3.312,3m-3.436-1.538c-.893,0-1.712.968-1.712,2.332a1.291,1.291,0,0,0,1.228,1.439c.894,0,1.675-.967,1.675-2.332,0-.893-.484-1.439-1.191-1.439" fill="#fff"/>
      <path id="Path_925" data-name="Path 925" d="M111.613,29.241a3.183,3.183,0,0,0-1.364-.335,1.8,1.8,0,0,0-1.973,1.836,1.5,1.5,0,0,0,1.65,1.563,3.064,3.064,0,0,0,1.265-.3l-.26,1.688a7.279,7.279,0,0,1-1.824.26,2.876,2.876,0,0,1-3.163-2.965c0-2.159,1.551-3.71,4.044-3.71a5.643,5.643,0,0,1,2.134.422Z" fill="#fff"/>
      <path id="Path_926" data-name="Path 926" d="M115.655,27.455l-1.39,6.388H112.1l1.388-6.388Zm.459-2.221-.224,1.142h-2.17l.21-1.142Z" fill="#fff"/>
      <path id="Path_927" data-name="Path 927" d="M122.451,32.231a11.8,11.8,0,0,0-.261,1.612h-1.849l.124-.967a2.522,2.522,0,0,1-2.208,1.1,1.9,1.9,0,0,1-2.133-1.9c0-1.427,1.315-2.32,3.758-2.32a10.26,10.26,0,0,1,1.031.062,1.442,1.442,0,0,0,.011-.211c0-.645-.421-.993-1.227-.993a4.6,4.6,0,0,0-2.084.484l.26-1.489A6.215,6.215,0,0,1,120,27.243c1.922,0,2.964.807,2.964,2.035a6.336,6.336,0,0,1-.136,1.141ZM120.02,30.9c-1.191,0-1.812.347-1.812.993a.734.734,0,0,0,.819.719,1.76,1.76,0,0,0,1.625-1.687,5.575,5.575,0,0,0-.632-.025" fill="#fff"/>
      <path id="Path_928" data-name="Path 928" d="M127.013,27.467l-.67,3.2a2.907,2.907,0,0,0-.074.633c0,.62.3.955.844.955.806,0,1.426-.707,1.724-2.1l.57-2.692h2.233l-1.364,6.376h-2l.248-1.079a3.215,3.215,0,0,1-2.432,1.241,1.959,1.959,0,0,1-2.084-2.221,9.053,9.053,0,0,1,.235-1.774l.534-2.543Z" fill="#fff"/>
      <path id="Path_929" data-name="Path 929" d="M135.072,27.467l.683,1.873,1.414-1.873h2.543l-2.68,3.064,1.452,3.312h-2.357l-.757-2.009-1.464,2.009h-2.654l2.815-3.4L132.7,27.467Z" fill="#fff"/>
      <path id="Path_930" data-name="Path 930" d="M8.4,37.634,6.587,46.243H4.6l.236-1.067a2.839,2.839,0,0,1-2.333,1.253C.992,46.429.013,45.35.013,43.588c0-2.319,1.4-3.894,3.385-3.894a2.254,2.254,0,0,1,2.1,1.253L6.2,37.634Zm-4.5,3.709c-.856,0-1.6.918-1.6,2.2A1.116,1.116,0,0,0,3.4,44.78a1.954,1.954,0,0,0,1.688-2.134,1.192,1.192,0,0,0-1.191-1.3" fill="#fff"/>
      <path id="Path_931" data-name="Path 931" d="M10.491,43.625c.087.944.608,1.377,1.638,1.377a5.482,5.482,0,0,0,2.171-.483l-.248,1.575a7.887,7.887,0,0,1-2.357.361,2.876,2.876,0,0,1-3.2-2.991,4.062,4.062,0,0,1,1.141-2.8,3.925,3.925,0,0,1,2.841-1.005,2.488,2.488,0,0,1,2.742,2.755,5.684,5.684,0,0,1-.149,1.214Zm2.9-1.525a1.058,1.058,0,0,0-1.116-1.153c-.683,0-1.253.533-1.5,1.451h2.593a2.3,2.3,0,0,0,.025-.3" fill="#fff"/>
      <path id="Path_932" data-name="Path 932" d="M23.747,37.647l-1.861,8.6H19.678l1.861-8.6Z" fill="#fff"/>
      <path id="Path_933" data-name="Path 933" d="M30.134,44.63a11.823,11.823,0,0,0-.26,1.613H28.025l.124-.967a2.524,2.524,0,0,1-2.208,1.1,1.9,1.9,0,0,1-2.133-1.9c0-1.427,1.314-2.321,3.758-2.321a10.236,10.236,0,0,1,1.03.063,1.317,1.317,0,0,0,.012-.211c0-.646-.421-.992-1.228-.992A4.6,4.6,0,0,0,25.3,41.5l.261-1.488a6.209,6.209,0,0,1,2.121-.372c1.923,0,2.965.805,2.965,2.034a6.459,6.459,0,0,1-.136,1.142ZM27.7,43.3c-1.191,0-1.811.348-1.811.992a.733.733,0,0,0,.818.72,1.759,1.759,0,0,0,1.625-1.687A5.558,5.558,0,0,0,27.7,43.3" fill="#fff"/>
      <path id="Path_934" data-name="Path 934" d="M43.3,39.694a3.743,3.743,0,0,0-2.047-.559,3.041,3.041,0,0,0-3.3,3.325,2.179,2.179,0,0,0,2.457,2.208,4.59,4.59,0,0,0,2.059-.533L42.25,46.12a9.437,9.437,0,0,1-2.357.322c-2.742,0-4.305-1.538-4.305-4.044a5.028,5.028,0,0,1,1.34-3.461,5.177,5.177,0,0,1,4.019-1.5,9.448,9.448,0,0,1,2.928.509Z" fill="#fff"/>
      <path id="Path_935" data-name="Path 935" d="M49.739,44.63a11.812,11.812,0,0,0-.261,1.613H47.63l.124-.967a2.526,2.526,0,0,1-2.209,1.1,1.9,1.9,0,0,1-2.133-1.9c0-1.427,1.314-2.321,3.758-2.321a10.236,10.236,0,0,1,1.03.063,1.217,1.217,0,0,0,.013-.211c0-.646-.422-.992-1.229-.992A4.6,4.6,0,0,0,44.9,41.5l.261-1.488a6.209,6.209,0,0,1,2.121-.372c1.923,0,2.965.805,2.965,2.034a6.366,6.366,0,0,1-.136,1.142ZM47.307,43.3c-1.191,0-1.811.348-1.811.992a.733.733,0,0,0,.818.72,1.76,1.76,0,0,0,1.626-1.687,5.584,5.584,0,0,0-.633-.025" fill="#fff"/>
      <path id="Path_936" data-name="Path 936" d="M52.725,48.613H50.492l1.823-8.808h2l-.248,1.129A2.836,2.836,0,0,1,56.4,39.681c1.513,0,2.493,1.092,2.493,2.853,0,2.32-1.389,3.883-3.374,3.883a2.284,2.284,0,0,1-2.109-1.241Zm2.779-7.27a1.944,1.944,0,0,0-1.675,2.084,1.194,1.194,0,0,0,1.178,1.353c.856,0,1.6-.931,1.6-2.16,0-.794-.435-1.277-1.1-1.277" fill="#fff"/>
      <path id="Path_937" data-name="Path 937" d="M63.117,39.855l-1.389,6.388H59.557l1.389-6.388Zm.459-2.221-.223,1.141H61.182l.211-1.141Z" fill="#fff"/>
      <path id="Path_938" data-name="Path 938" d="M67.531,39.867h1.576l-.323,1.526H67.209l-.472,2.221a2.914,2.914,0,0,0-.087.558c0,.459.2.658.695.658a2.86,2.86,0,0,0,.732-.124l-.323,1.525a7.777,7.777,0,0,1-1.228.137,1.832,1.832,0,0,1-2.084-1.936A3.438,3.438,0,0,1,64.5,43.8l.509-2.407h-1.3l.323-1.526h1.3l.323-1.513,2.332-.62Z" fill="#fff"/>
      <path id="Path_939" data-name="Path 939" d="M75.393,44.63a11.823,11.823,0,0,0-.26,1.613H73.284l.124-.967a2.524,2.524,0,0,1-2.208,1.1,1.9,1.9,0,0,1-2.134-1.9c0-1.427,1.315-2.321,3.759-2.321a10.236,10.236,0,0,1,1.03.063,1.318,1.318,0,0,0,.012-.211c0-.646-.421-.992-1.228-.992a4.6,4.6,0,0,0-2.084.483l.261-1.488a6.209,6.209,0,0,1,2.121-.372c1.923,0,2.965.805,2.965,2.034a6.459,6.459,0,0,1-.136,1.142ZM72.962,43.3c-1.191,0-1.811.348-1.811.992a.733.733,0,0,0,.818.72,1.759,1.759,0,0,0,1.625-1.687,5.558,5.558,0,0,0-.632-.025" fill="#fff"/>
      <path id="Path_940" data-name="Path 940" d="M80.688,37.647l-1.861,8.6H76.618l1.861-8.6Z" fill="#fff"/>
      <path id="Path_941" data-name="Path 941" d="M82.931,43.625c.087.944.607,1.377,1.637,1.377a5.478,5.478,0,0,0,2.171-.483l-.248,1.575a7.887,7.887,0,0,1-2.357.361,2.875,2.875,0,0,1-3.2-2.991,4.062,4.062,0,0,1,1.141-2.8,3.924,3.924,0,0,1,2.841-1.005,2.488,2.488,0,0,1,2.741,2.755,5.621,5.621,0,0,1-.149,1.214Zm2.9-1.525a1.059,1.059,0,0,0-1.117-1.153c-.682,0-1.253.533-1.5,1.451h2.593a2.5,2.5,0,0,0,.025-.3" fill="#fff"/>
      <path id="Path_942" data-name="Path 942" d="M92.021,41.852l-.335,1.563H88.348l.335-1.563Z" fill="#fff"/>
      <path id="Path_943" data-name="Path 943" d="M96.919,37.634,98.259,42a10.045,10.045,0,0,1,.422,1.8h.1a14.65,14.65,0,0,1,.3-1.811L100,37.634h2.1l-1.836,8.609H97.428L95.964,41.43a7.131,7.131,0,0,1-.286-1.39h-.086c-.1.77-.2,1.327-.273,1.7l-.956,4.5H92.254l1.836-8.609Z" fill="#fff"/>
      <path id="Path_944" data-name="Path 944" d="M108.4,44.63a11.812,11.812,0,0,0-.261,1.613h-1.849l.124-.967a2.524,2.524,0,0,1-2.208,1.1,1.9,1.9,0,0,1-2.134-1.9c0-1.427,1.315-2.321,3.759-2.321a10.236,10.236,0,0,1,1.03.063,1.317,1.317,0,0,0,.012-.211c0-.646-.422-.992-1.227-.992a4.6,4.6,0,0,0-2.085.483l.261-1.488a6.211,6.211,0,0,1,2.122-.372c1.922,0,2.964.805,2.964,2.034a6.366,6.366,0,0,1-.136,1.142ZM105.971,43.3c-1.191,0-1.811.348-1.811.992a.734.734,0,0,0,.819.72,1.76,1.76,0,0,0,1.625-1.687,5.584,5.584,0,0,0-.633-.025" fill="#fff"/>
      <path id="Path_945" data-name="Path 945" d="M113.6,39.867h1.575l-.322,1.526h-1.575l-.472,2.221a2.832,2.832,0,0,0-.087.558c0,.459.2.658.694.658a2.873,2.873,0,0,0,.733-.124l-.322,1.525a7.788,7.788,0,0,1-1.229.137,1.832,1.832,0,0,1-2.084-1.936,3.353,3.353,0,0,1,.062-.632l.508-2.407h-1.3l.323-1.526h1.3l.323-1.513,2.332-.62Z" fill="#fff"/>
      <path id="Path_946" data-name="Path 946" d="M118.767,39.855l-1.389,6.388h-2.171l1.389-6.388Zm.459-2.221L119,38.775h-2.171l.211-1.141Z" fill="#fff"/>
      <path id="Path_947" data-name="Path 947" d="M126.83,42.7c0,2.183-1.588,3.733-4.132,3.733-2.047,0-3.275-1.128-3.275-2.915,0-2.282,1.538-3.82,4.094-3.82,2.071,0,3.313,1.141,3.313,3m-3.437-1.538c-.894,0-1.712.967-1.712,2.332a1.291,1.291,0,0,0,1.228,1.439c.893,0,1.674-.968,1.674-2.332,0-.894-.483-1.439-1.19-1.439" fill="#fff"/>
      <path id="Path_948" data-name="Path 948" d="M134.193,46.244h-2.22l.67-3.2a3.144,3.144,0,0,0,.074-.632c0-.608-.31-.943-.806-.943-.881,0-1.464.694-1.762,2.084l-.57,2.692h-2.234l1.366-6.438h2l-.248,1.141a3.213,3.213,0,0,1,2.431-1.241,1.969,1.969,0,0,1,2.084,2.233,9.135,9.135,0,0,1-.236,1.762Z" fill="#fff"/>
      <path id="Path_949" data-name="Path 949" d="M142.155,44.63a11.811,11.811,0,0,0-.261,1.613h-1.849l.125-.967a2.526,2.526,0,0,1-2.209,1.1,1.9,1.9,0,0,1-2.133-1.9c0-1.427,1.315-2.321,3.758-2.321a10.255,10.255,0,0,1,1.031.063,1.318,1.318,0,0,0,.012-.211c0-.646-.422-.992-1.228-.992a4.6,4.6,0,0,0-2.084.483l.261-1.488a6.2,6.2,0,0,1,2.121-.372c1.922,0,2.965.805,2.965,2.034a6.38,6.38,0,0,1-.137,1.142ZM139.723,43.3c-1.19,0-1.811.348-1.811.992a.734.734,0,0,0,.819.72,1.759,1.759,0,0,0,1.625-1.687,5.584,5.584,0,0,0-.633-.025" fill="#fff"/>
      <path id="Path_950" data-name="Path 950" d="M147.448,37.647l-1.861,8.6h-2.208l1.861-8.6Z" fill="#fff"/>
      <path id="Path_951" data-name="Path 951" d="M149.692,43.625c.087.944.608,1.377,1.637,1.377a5.478,5.478,0,0,0,2.171-.483l-.248,1.575a7.887,7.887,0,0,1-2.357.361,2.875,2.875,0,0,1-3.2-2.991,4.062,4.062,0,0,1,1.141-2.8,3.924,3.924,0,0,1,2.841-1.005,2.488,2.488,0,0,1,2.741,2.755,5.743,5.743,0,0,1-.148,1.214Zm2.9-1.525a1.059,1.059,0,0,0-1.117-1.153c-.682,0-1.253.533-1.5,1.451h2.593a2.5,2.5,0,0,0,.025-.3" fill="#fff"/>
      <path id="Path_952" data-name="Path 952" d="M171.529,56.967c-1.265.4-1.279-.734-1.279-.734a.938.938,0,0,0,1.234-.749H169.24V54.426H170.3s-.181-1.412-1.225-1.412c-.965,0-1.1,1.068-.921,1.51-.483.082-1.191-.753-1.191-1.736a1.871,1.871,0,0,1,1.871-1.921c1.416,0,2.475,1.635,2.475,3.559h.434a6.307,6.307,0,0,0-.1-1.772c-.3-1.331-.964-2.117-.98-3.019-.025-1.57.92-1.821,1.676-3.19.755,1.369,1.7,1.62,1.674,3.19-.014.9-.676,1.688-.979,3.019a6.35,6.35,0,0,0-.1,1.772h.433c0-1.924,1.06-3.559,2.477-3.559a1.869,1.869,0,0,1,1.869,1.921c0,.983-.707,1.818-1.191,1.736.176-.442.044-1.51-.92-1.51-1.045,0-1.225,1.412-1.225,1.412h1.064v1.058H173.2a.938.938,0,0,0,1.235.749s-.013,1.134-1.281.734a1.727,1.727,0,0,1-.81,1.378,1.727,1.727,0,0,1-.813-1.378m10.89-10.742H162.265V58.577h20.154Z" fill="#fff"/>
      <path id="Path_953" data-name="Path 953" d="M197.566,56.967c-1.267.4-1.279-.734-1.279-.734a.938.938,0,0,0,1.234-.749h-2.244V54.426h1.063s-.18-1.412-1.225-1.412c-.965,0-1.1,1.068-.92,1.51-.483.082-1.191-.753-1.191-1.736a1.87,1.87,0,0,1,1.87-1.921c1.417,0,2.476,1.635,2.476,3.559h.433a6.329,6.329,0,0,0-.1-1.772c-.3-1.331-.965-2.117-.98-3.019-.025-1.57.92-1.821,1.674-3.19.756,1.369,1.7,1.62,1.676,3.19-.016.9-.676,1.688-.981,3.019a6.308,6.308,0,0,0-.1,1.772h.432c0-1.924,1.06-3.559,2.477-3.559a1.87,1.87,0,0,1,1.87,1.921c0,.983-.708,1.818-1.191,1.736.175-.442.044-1.51-.92-1.51-1.045,0-1.225,1.412-1.225,1.412h1.063v1.058h-2.245a.939.939,0,0,0,1.235.749s-.013,1.134-1.28.734a.928.928,0,1,1-1.623,0m10.889-10.742H188.3V58.577h20.154Z" fill="#fff"/>
      <path id="Path_954" data-name="Path 954" d="M171.529,75.225c-1.265.4-1.279-.735-1.279-.735a.937.937,0,0,0,1.234-.748H169.24V72.684H170.3s-.181-1.413-1.225-1.413c-.965,0-1.1,1.069-.921,1.511-.483.081-1.191-.754-1.191-1.737a1.87,1.87,0,0,1,1.871-1.92c1.416,0,2.475,1.635,2.475,3.559h.434a6.307,6.307,0,0,0-.1-1.772c-.3-1.331-.964-2.117-.98-3.019-.025-1.571.92-1.823,1.676-3.19.755,1.367,1.7,1.619,1.674,3.19-.014.9-.676,1.688-.979,3.019a6.35,6.35,0,0,0-.1,1.772h.433c0-1.924,1.06-3.559,2.477-3.559a1.869,1.869,0,0,1,1.869,1.92c0,.983-.707,1.818-1.191,1.737.176-.442.044-1.511-.92-1.511-1.045,0-1.225,1.413-1.225,1.413h1.064v1.058H173.2a.938.938,0,0,0,1.235.748s-.013,1.135-1.281.735a1.725,1.725,0,0,1-.81,1.377,1.726,1.726,0,0,1-.813-1.377m10.89-10.743H162.265V76.834h20.154Z" fill="#fff"/>
      <path id="Path_955" data-name="Path 955" d="M197.566,75.225c-1.267.4-1.279-.735-1.279-.735a.937.937,0,0,0,1.234-.748h-2.244V72.684h1.063s-.18-1.413-1.225-1.413c-.965,0-1.1,1.069-.92,1.511-.483.081-1.191-.754-1.191-1.737a1.87,1.87,0,0,1,1.87-1.92c1.417,0,2.476,1.635,2.476,3.559h.433a6.329,6.329,0,0,0-.1-1.772c-.3-1.331-.965-2.117-.98-3.019-.025-1.571.92-1.823,1.674-3.19.756,1.367,1.7,1.619,1.676,3.19-.016.9-.676,1.688-.981,3.019a6.308,6.308,0,0,0-.1,1.772h.432c0-1.924,1.06-3.559,2.477-3.559a1.87,1.87,0,0,1,1.87,1.92c0,.983-.708,1.818-1.191,1.737.175-.442.044-1.511-.92-1.511-1.045,0-1.225,1.413-1.225,1.413h1.063v1.058h-2.245a.939.939,0,0,0,1.235.748s-.013,1.135-1.28.735a.928.928,0,1,1-1.623,0m10.889-10.743H188.3V76.834h20.154Z" fill="#fff"/>
    </g>
  </g>
</svg>
