<svg xmlns="http://www.w3.org/2000/svg" xmlns:xlink="http://www.w3.org/1999/xlink" width="250.549" height="142.884" viewBox="0 0 250.549 142.884">
  <defs>
    <clipPath id="clip-path">
      <rect id="Rectangle_53" data-name="Rectangle 53" width="250.549" height="142.884" fill="none"/>
    </clipPath>
  </defs>
  <g id="Group_84" data-name="Group 84" clip-path="url(#clip-path)">
    <path id="Path_466" data-name="Path 466" d="M.059,87.111c-.088-.029-.091-.1.085-.225.508-.369,1.84-1.061,2.354-1.384.974-.6,1.848-1.163,2.756-1.75q2.94-1.91,5.84-3.865c4.351-2.942,8.606-6,12.7-9.224a134.991,134.991,0,0,0,25.367-25.7q3.107-4.234,5.775-8.709c.9-1.515,1.761-3.048,2.582-4.6A25.1,25.1,0,0,1,60.1,27.24c.327-.38,1.65.774,1.846,4.137a9.341,9.341,0,0,1-.067,2.215,16.764,16.764,0,0,1-1.35,3.942,41.7,41.7,0,0,1-5.954,8.822c-5.849,6.96-12.9,13.095-20.155,18.85A235.763,235.763,0,0,1,12.338,80.932C8.689,83.19,4.541,85.906.059,87.111" transform="translate(0 0.045)" fill="#39741f"/>
    <path id="Path_467" data-name="Path 467" d="M83.639,44.612c.919-1.125-.012-4.682-.317-5.54A22.149,22.149,0,0,0,76.59,27.885,17.729,17.729,0,0,0,69.855,23.5c-3.994-1.153-6.447.679-6.626,1.426-.223.927-.309,2.429,2.083,4.237,1.547,1.176,5.761,3.13,7.073,4.573C75.525,37.2,76.065,39.353,79.4,43.3c1.142,1.345,2.694,3.21,4.235,1.314" transform="translate(0.105 0.039)" fill="#007fc3"/>
    <path id="Path_468" data-name="Path 468" d="M85.093.557c1.13,1.978-1.1,4.577-2.219,5.908a67.481,67.481,0,0,1-10.362,9.392,27.8,27.8,0,0,1-5.035,3.417,17.4,17.4,0,0,1-3.28,1.073c-1.192-.88.98-3.363,1.755-4.226a52.484,52.484,0,0,0,5.226-6.665C75.52,2.729,83.863-1.595,85.093.557" transform="translate(0.106 0)" fill="#007fc3"/>
    <path id="Path_469" data-name="Path 469" d="M42.712,30.33c6.36.552,14.716-.839,16.5-7.976.765-3.056-6.959-.928-8.343-.7-4.071.677-8.108,1.521-12.182,2.207-2.418.384-5.264.477-7.814,1.442-.373.143-.447.325-.461.454-.059,4.257,8.941,4.279,12.3,4.572" transform="translate(0.051 0.035)" fill="#007fc3"/>
    <path id="Path_470" data-name="Path 470" d="M55,2.657c3.419-1.381,5.752-.084,5.937,3.684a37.976,37.976,0,0,1-.449,5.058,46.238,46.238,0,0,0,.07,7.284c-1.274-.207-2.794-2.073-3.636-3.034a22.992,22.992,0,0,1-3.364-4.811C52.021,7.85,51.462,4.085,55,2.657" transform="translate(0.087 0.004)" fill="#007fc3"/>
    <path id="Path_471" data-name="Path 471" d="M52.473,73.373q4.889-5.131,10.1-5.131a4.855,4.855,0,0,1,3.063.886,3.158,3.158,0,0,1,1.136,2.637q0,3.556-4.161,6.079a21.9,21.9,0,0,1-8.755,3.094l-1.408.174a16.334,16.334,0,0,0-.443,1.615,7.754,7.754,0,0,0-.123,1.516A4.189,4.189,0,0,0,53.3,87.621a5.015,5.015,0,0,0,3.369,1.207A7.757,7.757,0,0,0,60.6,87.6a32.5,32.5,0,0,0,3.431-2.554l.648.567a15.546,15.546,0,0,1-3.186,2.88A12.631,12.631,0,0,1,54.1,91.137a6.5,6.5,0,0,1-4.592-1.853,6.9,6.9,0,0,1-1.978-5.3q0-5.478,4.939-10.611m8,3.316q2.963-2.626,2.961-5.21a2.323,2.323,0,0,0-.443-1.492,1.582,1.582,0,0,0-1.309-.552A4.752,4.752,0,0,0,58.535,70.8a18.626,18.626,0,0,0-2.776,3.089,24.456,24.456,0,0,0-2.074,3.871c-.279.655-.576,1.4-.886,2.238a14.4,14.4,0,0,0,7.674-3.312m9.347-16.95a2.6,2.6,0,0,1-.619.554l-8.639,5.386H58.774L66.981,57.6a1.741,1.741,0,0,1,.59-.368,1.9,1.9,0,0,1,.716-.148,1.8,1.8,0,0,1,1.247.506,1.638,1.638,0,0,1,.555,1.27,1.376,1.376,0,0,1-.27.878" transform="translate(0.079 0.095)" fill="#39741f"/>
    <path id="Path_472" data-name="Path 472" d="M77.883,60.58a2.806,2.806,0,0,0,.123-.647c.018-.213.026-.39.026-.52a.927.927,0,0,0-.674-1.027,11.714,11.714,0,0,0-2.685-.162v-.8l2.579-.345c.969-.133,1.606-.221,1.9-.27q1.4-.246,3.384-.735c.121,0,.235.084.353.247L74.664,85.993c-.179.711-.284,1.139-.32,1.283a2.118,2.118,0,0,0-.047.445,1.7,1.7,0,0,0,.173.8.648.648,0,0,0,.639.334q.894,0,2.331-1.582a25.751,25.751,0,0,0,2.426-3.059l.661.467a34.394,34.394,0,0,1-3.32,4.349,5.948,5.948,0,0,1-4.141,2.052,2.857,2.857,0,0,1-1.585-.448,2.464,2.464,0,0,1-1.062-2.273,9.573,9.573,0,0,1,.2-1.656c.1-.411.217-.884.37-1.424Z" transform="translate(0.117 0.093)" fill="#39741f"/>
    <path id="Path_473" data-name="Path 473" d="M100.908,69.137a3.619,3.619,0,0,1,.9,1.433l.126.345.555-1.861a2.135,2.135,0,0,1,.176-.426.483.483,0,0,1,.358-.137l2.859-.317c.152,0,.24.031.264.086a.554.554,0,0,1-.012.306c-.073.216-.123.385-.158.508s-.088.3-.159.532l-2.447,8.843q-.792,2.888-1.355,4.985a37.118,37.118,0,0,0-.911,4.325.643.643,0,0,0,.182.5.68.68,0,0,0,.458.158,1,1,0,0,0,.493-.148,5.775,5.775,0,0,0,.66-.44l.441-.347c.135-.117.293-.25.467-.4s.379-.351.619-.58l1.6-1.579.6.521a25.988,25.988,0,0,1-4.229,4.448,5.2,5.2,0,0,1-3.04,1.172,1.728,1.728,0,0,1-1.44-.642,2.491,2.491,0,0,1-.508-1.6,13.9,13.9,0,0,1,.335-2.545q.331-1.663.651-2.794-.44.739-1.49,2.16A17.323,17.323,0,0,1,94.326,88.4a12.17,12.17,0,0,1-3.452,2.274,7.529,7.529,0,0,1-2.465.447,4.991,4.991,0,0,1-3.621-1.647,6.333,6.333,0,0,1-1.629-4.659q0-5.194,4.69-10.831,4.834-5.86,10.019-5.861a4.252,4.252,0,0,1,3.04,1.016m-.8.939a2.674,2.674,0,0,0-1.992-.84q-4.058,0-7.548,6.185-3.064,5.442-3.064,9.373a4.094,4.094,0,0,0,.851,2.882,2.757,2.757,0,0,0,2.1.9q3.716,0,7.161-6.01,3.31-5.474,3.31-9.872a3.627,3.627,0,0,0-.821-2.621" transform="translate(0.139 0.114)" fill="#39741f"/>
    <path id="Path_474" data-name="Path 474" d="M108.525,90.521l4.229-15.258q.541-1.944.631-2.353a4.291,4.291,0,0,0,.084-.886,1.525,1.525,0,0,0-.408-1.129,2.255,2.255,0,0,0-1.588-.411,4.6,4.6,0,0,0-.578.036c-.187.025-.4.054-.628.088v-.8q1.6-.248,2.272-.375T114,69.136l4.4-.963a.489.489,0,0,1,.194.221l-3.24,10.624a59.056,59.056,0,0,1,5.056-6.871q3.565-3.973,6.392-3.974a3.975,3.975,0,0,1,1.884.419,3.045,3.045,0,0,1,1.512,2.939,6.555,6.555,0,0,1-.126,1.236c-.082.425-.188.887-.318,1.381l-3.254,11.837c-.067.248-.14.548-.222.9a3.964,3.964,0,0,0-.123.755,1.275,1.275,0,0,0,.173.669.59.59,0,0,0,.548.294,2.246,2.246,0,0,0,1.42-.756,27.438,27.438,0,0,0,2.624-3.23l.71.648a30.175,30.175,0,0,1-3.143,3.85,5.621,5.621,0,0,1-3.8,1.95,2.671,2.671,0,0,1-1.585-.555,2.325,2.325,0,0,1-.766-2.008,6.855,6.855,0,0,1,.062-.889,5.359,5.359,0,0,1,.161-.812l3.175-12.01a15.93,15.93,0,0,0,.332-1.618,7.561,7.561,0,0,0,.088-.9,1.815,1.815,0,0,0-.285-1.025,1.122,1.122,0,0,0-1.009-.432q-1.868,0-4.71,3.357a42.911,42.911,0,0,0-3.39,4.762,24.35,24.35,0,0,0-2.06,4.183q-.748,2.039-2.348,7.406Z" transform="translate(0.181 0.114)" fill="#39741f"/>
    <path id="Path_475" data-name="Path 475" d="M49.254,101.464h1.19v8.41h3.1V110.9H49.254Z" transform="translate(0.082 0.169)" fill="#39741f"/>
    <path id="Path_476" data-name="Path 476" d="M58.413,101.465,61.5,110.9H60.252l-.756-2.461H55.9l-.758,2.461h-1.19l3.164-9.438Zm.771,5.949-1.446-4.7H57.71l-1.487,4.7Z" transform="translate(0.09 0.169)" fill="#39741f"/>
    <path id="Path_477" data-name="Path 477" d="M66.142,101.464h4.219v1.027H67.332v3h2.88v1.028h-2.88V110.9h-1.19Z" transform="translate(0.11 0.169)" fill="#39741f"/>
    <path id="Path_478" data-name="Path 478" d="M75.179,101.369c2.1,0,3.435,1.8,3.435,4.72,0,3.258-1.311,4.909-3.543,4.909-2.1,0-3.435-1.8-3.435-4.72,0-3.258,1.311-4.909,3.543-4.909m-.108,8.654c1.244,0,2.3-1.027,2.3-3.935,0-1.907-.595-3.746-2.191-3.746-1.244,0-2.3,1.028-2.3,3.936,0,1.906.595,3.745,2.191,3.745" transform="translate(0.119 0.169)" fill="#39741f"/>
    <path id="Path_479" data-name="Path 479" d="M80.424,101.464H81.9l3.556,7.788h.027v-7.788h1.136V110.9H85.143l-3.556-7.735H81.56V110.9H80.424Z" transform="translate(0.134 0.169)" fill="#39741f"/>
    <path id="Path_480" data-name="Path 480" d="M88.687,101.465h2.055a4.088,4.088,0,0,1,2.515.675A4.478,4.478,0,0,1,95,106.035c0,2.733-1.3,4.868-4.841,4.868H88.687Zm1.19,8.41h.716c2.082,0,3.164-1.419,3.164-3.84,0-1.974-.837-3.543-3.164-3.543h-.716Z" transform="translate(0.148 0.169)" fill="#39741f"/>
    <path id="Path_481" data-name="Path 481" d="M100,101.465l3.084,9.438h-1.245l-.756-2.461h-3.6l-.757,2.461h-1.19l3.165-9.438Zm.771,5.949-1.446-4.7h-.028l-1.486,4.7Z" transform="translate(0.159 0.169)" fill="#39741f"/>
    <path id="Path_482" data-name="Path 482" d="M105.109,102.491h-2.164v-1.027h5.517v1.027H106.3V110.9h-1.19Z" transform="translate(0.172 0.169)" fill="#39741f"/>
    <rect id="Rectangle_46" data-name="Rectangle 46" width="1.19" height="9.439" transform="translate(110.054 101.633)" fill="#39741f"/>
    <path id="Path_483" data-name="Path 483" d="M116.424,101.369c2.1,0,3.435,1.8,3.435,4.72,0,3.258-1.311,4.909-3.543,4.909-2.1,0-3.435-1.8-3.435-4.72,0-3.258,1.312-4.909,3.543-4.909m-.108,8.654c1.244,0,2.3-1.027,2.3-3.935,0-1.907-.595-3.746-2.191-3.746-1.244,0-2.3,1.028-2.3,3.936,0,1.906.6,3.745,2.191,3.745" transform="translate(0.188 0.169)" fill="#39741f"/>
    <path id="Path_484" data-name="Path 484" d="M121.67,101.464h1.473l3.557,7.788h.027v-7.788h1.136V110.9h-1.474l-3.556-7.735h-.027V110.9H121.67Z" transform="translate(0.203 0.169)" fill="#39741f"/>
    <path id="Path_485" data-name="Path 485" d="M49.118,116.465h2.055a4.088,4.088,0,0,1,2.515.675,4.478,4.478,0,0,1,1.745,3.894c0,2.733-1.3,4.868-4.841,4.868H49.118Zm1.19,8.41h.717c2.082,0,3.164-1.419,3.164-3.84,0-1.974-.838-3.543-3.164-3.543h-.717Z" transform="translate(0.082 0.194)" fill="#39741f"/>
    <path id="Path_486" data-name="Path 486" d="M57.137,116.464h4.4v1.027H58.327v3h3.056v1.028H58.327v3.353h3.381V125.9H57.137Z" transform="translate(0.095 0.194)" fill="#39741f"/>
    <path id="Path_487" data-name="Path 487" d="M66.9,116.464h1.19v8.41h3.1V125.9H66.9Z" transform="translate(0.111 0.194)" fill="#39741f"/>
    <path id="Path_488" data-name="Path 488" d="M70.923,118.9h1.028l.892-3.137H71.6Z" transform="translate(0.118 0.193)" fill="#39741f"/>
    <rect id="Rectangle_47" data-name="Rectangle 47" width="1.19" height="9.439" transform="translate(74.8 116.658)" fill="#39741f"/>
    <path id="Path_489" data-name="Path 489" d="M78.078,116.464h1.474l3.556,7.788h.027v-7.788h1.136V125.9H82.8l-3.557-7.735h-.027V125.9H78.078Z" transform="translate(0.13 0.194)" fill="#39741f"/>
    <path id="Path_490" data-name="Path 490" d="M90.37,117.83a3.178,3.178,0,0,0-1.609-.433,1.382,1.382,0,0,0-1.474,1.406c0,.608.243.988,1.6,1.771,1.46.838,1.947,1.664,1.947,2.747A2.53,2.53,0,0,1,88.084,126a4.7,4.7,0,0,1-1.974-.406v-1.23a3.911,3.911,0,0,0,1.8.608,1.536,1.536,0,0,0,1.677-1.486c0-.731-.189-1.151-1.46-1.921-1.7-1.028-2.082-1.61-2.082-2.827a2.364,2.364,0,0,1,2.623-2.366,4.781,4.781,0,0,1,1.7.312Z" transform="translate(0.143 0.194)" fill="#39741f"/>
    <path id="Path_491" data-name="Path 491" d="M93.971,117.491H91.807v-1.027h5.517v1.027H95.161V125.9h-1.19Z" transform="translate(0.153 0.194)" fill="#39741f"/>
    <rect id="Rectangle_48" data-name="Rectangle 48" width="1.19" height="9.439" transform="translate(98.898 116.658)" fill="#39741f"/>
    <path id="Path_492" data-name="Path 492" d="M103.5,117.491h-2.164v-1.027h5.517v1.027h-2.164V125.9H103.5Z" transform="translate(0.169 0.194)" fill="#39741f"/>
    <path id="Path_493" data-name="Path 493" d="M114.186,122.427a4.217,4.217,0,0,1-.379,2.11,3.014,3.014,0,0,1-5.166,0,4.217,4.217,0,0,1-.379-2.11v-5.963h1.19V122.6c0,1.473.649,2.42,1.771,2.42S113,124.077,113,122.6v-6.139h1.19Z" transform="translate(0.18 0.194)" fill="#39741f"/>
    <path id="Path_494" data-name="Path 494" d="M117.757,117.491h-2.164v-1.027h5.517v1.027h-2.164V125.9h-1.19Z" transform="translate(0.193 0.194)" fill="#39741f"/>
    <path id="Path_495" data-name="Path 495" d="M125.758,116.465h2.056a4.092,4.092,0,0,1,2.515.675,4.48,4.48,0,0,1,1.744,3.894c0,2.733-1.3,4.868-4.841,4.868h-1.474Zm1.191,8.41h.716c2.083,0,3.163-1.419,3.163-3.84,0-1.974-.837-3.543-3.163-3.543h-.716Z" transform="translate(0.21 0.194)" fill="#39741f"/>
    <path id="Path_496" data-name="Path 496" d="M133.777,116.464h4.4v1.027h-3.205v3h3.056v1.028h-3.056v3.353h3.381V125.9h-4.571Z" transform="translate(0.223 0.194)" fill="#39741f"/>
    <path id="Path_497" data-name="Path 497" d="M143.538,116.464h2.421a2.649,2.649,0,0,1,1.987.649,2.415,2.415,0,0,1,.7,1.8,2.156,2.156,0,0,1-1.866,2.259v.026a1.21,1.21,0,0,1,1.028.92l1.325,3.786h-1.284l-1.082-3.19a1.329,1.329,0,0,0-1.5-1.082h-.541V125.9h-1.19Zm1.19,4.192h.92a1.591,1.591,0,0,0,1.758-1.663c0-1.055-.69-1.556-1.731-1.556h-.947Z" transform="translate(0.239 0.194)" fill="#39741f"/>
    <path id="Path_498" data-name="Path 498" d="M150.679,116.468h4.4v1.027h-3.205v3h3.056v1.029h-3.056v3.353h3.381v1.029h-4.571ZM153,114.047h1.339l-1.38,1.961H152.1Z" transform="translate(0.251 0.19)" fill="#39741f"/>
    <path id="Path_499" data-name="Path 499" d="M160.6,116.465l3.084,9.438h-1.244l-.757-2.461h-3.6l-.757,2.461h-1.19l3.164-9.438Zm.771,5.949-1.446-4.7h-.027l-1.487,4.7Z" transform="translate(0.26 0.194)" fill="#39741f"/>
    <path id="Path_500" data-name="Path 500" d="M164.814,116.465h2.055a4.088,4.088,0,0,1,2.515.675,4.478,4.478,0,0,1,1.745,3.894c0,2.733-1.3,4.868-4.841,4.868h-1.474Zm1.19,8.41h.716c2.082,0,3.164-1.419,3.164-3.84,0-1.974-.837-3.543-3.164-3.543H166Z" transform="translate(0.275 0.194)" fill="#39741f"/>
    <path id="Path_501" data-name="Path 501" d="M176.122,116.465l3.084,9.438h-1.245l-.756-2.461h-3.6l-.758,2.461h-1.19l3.165-9.438Zm.771,5.949-1.446-4.7h-.028l-1.487,4.7Z" transform="translate(0.286 0.194)" fill="#39741f"/>
    <path id="Path_502" data-name="Path 502" d="M180.476,116.464h2.272a2.726,2.726,0,0,1,2.042.73,2.631,2.631,0,0,1,.743,1.947c0,1.839-1.069,2.813-3.07,2.813h-.8V125.9h-1.19Zm1.19,4.517h.649c1.447,0,1.974-.676,1.974-1.731,0-1.3-.73-1.812-1.947-1.812h-.676Z" transform="translate(0.301 0.194)" fill="#39741f"/>
    <path id="Path_503" data-name="Path 503" d="M188.471,117.491h-2.164v-1.027h5.517v1.027h-2.164V125.9h-1.19Z" transform="translate(0.31 0.194)" fill="#39741f"/>
    <path id="Path_504" data-name="Path 504" d="M196.157,116.465l3.083,9.438H198l-.756-2.461h-3.6l-.757,2.461H191.7l3.165-9.438Zm.771,5.949-1.447-4.7h-.027l-1.486,4.7Z" transform="translate(0.319 0.194)" fill="#39741f"/>
    <path id="Path_505" data-name="Path 505" d="M201.271,117.491h-2.164v-1.027h5.517v1.027H202.46V125.9h-1.189Z" transform="translate(0.332 0.194)" fill="#39741f"/>
    <rect id="Rectangle_49" data-name="Rectangle 49" width="1.191" height="9.439" transform="translate(206.375 116.658)" fill="#39741f"/>
    <path id="Path_506" data-name="Path 506" d="M212.586,116.369c2.1,0,3.435,1.8,3.435,4.72,0,3.258-1.312,4.909-3.543,4.909-2.1,0-3.435-1.8-3.435-4.72,0-3.258,1.312-4.909,3.543-4.909m-.108,8.654c1.244,0,2.3-1.027,2.3-3.935,0-1.907-.595-3.746-2.191-3.746-1.244,0-2.3,1.028-2.3,3.936,0,1.906.595,3.745,2.191,3.745" transform="translate(0.348 0.194)" fill="#39741f"/>
    <path id="Path_507" data-name="Path 507" d="M217.831,116.464h1.474l3.557,7.788h.026v-7.788h1.137V125.9h-1.474l-3.557-7.735h-.026V125.9h-1.137Z" transform="translate(0.363 0.194)" fill="#39741f"/>
    <path id="Path_508" data-name="Path 508" d="M49.254,131.464h4.394v1.027h-3.2v3H53.5v1.028H50.444v3.353h3.381V140.9H49.254Z" transform="translate(0.082 0.219)" fill="#39741f"/>
    <path id="Path_509" data-name="Path 509" d="M55.639,131.464h1.474l3.556,7.788H60.7v-7.788h1.136V140.9H60.358L56.8,133.168h-.027V140.9H55.639Z" transform="translate(0.093 0.219)" fill="#39741f"/>
    <path id="Path_510" data-name="Path 510" d="M67.276,131.465h2.055a4.09,4.09,0,0,1,2.515.675,4.477,4.477,0,0,1,1.744,3.894c0,2.733-1.3,4.868-4.841,4.868H67.276Zm1.19,8.41h.716c2.082,0,3.164-1.419,3.164-3.84,0-1.974-.838-3.543-3.164-3.543h-.716Z" transform="translate(0.112 0.219)" fill="#39741f"/>
    <path id="Path_511" data-name="Path 511" d="M75.295,131.468h4.394v1.027h-3.2v3h3.056v1.029H76.485v3.353h3.381v1.029H75.295Zm2.326-2.421h1.338l-1.379,1.961h-.865Z" transform="translate(0.125 0.215)" fill="#39741f"/>
    <path id="Path_512" data-name="Path 512" d="M81.68,131.464H85.9v1.027H82.87v3h2.88v1.028H82.87V140.9H81.68Z" transform="translate(0.136 0.219)" fill="#39741f"/>
    <rect id="Rectangle_50" data-name="Rectangle 50" width="1.19" height="9.439" transform="translate(87.712 131.683)" fill="#39741f"/>
    <path id="Path_513" data-name="Path 513" d="M96.54,140.714a5.912,5.912,0,0,1-1.717.285c-2.989,0-4.247-2.272-4.247-4.827,0-2.949,1.718-4.8,4.179-4.8a4.271,4.271,0,0,1,1.785.339v1.163a3.249,3.249,0,0,0-1.772-.474c-1.542,0-2.947,1.231-2.947,3.53,0,2.433.973,4.043,3.029,4.043a3.394,3.394,0,0,0,1.69-.446Z" transform="translate(0.151 0.219)" fill="#39741f"/>
    <rect id="Rectangle_51" data-name="Rectangle 51" width="1.19" height="9.439" transform="translate(98.516 131.683)" fill="#39741f"/>
    <path id="Path_514" data-name="Path 514" d="M101.754,131.464h4.4v1.027h-3.205v3H106v1.028h-3.056v3.353h3.381V140.9h-4.571Z" transform="translate(0.17 0.219)" fill="#39741f"/>
    <path id="Path_515" data-name="Path 515" d="M108.14,131.464h1.473l3.557,7.788h.027v-7.788h1.136V140.9H112.86l-3.557-7.735h-.027V140.9H108.14Z" transform="translate(0.18 0.219)" fill="#39741f"/>
    <path id="Path_516" data-name="Path 516" d="M122.109,140.714a5.913,5.913,0,0,1-1.718.285c-2.988,0-4.246-2.272-4.246-4.827,0-2.949,1.718-4.8,4.179-4.8a4.271,4.271,0,0,1,1.785.339v1.163a3.248,3.248,0,0,0-1.771-.474c-1.543,0-2.949,1.231-2.949,3.53,0,2.433.974,4.043,3.03,4.043a3.394,3.394,0,0,0,1.69-.446Z" transform="translate(0.194 0.219)" fill="#39741f"/>
    <path id="Path_517" data-name="Path 517" d="M123.921,131.464h4.394v1.027h-3.2v3h3.056v1.028h-3.056v3.353h3.381V140.9h-4.571Z" transform="translate(0.206 0.219)" fill="#39741f"/>
    <path id="Path_518" data-name="Path 518" d="M133.681,131.464h2.272a2.726,2.726,0,0,1,2.042.73,2.631,2.631,0,0,1,.743,1.947c0,1.839-1.069,2.813-3.07,2.813h-.8V140.9h-1.19Zm1.19,4.517h.649c1.446,0,1.974-.676,1.974-1.731,0-1.3-.73-1.812-1.947-1.812h-.676Z" transform="translate(0.223 0.219)" fill="#39741f"/>
    <path id="Path_519" data-name="Path 519" d="M140.31,131.464h1.19v4.03h3.3v-4.03h1.19V140.9H144.8v-4.381h-3.3V140.9h-1.19Z" transform="translate(0.234 0.219)" fill="#39741f"/>
    <path id="Path_520" data-name="Path 520" d="M150.061,136.941l-2.826-5.477h1.352l2.081,4.178,2.1-4.178h1.312l-2.827,5.477V140.9h-1.19Z" transform="translate(0.245 0.219)" fill="#39741f"/>
    <path id="Path_521" data-name="Path 521" d="M158.719,132.83a3.175,3.175,0,0,0-1.609-.433,1.382,1.382,0,0,0-1.474,1.406c0,.608.243.988,1.6,1.771,1.46.838,1.947,1.664,1.947,2.747A2.53,2.53,0,0,1,156.434,141a4.69,4.69,0,0,1-1.974-.406v-1.23a3.907,3.907,0,0,0,1.8.608,1.536,1.536,0,0,0,1.677-1.486c0-.731-.189-1.151-1.46-1.921-1.7-1.028-2.082-1.61-2.082-2.827a2.364,2.364,0,0,1,2.623-2.366,4.777,4.777,0,0,1,1.7.312Z" transform="translate(0.257 0.219)" fill="#39741f"/>
    <rect id="Rectangle_52" data-name="Rectangle 52" width="1.19" height="9.439" transform="translate(161.22 131.683)" fill="#39741f"/>
    <path id="Path_522" data-name="Path 522" d="M169.291,142.661l-1.419-1.718a1.136,1.136,0,0,1-.23.041c-.081,0-.162.014-.243.014-2.1,0-3.435-1.8-3.435-4.72,0-3.258,1.311-4.909,3.543-4.909,2.1,0,3.435,1.8,3.435,4.72,0,2.407-.717,3.935-2,4.571l1.812,2Zm-1.893-2.637c1.244,0,2.3-1.027,2.3-3.935,0-1.907-.6-3.746-2.191-3.746-1.244,0-2.3,1.028-2.3,3.936,0,1.906.595,3.745,2.191,3.745" transform="translate(0.273 0.219)" fill="#39741f"/>
    <path id="Path_523" data-name="Path 523" d="M178.674,137.427a4.217,4.217,0,0,1-.379,2.109,3.014,3.014,0,0,1-5.166,0,4.217,4.217,0,0,1-.379-2.109v-5.963h1.19V137.6c0,1.473.649,2.42,1.771,2.42s1.772-.947,1.772-2.42v-6.139h1.19Z" transform="translate(0.288 0.219)" fill="#39741f"/>
    <path id="Path_524" data-name="Path 524" d="M180.878,131.464h4.4v1.027h-3.205v3h3.056v1.028h-3.056v3.353h3.381V140.9h-4.571Z" transform="translate(0.301 0.219)" fill="#39741f"/>
    <path id="Path_525" data-name="Path 525" d="M190.5,131.469h2.055a4.088,4.088,0,0,1,2.515.675,4.478,4.478,0,0,1,1.745,3.894c0,2.733-1.3,4.868-4.841,4.868H190.5Zm1.19,8.41h.717c2.082,0,3.163-1.419,3.163-3.84,0-1.974-.837-3.543-3.163-3.543h-.717Z" transform="translate(0.317 0.219)" fill="#39741f"/>
    <path id="Path_526" data-name="Path 526" d="M198.521,131.468h4.4v1.027h-3.205v3h3.057v1.029h-3.057v3.353h3.382v1.029h-4.572Z" transform="translate(0.331 0.219)" fill="#39741f"/>
    <path id="Path_527" data-name="Path 527" d="M213.071,142.665l-1.42-1.718a1.125,1.125,0,0,1-.229.041c-.082,0-.162.014-.244.014-2.1,0-3.434-1.8-3.434-4.72,0-3.258,1.311-4.909,3.543-4.909,2.1,0,3.434,1.8,3.434,4.72,0,2.407-.716,3.935-2,4.571l1.812,2Zm-1.894-2.637c1.244,0,2.3-1.027,2.3-3.935,0-1.907-.6-3.746-2.19-3.746-1.244,0-2.3,1.028-2.3,3.936,0,1.906.595,3.745,2.19,3.745" transform="translate(0.346 0.219)" fill="#39741f"/>
    <path id="Path_528" data-name="Path 528" d="M222.455,137.431a4.217,4.217,0,0,1-.381,2.11,3.012,3.012,0,0,1-5.164,0,4.206,4.206,0,0,1-.38-2.11v-5.963h1.19v6.139c0,1.473.649,2.42,1.772,2.42s1.772-.947,1.772-2.42v-6.139h1.19Z" transform="translate(0.361 0.219)" fill="#39741f"/>
    <path id="Path_529" data-name="Path 529" d="M224.658,131.472h4.4V132.5h-3.2v3h3.056v1.029h-3.056v3.354h3.381v1.028h-4.572Zm2.326-2.421h1.338l-1.379,1.961h-.864Z" transform="translate(0.374 0.215)" fill="#39741f"/>
    <path id="Path_530" data-name="Path 530" d="M231.045,131.468h2.392c1.825,0,2.623,1,2.623,2.393a2.1,2.1,0,0,1-1.555,2.1v.028a2.145,2.145,0,0,1,1.758,2.34c0,1.311-.893,2.582-2.948,2.582h-2.271Zm1.189,4.084h.7c1.326,0,1.935-.608,1.935-1.623,0-.812-.488-1.488-1.732-1.488h-.906Zm0,4.381h1.014a1.635,1.635,0,0,0,1.825-1.691,1.568,1.568,0,0,0-1.691-1.717h-1.148Z" transform="translate(0.385 0.219)" fill="#39741f"/>
    <path id="Path_531" data-name="Path 531" d="M238.185,131.468h4.394v1.027h-3.205v3h3.056v1.029h-3.056v3.353h3.381v1.029h-4.57Z" transform="translate(0.397 0.219)" fill="#39741f"/>
    <path id="Path_532" data-name="Path 532" d="M250.142,140.718a5.9,5.9,0,0,1-1.718.284c-2.987,0-4.245-2.272-4.245-4.827,0-2.949,1.718-4.8,4.179-4.8a4.268,4.268,0,0,1,1.784.339v1.163a3.246,3.246,0,0,0-1.771-.474c-1.542,0-2.948,1.231-2.948,3.53,0,2.433.975,4.043,3.029,4.043a3.394,3.394,0,0,0,1.69-.446Z" transform="translate(0.407 0.219)" fill="#39741f"/>
  </g>
</svg>
