<svg xmlns="http://www.w3.org/2000/svg" xmlns:xlink="http://www.w3.org/1999/xlink" width="198.478" height="276.801" viewBox="0 0 198.478 276.801">
  <defs>
    <clipPath id="clip-path">
      <rect id="Rectangle_67" data-name="Rectangle 67" width="198.478" height="276.801" fill="#c9d63b"/>
    </clipPath>
  </defs>
  <g id="Group_295" data-name="Group 295" opacity="0.421">
    <g id="Group_88" data-name="Group 88" clip-path="url(#clip-path)">
      <path id="Path_602" data-name="Path 602" d="M69.15,273.631a15.567,15.567,0,0,1-.371-4.811c.123-3.287.27-6.573.409-9.86a46.712,46.712,0,0,1,1.8-10.083c.621-2.327,1.779-2.572,3.625-.977a6.748,6.748,0,0,1,2.291,4.353c.368,2.658.545,5.341,1.1,7.973a4.965,4.965,0,0,1-.068,1.8,46.7,46.7,0,0,0-.879,5.151,4.267,4.267,0,0,1-1.456,2.813,3.136,3.136,0,0,0-1.107,3.043,3.558,3.558,0,0,1-.466,2.328,2.25,2.25,0,0,1-4.139.135,11.334,11.334,0,0,1-.736-1.866" fill="#c9d63b"/>
      <path id="Path_603" data-name="Path 603" d="M136.964,50.555a3.287,3.287,0,0,1,.049,1.947c-.742,2.2-4.163,4.011-6.4,3.3a24.485,24.485,0,0,1-6.872-3.733,16.148,16.148,0,0,0-4.658-2.741,4.261,4.261,0,0,1-1.374-.82,12.711,12.711,0,0,0-3.291-1.916,3.438,3.438,0,0,1-1.231-5.355,2.227,2.227,0,0,1,2.7-.8c2.535,1.194,5.187,2.07,7.671,3.46,3.425,1.917,6.9,3.918,10.859,4.674,1.288.246,2.309.724,2.547,1.983" fill="#c9d63b"/>
      <path id="Path_604" data-name="Path 604" d="M133.861,171.993c-.072,2.774.763,5.979-.374,9.142a4.929,4.929,0,0,0-.147,1.788,10.525,10.525,0,0,1-.37,2.983,3.955,3.955,0,0,1-3.768,3.287,2.475,2.475,0,0,0-2.6,2.261,4.927,4.927,0,0,1-2.421,3.3,2.088,2.088,0,0,1-2.442.07,1.9,1.9,0,0,1-.791-2.288,24.553,24.553,0,0,1,1.208-4.039c1.58-3.391,2.51-7.07,4.592-10.238a8.448,8.448,0,0,0,1.285-4.787,7.889,7.889,0,0,1,.259-2.188c.418-1.485,1.181-2.222,2.25-2.2a3.447,3.447,0,0,1,3.317,2.9" fill="#c9d63b"/>
      <path id="Path_605" data-name="Path 605" d="M21.014,246.336a4.184,4.184,0,0,1,4.2-5.16,8.754,8.754,0,0,1,3.658,1.007,30.359,30.359,0,0,0,9.673,3.257,4.4,4.4,0,0,1,2.04.767,3.35,3.35,0,0,1,1.126,3.96,4.074,4.074,0,0,1-4.037,2.4c-.066-.011-.128-.042-.194-.054-1.55-.288-1.546-.287-1.813,1.356a5.317,5.317,0,0,1-.265,1.17c-.333.812-.693,1.68-1.715,1.783a2.176,2.176,0,0,1-2.187-1.475,16.567,16.567,0,0,0-1.51-2.6,6.163,6.163,0,0,0-2.464-1.968c-1.7-.8-3.308-1.774-4.947-2.69a3.041,3.041,0,0,1-1.567-1.755" fill="#c9d63b"/>
      <path id="Path_606" data-name="Path 606" d="M119.962,247.939c.152.747-.76,1.812-1.6,2.81-.705.838-1.716.568-2.613.187-6.224-2.647-12.525-5.1-18.887-7.392-2.284-.825-2.893-2.142-2.265-4.4a2.584,2.584,0,0,1,3.572-1.881c3.853,1.292,7.737,2.5,11.533,3.95a22.175,22.175,0,0,0,5.141,1.476c2.56.328,4.115,2.073,5.119,5.245" fill="#c9d63b"/>
      <path id="Path_607" data-name="Path 607" d="M153.7,42.6c-1.276.408-2.158-.182-2.137-1.549a6.3,6.3,0,0,1,1.317-3.743c1.335-1.753,1.755-3.9,2.69-5.829a3.191,3.191,0,0,0,.091-1.788,3.581,3.581,0,0,1,2.1-4.091,4.222,4.222,0,0,0,1.716-1.336,5.724,5.724,0,0,1,3.643-2.331,7.276,7.276,0,0,0,3.511-1.815c1.434-1.352,3.175-1.012,4.311.624a1.887,1.887,0,0,1-.294,2.711c-1.858,1.242-2.876,3.146-4.241,4.785a51.269,51.269,0,0,1-6.1,6.667,9.086,9.086,0,0,0-2.227,2.822,33.63,33.63,0,0,1-3.052,3.991,2.581,2.581,0,0,1-1.324.882" fill="#c9d63b"/>
      <path id="Path_608" data-name="Path 608" d="M75.439,176.966a3.3,3.3,0,0,1,3.148.286c1.4.794,2.789,1.59,4.13,2.488a37.343,37.343,0,0,0,8.206,4.221,5.359,5.359,0,0,1,3.212,3.129c.342.8.635,1.622.979,2.422a2.559,2.559,0,0,1-.645,2.946,2.4,2.4,0,0,1-2.747.651c-2.2-.744-3.976-2.22-5.889-3.426-1.815-1.144-3.687-2.187-5.5-3.326-2.154-1.351-4.271-2.762-6.39-4.169-.911-.605-1.789-1.27-1.536-2.575a2.911,2.911,0,0,1,2.531-2.507c.132-.024.259-.071.5-.14" fill="#c9d63b"/>
      <path id="Path_609" data-name="Path 609" d="M49.961,148.913a3.165,3.165,0,0,1-1.291,3.874,2.282,2.282,0,0,1-2.811.164,9.877,9.877,0,0,0-3.654-1.432c-1.7-.419-3-1.737-4.352-2.81a10.4,10.4,0,0,0-2.523-1.583,29.591,29.591,0,0,1-5.925-3.748,3.852,3.852,0,0,1-.187-5.842,2.91,2.91,0,0,1,3.392-.341,19.716,19.716,0,0,1,4.1,2.5,21.49,21.49,0,0,0,5.183,3.367c2.192.979,4.23,2.3,6.324,3.5a3.533,3.533,0,0,1,1.742,2.351" fill="#c9d63b"/>
      <path id="Path_610" data-name="Path 610" d="M114.781,103.865a2.728,2.728,0,0,1-1.958-.172,11,11,0,0,0-3.695-.9,6.527,6.527,0,0,1-2.772-1.125c-1.7-.928-3.341-2.027-5.4-2.019A1.632,1.632,0,0,1,99.9,99.12a19.03,19.03,0,0,0-5.858-3.449,5.2,5.2,0,0,1-2.447-1.7,2.859,2.859,0,0,1-.371-3.2,2.366,2.366,0,0,1,2.562-1.172,17.923,17.923,0,0,1,4.681,1.039c2.445.831,4.471,2.375,6.735,3.495,2.03,1.005,4.149,1.834,6.245,2.7a16.2,16.2,0,0,1,4.2,2.351,2.7,2.7,0,0,1-.863,4.683" fill="#c9d63b"/>
      <path id="Path_611" data-name="Path 611" d="M106.794,31.544a2.239,2.239,0,0,1-2.86-2.737,12.182,12.182,0,0,1,1.349-3.988c1.1-1.883,1.117-4.13,2.174-6.021.337-.6.033-1.321-.1-1.974a4.96,4.96,0,0,1,1.6-5.1,4.782,4.782,0,0,0,1.352-3.262,11.732,11.732,0,0,1,.788-3.1c.666-1.523,1.794-2.177,3.146-1.814a2.835,2.835,0,0,1,2,3.462c-.228,1.11-.618,2.181-.886,3.288-.477,1.963-.312,4.014-.979,5.938-.873,2.519-1.163,5.238-2.66,7.547a5.949,5.949,0,0,0-.586,1.7c-.575,2.145-2.131,3.695-3.3,5.476a1.689,1.689,0,0,1-1.032.586" fill="#c9d63b"/>
      <path id="Path_612" data-name="Path 612" d="M63.634,90.545a3.841,3.841,0,0,1,.088.893c-.132,2.021-3.507,4.451-5.463,3.947a6.9,6.9,0,0,1-2.523-1.216c-3.06-2.362-6.689-3.67-10.1-5.374a19.073,19.073,0,0,1-4.118-3.135c-.95-.851-.854-2.2-.345-3.4a1.469,1.469,0,0,1,1.4-.982c2.079.032,4.158.062,6.046,1.159,1.333.775,2.713,1.471,4.06,2.222a16.1,16.1,0,0,0,3.174,1.175,60.735,60.735,0,0,1,6.3,2.542,2.809,2.809,0,0,1,1.475,2.166" fill="#c9d63b"/>
      <path id="Path_613" data-name="Path 613" d="M30.805,189.079c-1.353.344-5.716-1.609-6.281-2.732a2.985,2.985,0,0,1-.258-1.761,27.766,27.766,0,0,0-.207-7.195,6.728,6.728,0,0,1,3.192-7.011c.915-.61,1.659-.719,2.288.188,1.409,2.031,3.557,3.417,4.706,5.675a5.085,5.085,0,0,1,.695,3.053,38.905,38.905,0,0,1-1.517,6.847,4.014,4.014,0,0,1-2.618,2.936" fill="#c9d63b"/>
      <path id="Path_614" data-name="Path 614" d="M117.069,217.97a21.3,21.3,0,0,1,5.493-1.164c2.741-.2,5.4-.988,8.161-1.1,1.816-.073,3.14,1.015,4.665,1.626a.969.969,0,0,1,.45,1.045,4.081,4.081,0,0,1-3.1,3.27,42.188,42.188,0,0,0-4.552.785,6.906,6.906,0,0,0-4.1,1.945,3.088,3.088,0,0,1-2.594.84,18.007,18.007,0,0,0-4.991.406c-1.6.394-3.035-.308-4.383-1.059a1.839,1.839,0,0,1-.909-2.081c.386-1.685,1.034-3.206,2.953-3.7.974-.251,1.937-.543,2.9-.816" fill="#c9d63b"/>
      <path id="Path_615" data-name="Path 615" d="M54.667,194.028a6.671,6.671,0,0,1-.3-1.637c.243-2.261,1.273-3.821,4.032-2.821a25.289,25.289,0,0,1,4.01,1.852c3.2,1.849,6.694,3.087,9.937,4.844a7.966,7.966,0,0,0,1.893.651,4.251,4.251,0,0,1,2.5,1.907,2.249,2.249,0,0,1-.077,2.965c-.97,1.366-2.058,2.01-3.194,1.475-3.1-1.463-6.629-1.726-9.618-3.509a12.3,12.3,0,0,0-4.031-1.208,6.949,6.949,0,0,1-5.151-4.519" fill="#c9d63b"/>
      <path id="Path_616" data-name="Path 616" d="M121.693,69.936a1.868,1.868,0,0,1,.066,1.662,11.546,11.546,0,0,0-1.413,4.157,2.167,2.167,0,0,1-.741,1.178c-1.038.991-2.371.994-3.081-.23-1.87-3.226-4.681-5.473-7.53-7.729-1.836-1.454-3.379-3.241-5.333-4.589-1.464-1.01-1.656-2.241-.934-3.49.75-1.3,1.8-1.63,3.47-1.06a13.256,13.256,0,0,1,4.25,2.152,14.412,14.412,0,0,0,4.739,2.109c3.141,1,5.049,3.4,6.507,5.84" fill="#c9d63b"/>
      <path id="Path_617" data-name="Path 617" d="M90.376,262.354a5.235,5.235,0,0,1,4.246.621c1.72,1.057,3.592,1.784,5.392,2.666a11.674,11.674,0,0,0,4.258,1.042,4.228,4.228,0,0,1,3.451,5.62,2.982,2.982,0,0,1-2.091,2.014c-2.3.477-4.525.693-6.835-.432-2.943-1.434-5.735-3.176-8.813-4.341-2-.758-2.636-1.742-2.505-3.583a3.513,3.513,0,0,1,2.9-3.607" fill="#c9d63b"/>
      <path id="Path_618" data-name="Path 618" d="M129.249,114.082a7.585,7.585,0,0,1,4.913.954c2.9,1.533,5.853,2.961,8.654,4.685,1.475.908,3.126,1.485,4.008,3.181a2.149,2.149,0,0,1,.13,2.423,9.514,9.514,0,0,0-.854,2.246c-.957,2.8-3.392,3.3-5.4,1.125a6.1,6.1,0,0,1-.763-.933c-1.573-2.59-4.03-4-6.693-5.207a33.865,33.865,0,0,1-4.552-2.569,3.744,3.744,0,0,1-.713-5.052,2.125,2.125,0,0,1,1.265-.853" fill="#c9d63b"/>
      <path id="Path_619" data-name="Path 619" d="M171.761.249A4.807,4.807,0,0,1,174.87.27a41.481,41.481,0,0,1,5.991,2.815,31.088,31.088,0,0,0,9.363,2.767A5.665,5.665,0,0,1,193.632,7.8a3.407,3.407,0,0,1-1.546,5.307,2.724,2.724,0,0,1-1.18-.113c-1.315-.157-2.621-.6-3.961-.107-.617.228-1.009-.2-1.376-.6a10.731,10.731,0,0,0-4.6-2.765,10.723,10.723,0,0,1-3.4-1.686,1.434,1.434,0,0,0-.683-.4c-1.955-.095-3.474-1.338-5.232-1.939-1.463-.5-2.3-1.328-2.341-2.379a3.212,3.212,0,0,1,2.224-2.8,1.5,1.5,0,0,1,.225-.065" fill="#c9d63b"/>
      <path id="Path_620" data-name="Path 620" d="M163.615,50.174a3.022,3.022,0,0,1,.047,1.594c-.544,1.784-.7,3.67-1.69,5.343a9.334,9.334,0,0,0-1.354,3.966,2.556,2.556,0,0,1-.517,1.5,13.329,13.329,0,0,0-2.48,4.994,6.135,6.135,0,0,1-2.493,3.324,1.875,1.875,0,0,1-3.07-1.9,24.867,24.867,0,0,1,.778-3.326,8.536,8.536,0,0,0,.275-4.354,18.854,18.854,0,0,1,.267-5.8,4.5,4.5,0,0,1,2.824-3.882,3.519,3.519,0,0,0,2.222-2.1c.5-1.184,1.147-1.395,2.444-1.233,1.833.228,2.426.632,2.747,1.876" fill="#c9d63b"/>
      <path id="Path_621" data-name="Path 621" d="M174.59,120.06a3,3,0,0,1-2.222-.034c-4.867-2.153-10.031-3.394-15.112-4.888a8.959,8.959,0,0,1-1.877-.705,2.316,2.316,0,0,1-1.248-2.523,2.224,2.224,0,0,1,1.689-2.027,4.244,4.244,0,0,1,.977-.227,13.138,13.138,0,0,0,5.679-1,19.678,19.678,0,0,1,8.883,2.764,1.928,1.928,0,0,1,.6.795,5.172,5.172,0,0,0,3.2,2.857,2.745,2.745,0,0,1,1.66,1.39c.756,1.5-.122,2.982-2.224,3.6" fill="#c9d63b"/>
      <path id="Path_622" data-name="Path 622" d="M102.766,157.7c-.6-.932-.14-2.094.506-3.111a9.641,9.641,0,0,1,2.036-2.2c1.04-.854,3.5-.041,4.126,1.3a3.514,3.514,0,0,1,.408,1.948c-.348,2.461.165,4.955-.347,7.41a15.49,15.49,0,0,0,.21,4.2,6.2,6.2,0,0,1,.158,1.589,19.339,19.339,0,0,0-.58,5.936,1.719,1.719,0,0,1-.257.751c-.627,1.4-1.894,2.41-2.848,2.148a2.728,2.728,0,0,1-1.853-2.628c-.361-3.323-.924-6.621-1.145-9.963a14.645,14.645,0,0,1,.118-5.168,2.769,2.769,0,0,0-.532-2.215" fill="#c9d63b"/>
      <path id="Path_623" data-name="Path 623" d="M198.348,41.959a1.843,1.843,0,0,1-.712,2.189,2.4,2.4,0,0,1-2.963.386,17.409,17.409,0,0,1-2.359-1.866,5.792,5.792,0,0,0-2.177-1.4,5.173,5.173,0,0,1-2.777-2.212,54.919,54.919,0,0,0-6.018-7.28,8.176,8.176,0,0,1-1.668-2.5,2.927,2.927,0,0,1,.753-3.478,1.738,1.738,0,0,1,1.674-.456c1.528.5,3.119.9,4.2,2.228,3.229,3.941,7.022,7.376,10.185,11.377a18.092,18.092,0,0,1,1.859,3.013" fill="#c9d63b"/>
      <path id="Path_624" data-name="Path 624" d="M170.555,91.328c-2.354.052-4.849.344-7.28-.33-1.728-.479-2-1.272-1.612-3.038s1.658-3.049,2.4-4.618a1.175,1.175,0,0,1,1.358-.665c1.606.45,3.191.027,4.784.04a32.967,32.967,0,0,0,8.989-.707,3.7,3.7,0,0,1,3.854,1.153,1.716,1.716,0,0,1,.151,2.523,4.022,4.022,0,0,1-2.443,1.665c-2.5.561-4.738,1.892-7.238,2.439-1.086.237-1.81,1.143-2.959,1.538" fill="#c9d63b"/>
      <path id="Path_625" data-name="Path 625" d="M87.868,230.066a2.418,2.418,0,0,1-2.235-.238,78.828,78.828,0,0,1-10.177-6.106c-1.071-.829-2.27-1.429-3.4-2.147a3.571,3.571,0,0,1-1.7-4.483,2.618,2.618,0,0,1,3.778-1.792,11.873,11.873,0,0,1,1.732,1.02c2.974,1.944,5.935,3.908,8.913,5.846a5.524,5.524,0,0,0,3.648.893,2.528,2.528,0,0,1,2.856,1.387,3.158,3.158,0,0,1-.409,3.577,5.831,5.831,0,0,1-3.005,2.043" fill="#c9d63b"/>
      <path id="Path_626" data-name="Path 626" d="M69.366,143.84a2.557,2.557,0,0,1-.836-.01c-1.9-.562-3.995-.484-5.629-1.93a9.515,9.515,0,0,0-2.317-1.18c-2.973-1.4-5.73-3.182-8.583-4.793a3.136,3.136,0,0,1-1.414-4.433A2.252,2.252,0,0,1,53.149,130a14.3,14.3,0,0,0,3.2.135,2.723,2.723,0,0,1,2.024.727,47.53,47.53,0,0,0,8.06,5.258,10.839,10.839,0,0,1,4.5,4.7,2.1,2.1,0,0,1-1.564,3.018" fill="#c9d63b"/>
      <path id="Path_627" data-name="Path 627" d="M170.274,179.348a4.828,4.828,0,0,1-.1,2.194,28.065,28.065,0,0,0-.829,6.172,2.681,2.681,0,0,0-.033.6c.693,2.517.006,5.069.2,7.6.143,1.864-.494,3.7-.473,5.589a3.575,3.575,0,0,1-.692,1.647c-.526.882-1.165,1.74-2.35,1.584a3.057,3.057,0,0,1-2.375-1.968,4.124,4.124,0,0,1-.3-1.972c.125-2.4.326-4.8.351-7.209.035-3.359.431-6.687.7-10.026a15.533,15.533,0,0,1,.984-4.512,2.255,2.255,0,0,1,2.308-1.6,3.05,3.05,0,0,1,2.618,1.893" fill="#c9d63b"/>
      <path id="Path_628" data-name="Path 628" d="M150.773,203.488a4.419,4.419,0,0,1-1.5,4.674,2.7,2.7,0,0,1-2.256.578,14.476,14.476,0,0,1-2.737-.622c-3.1-1.289-6.39-1.965-9.57-2.994-.953-.308-1.949-.48-2.9-.793-1.657-.541-2.416-1.464-2.273-2.649a3.312,3.312,0,0,1,3.2-3.015,20.582,20.582,0,0,0,3.768-.365,9.868,9.868,0,0,1,4.683.913,76.191,76.191,0,0,0,7.453,2.362,2.723,2.723,0,0,1,2.135,1.911" fill="#c9d63b"/>
      <path id="Path_629" data-name="Path 629" d="M149.5,169.449a4.487,4.487,0,0,1-3.308-.435c-4.787-1.937-9.212-4.645-14.01-6.559a3.023,3.023,0,0,1-1.935-1.911c-.716-2.279,1.008-4.26,3.524-3.958a11.771,11.771,0,0,1,2.337.589,19.923,19.923,0,0,0,4.875,1.152,3.533,3.533,0,0,1,2.659,1.627,10.178,10.178,0,0,0,4.135,3.427A12.047,12.047,0,0,1,151,166.036c1.211,1.175.734,2.556-.741,3.151-.248.1-.506.175-.76.262" fill="#c9d63b"/>
      <path id="Path_630" data-name="Path 630" d="M87.688,155a10.009,10.009,0,0,1-.792-4.9.768.768,0,0,0-.011-.4c-1.072-2.667-.179-5.426-.389-8.131a3.872,3.872,0,0,1,1.713-3.632,2.531,2.531,0,0,1,4.025.989,4.237,4.237,0,0,1,.407,1.13c.656,3.613,1.55,7.2,1.167,10.927a19.991,19.991,0,0,0,.009,5.4,2.669,2.669,0,0,1-.6,2.257c-1.652,1.94-3.757,1.624-4.7-.754A29.654,29.654,0,0,1,87.688,155" fill="#c9d63b"/>
      <path id="Path_631" data-name="Path 631" d="M83.224,50.264a8,8,0,0,1,1.293-6.99,4.407,4.407,0,0,0,1.178-2.5c.039-1.038.9-1.457,1.562-1.976a11.163,11.163,0,0,1,6.749-2.752A3.445,3.445,0,0,1,96.92,37.55a1.775,1.775,0,0,1,.294,2.064c-1.251,2.188-2.271,4.443-4.239,6.268a52.729,52.729,0,0,0-4.8,4.816c-.173.207-.315.438-.491.638a2.862,2.862,0,0,1-2.615,1.218c-.846-.124-1.448-.892-1.843-2.29" fill="#c9d63b"/>
      <path id="Path_632" data-name="Path 632" d="M19.619,157.189c-2.084.85-3.972-.111-5.868-.691-3.451-1.054-6.782-2.507-10.389-3.034a4.076,4.076,0,0,1-1.315-.479c-1.067-.579-2.2-1.148-2.031-2.668a4.078,4.078,0,0,1,2.837-3.078,4.5,4.5,0,0,1,2.587.09c2.74,1.147,5.736,1.375,8.487,2.45a12.078,12.078,0,0,0,6.043,1.132,2.482,2.482,0,0,1,2.621,2.044,3.638,3.638,0,0,1-1.465,3.683,11.87,11.87,0,0,1-1.507.551" fill="#c9d63b"/>
      <path id="Path_633" data-name="Path 633" d="M145.543,78.212a3.317,3.317,0,0,1-.11,2.174,15.353,15.353,0,0,0-.776,3.122,13.867,13.867,0,0,1-3.384,6.954,34.359,34.359,0,0,0-3.978,6.04,9.2,9.2,0,0,1-1.842,2.625,2.168,2.168,0,0,1-2.557.6,2.314,2.314,0,0,1-1.313-2.485,13.4,13.4,0,0,1,2.187-5.786,95.9,95.9,0,0,0,6.883-12.967c.808-1.974,2.464-2.438,4.228-1.252a1.668,1.668,0,0,1,.662.976" fill="#c9d63b"/>
      <path id="Path_634" data-name="Path 634" d="M72.778,55.194a4.339,4.339,0,0,1-2.808,5.158,2.423,2.423,0,0,1-2.236-.612,9.129,9.129,0,0,1-2.5-3.362A50.965,50.965,0,0,0,60.3,47.419a5.754,5.754,0,0,1-1.162-3.976c.155-1.575.766-2.513,2.071-2.9a2.74,2.74,0,0,1,2.99,1.183,19.978,19.978,0,0,1,2.606,3.8,21.869,21.869,0,0,0,3.93,6.038,13.039,13.039,0,0,1,2.046,3.631" fill="#c9d63b"/>
      <path id="Path_635" data-name="Path 635" d="M34.644,210.5a5.608,5.608,0,0,1-.121-3.357c.766-2.51,1.919-3.439,4.541-3.288a36.239,36.239,0,0,1,4.379.594,13.917,13.917,0,0,0,5.188.258,5.044,5.044,0,0,1,4.1,1.269c1.383,1.069,1.416,2.329.2,3.611a6.852,6.852,0,0,1-2.878,1.344,6.051,6.051,0,0,1-4.043.355c-1.611-.447-3.286.341-4.894.789-.967.269-1.9.663-2.868.927-2.011.548-2.794.094-3.445-1.922-.062-.191-.11-.386-.165-.58" fill="#c9d63b"/>
      <path id="Path_636" data-name="Path 636" d="M128.218,18.149a6.1,6.1,0,0,1,2.241-.132c.33.033.651.2.979.211,4.947.157,9.668,2.066,14.657,1.891.067,0,.134,0,.2,0,1.353.079,2.746,1.106,2.861,2.108.117,1.029-1.433,3.084-2.531,3.3a5.273,5.273,0,0,1-2.4-.053,14.486,14.486,0,0,0-5.974-.176,9.387,9.387,0,0,1-3.584-.168c-2.467-.58-4.943-1.131-7.4-1.759-.89-.228-1.955-.474-1.948-1.691a2.831,2.831,0,0,1,1.661-2.954c.433-.178.849-.4,1.232-.578" fill="#c9d63b"/>
      <path id="Path_637" data-name="Path 637" d="M68.4,158.4a2.135,2.135,0,0,1,2.679.656c.085.1.19.189.283.286.563.6,1.669.88,1.406,1.99a3.884,3.884,0,0,1-2.033,2.615c-1.36.719-2.728,1.426-4.084,2.151a13.836,13.836,0,0,0-3.128,2.162,27.45,27.45,0,0,1-6.225,4.318c-1.806.958-3.155.932-4.146-.314-.875-1.1-.536-3.477.756-4.561.918-.77,1.98-1.365,2.945-2.083a65.542,65.542,0,0,1,8.966-6.064A13.161,13.161,0,0,1,68.4,158.4" fill="#c9d63b"/>
      <path id="Path_638" data-name="Path 638" d="M171.732,160.414c.126,1.714.318,3.728-1.4,5.292a6.62,6.62,0,0,0-1.585,2.762c-.515,1.381-1.058,2.752-1.59,4.127a4.454,4.454,0,0,1-2.1,2.348c-1.635.894-2.862.448-3.452-1.341a5.41,5.41,0,0,1,.294-4.305,37.434,37.434,0,0,0,2.368-7.044,5.842,5.842,0,0,0,.1-2.592,5.978,5.978,0,0,1,.679-3.7,2.724,2.724,0,0,1,2.594-1.588,2.453,2.453,0,0,1,2.323,1.644c.6,1.344,1.1,2.731,1.765,4.394" fill="#c9d63b"/>
      <path id="Path_639" data-name="Path 639" d="M84.847,64.977c1.59-.836,3.162-.289,4.634,1.072a2.251,2.251,0,0,1,.613,3.163,5.035,5.035,0,0,1-2.022,1.9c-3.259,1.806-6.642,3.381-9.835,5.313-1.14.689-2.411,1.157-3.61,1.75a1.739,1.739,0,0,1-2.195-.328,2.02,2.02,0,0,1-.689-2.333A5.349,5.349,0,0,1,73.715,72.8a60.027,60.027,0,0,0,6.826-5.589c1.661-1.474,1.746-1.534,4.306-2.235" fill="#c9d63b"/>
      <path id="Path_640" data-name="Path 640" d="M166.8,131.109c-.123,1.558.35,3.394-.979,5.09-1.234,1.574-2.205,3.315-3.978,4.439-.969.614-1.328,1.826-1.846,2.829a6.051,6.051,0,0,1-3,2.833c-1.77.788-3.115-.061-3.1-2.008a6.115,6.115,0,0,1,1-3.594,29.815,29.815,0,0,0,3.527-7.391,3.138,3.138,0,0,1,1.073-1.648,10.9,10.9,0,0,0,1.977-1.985,2.684,2.684,0,0,1,2.768-1.227,3.521,3.521,0,0,1,2.567,2.662" fill="#c9d63b"/>
      <path id="Path_641" data-name="Path 641" d="M179.79,65.775a11.277,11.277,0,0,0-4.551,1.194,1.447,1.447,0,0,1-1.8-.5,2.21,2.21,0,0,1-.493-2.435c.7-1.34,1.316-2.835,2.964-3.371A7.662,7.662,0,0,0,177.83,59.6a19.607,19.607,0,0,1,4.718-2.639A10.127,10.127,0,0,0,185.8,55c1.818-1.54,3.914-1.035,4.976,1.088.15.3.266.616.4.922.991,2.2.521,3.372-1.844,4.041a23.421,23.421,0,0,0-5.005,2.067,11.476,11.476,0,0,0-2.507,1.666,3.823,3.823,0,0,1-2.035.989" fill="#c9d63b"/>
      <path id="Path_642" data-name="Path 642" d="M132.034,135.94a2.411,2.411,0,0,1,.017.718c-.611,2.441-.567,5.081-2.159,7.226a5.146,5.146,0,0,0-.872,1.8c-.564,2.213-2.063,3.893-3.284,5.718a2.141,2.141,0,0,1-2.763,1.015,2.29,2.29,0,0,1-1.244-2.692,16.2,16.2,0,0,1,.592-2.12c.607-2.38,1.414-4.737,1.12-7.262a2.754,2.754,0,0,1,.245-1.766c.722-1.205,1.435-2.422,2.249-3.564a3.848,3.848,0,0,1,4.339-1.219,2.89,2.89,0,0,1,1.76,2.149" fill="#c9d63b"/>
      <path id="Path_643" data-name="Path 643" d="M85.549,103.047a6.6,6.6,0,0,1-.175,3.47c-.343,1.642-1.26,3.117-1.384,4.826a1.183,1.183,0,0,1-.341.713c-1.469,1.361-2.184,3.2-3.172,4.872a7.717,7.717,0,0,1-2.389,2.419A1.646,1.646,0,0,1,75.364,118a10.876,10.876,0,0,1,.435-3.783,6.709,6.709,0,0,0,.43-1.958c0-3.181,1.693-5.736,3.13-8.366a9.491,9.491,0,0,1,2.671-2.713c1.471-1.147,2.9-.379,3.519,1.865" fill="#c9d63b"/>
      <path id="Path_644" data-name="Path 644" d="M102.813,213.505a3.747,3.747,0,0,1-3.1-.78,2.6,2.6,0,0,1-.552-2.984,10.292,10.292,0,0,1,2.006-3.421c1.88-2.163,3.837-4.325,4.876-7.085a10.1,10.1,0,0,1,2.253-3.058,1.434,1.434,0,0,1,1.651-.37,3.233,3.233,0,0,1,2.345,4.389,8.941,8.941,0,0,1-2.808,4.569,12.233,12.233,0,0,0-2.93,3.781q-.967,1.767-1.984,3.5a2.976,2.976,0,0,1-1.758,1.454" fill="#c9d63b"/>
      <path id="Path_645" data-name="Path 645" d="M37.887,125.121a2.134,2.134,0,0,1-2.909-2.409,3.862,3.862,0,0,1,.953-2.169,18.131,18.131,0,0,0,3.558-6.245c.109-.316.138-.73.357-.927,1.511-1.354,2.172-3.185,2.939-4.972a4.759,4.759,0,0,1,.97-1.268,1.3,1.3,0,0,1,1.091-.419c1.623.153,3.43,3.075,2.791,4.568a21.04,21.04,0,0,1-1.046,1.951,4.96,4.96,0,0,0-.842,2.243c-.064,2.474-1.591,4.04-3.338,5.455a15.288,15.288,0,0,0-2.646,2.741,3.8,3.8,0,0,1-1.878,1.451" fill="#c9d63b"/>
      <path id="Path_646" data-name="Path 646" d="M57.148,226.793a2.282,2.282,0,0,1-.573,2.376c-1.289,1.223-1.822,3.177-3.7,3.826-.767,1.7-2.272,2.756-3.554,3.99a3.85,3.85,0,0,1-6.2-1.259c-.522-1.175-.506-1.908.5-2.691a38.322,38.322,0,0,0,7.013-7.666,3.428,3.428,0,0,1,3.746-1.247c1.536.281,2.228,1.344,2.768,2.671" fill="#c9d63b"/>
      <path id="Path_647" data-name="Path 647" d="M110.551,120.119a9.359,9.359,0,0,1-.355,5.045c-.837,1.975-1.982,3.786-2.8,5.766a6.916,6.916,0,0,1-1.794,2.391,2.687,2.687,0,0,1-3,.457,2.21,2.21,0,0,1-1.309-2.466,5.292,5.292,0,0,1,.38-1.955c1.241-2.56,1.68-5.342,2.365-8.056a15.2,15.2,0,0,1,.53-1.725,2.983,2.983,0,0,1,3.167-2.24c1.353.075,2.254.906,2.814,2.783" fill="#c9d63b"/>
    </g>
  </g>
</svg>
