<?xml version="1.0" encoding="utf-8"?>
<!-- Generator: Adobe Illustrator 25.4.1, SVG Export Plug-In . SVG Version: 6.00 Build 0)  -->
<svg version="1.1" id="Calque_1" xmlns="http://www.w3.org/2000/svg" xmlns:xlink="http://www.w3.org/1999/xlink" x="0px" y="0px"
	 viewBox="0 0 454.3 175.8" style="enable-background:new 0 0 454.3 175.8;" xml:space="preserve">
<style type="text/css">
	.st0{clip-path:url(#SVGID_00000165912829068861818330000008316434587604322479_);}
	.st1{fill:#39741F;}
	.st2{fill:#007FC3;}
</style>
<g id="Groupe_239" transform="translate(1409.469 749.489)">
	<g id="Groupe_238" transform="translate(-723)">
		<g id="Groupe_237" transform="translate(-561.626 -811)">
			<g>
				<defs>
					<rect id="SVGID_1_" x="-116.8" y="66.5" width="454.3" height="175.8"/>
				</defs>
				<clipPath id="SVGID_00000042710432190881901610000018444321643723498406_">
					<use xlink:href="#SVGID_1_"  style="overflow:visible;"/>
				</clipPath>
				<g id="Groupe_84" style="clip-path:url(#SVGID_00000042710432190881901610000018444321643723498406_);">
					<path id="Tracé_466" class="st1" d="M-116.8,173.8c-0.1,0-0.1-0.1,0.1-0.3c0.6-0.5,2.3-1.3,2.9-1.7c1.2-0.7,2.3-1.4,3.4-2.2
						c2.4-1.6,4.8-3.2,7.2-4.8c5.4-3.6,10.6-7.4,15.6-11.4c11.8-9.1,22.3-19.7,31.2-31.6c2.5-3.5,4.9-7,7.1-10.7
						c1.1-1.9,2.2-3.8,3.2-5.7c0.9-1.9,1.9-3.7,3.2-5.4c0.4-0.5,2,1,2.3,5.1c0.1,0.9,0.1,1.8-0.1,2.7c-0.4,1.7-0.9,3.3-1.7,4.9
						c-2,3.9-4.4,7.6-7.3,10.9c-7.2,8.6-15.9,16.1-24.8,23.2c-8.7,7-17.8,13.4-27.2,19.4C-106.2,168.9-111.3,172.3-116.8,173.8"/>
					<path id="Tracé_467" class="st2" d="M-13.8,121.5c1.1-1.4,0-5.8-0.4-6.8c-1.3-5.3-4.2-10.1-8.3-13.8c-2.3-2.2-5.2-4.5-8.3-5.4
						c-4.9-1.4-7.9,0.8-8.2,1.8c-0.3,1.1-0.4,3,2.6,5.2c1.9,1.4,7.1,3.9,8.7,5.6c3.9,4.3,4.5,6.9,8.6,11.8
						C-17.6,121.5-15.7,123.8-13.8,121.5"/>
					<path id="Tracé_468" class="st2" d="M-12,67.2c1.4,2.4-1.4,5.6-2.7,7.3c-3.7,4.4-8.3,8-12.8,11.6c-1.9,1.6-4,3-6.2,4.2
						c-1.3,0.6-2.7,1-4,1.3c-1.5-1.1,1.2-4.1,2.2-5.2c2.4-2.6,4.5-5.3,6.4-8.2C-23.8,69.9-13.5,64.5-12,67.2"/>
					<path id="Tracé_469" class="st2" d="M-64.2,103.9c7.8,0.7,18.1-1,20.3-9.8c0.9-3.8-8.6-1.1-10.3-0.9c-5,0.8-10,1.9-15,2.7
						c-3,0.5-6.5,0.6-9.6,1.8c-0.5,0.2-0.5,0.4-0.6,0.6C-79.4,103.5-68.4,103.5-64.2,103.9"/>
					<path id="Tracé_470" class="st2" d="M-49,69.8c4.2-1.7,7.1-0.1,7.3,4.5c0,2.1-0.2,4.2-0.6,6.2c-0.2,3-0.2,6,0.1,9
						c-1.6-0.3-3.4-2.6-4.5-3.7c-1.6-1.8-3-3.8-4.1-5.9C-52.7,76.2-53.4,71.5-49,69.8"/>
					<path id="Tracé_471" class="st1" d="M-52.2,156.9c4-4.2,8.2-6.3,12.4-6.3c1.3-0.1,2.7,0.3,3.8,1.1c1,0.8,1.5,2,1.4,3.2
						c0,2.9-1.7,5.4-5.1,7.5c-3.3,2-7,3.3-10.8,3.8l-1.7,0.2c-0.2,0.7-0.4,1.3-0.5,2c-0.1,0.6-0.2,1.2-0.2,1.9
						c-0.1,1.6,0.6,3.1,1.7,4.2c1.2,1,2.6,1.5,4.1,1.5c1.7-0.1,3.4-0.6,4.8-1.5c1.5-1,2.9-2,4.2-3.1l0.8,0.7
						c-1.1,1.4-2.5,2.5-3.9,3.5c-2.6,2-5.8,3.2-9.1,3.2c-2.1,0-4.1-0.8-5.7-2.3c-1.7-1.7-2.6-4.1-2.4-6.5
						C-58.2,165.5-56.2,161.1-52.2,156.9 M-42.3,161c2.4-2.2,3.6-4.3,3.6-6.4c0-0.7-0.2-1.3-0.5-1.8c-0.4-0.5-1-0.7-1.6-0.7
						c-1.5,0.1-2.8,0.7-3.9,1.7c-1.3,1.1-2.4,2.4-3.4,3.8c-1,1.5-1.8,3.1-2.6,4.8c-0.3,0.8-0.7,1.7-1.1,2.8
						C-48.3,164.7-45,163.3-42.3,161 M-30.8,140.1c-0.2,0.3-0.5,0.5-0.8,0.7l-10.6,6.6h-2.2l10.1-9.9c0.2-0.2,0.5-0.4,0.7-0.5
						c0.3-0.1,0.6-0.2,0.9-0.2c0.6,0,1.1,0.2,1.5,0.6c0.4,0.4,0.7,1,0.7,1.6C-30.5,139.5-30.6,139.8-30.8,140.1"/>
					<path id="Tracé_472" class="st1" d="M-20.9,141.2c0.1-0.3,0.1-0.5,0.2-0.8c0-0.3,0-0.5,0-0.6c0.1-0.6-0.3-1.1-0.8-1.3
						c-1.1-0.2-2.2-0.3-3.3-0.2v-1l3.2-0.4c1.2-0.2,2-0.3,2.3-0.3c1.1-0.2,2.5-0.5,4.2-0.9c0.1,0,0.3,0.1,0.4,0.3l-10.1,36.5
						c-0.2,0.9-0.3,1.4-0.4,1.6c0,0.2-0.1,0.4-0.1,0.5c0,0.3,0.1,0.7,0.2,1c0.2,0.3,0.5,0.4,0.8,0.4c0.7,0,1.7-0.6,2.9-1.9
						c1.1-1.2,2.1-2.4,3-3.8l0.8,0.6c-1.2,1.9-2.6,3.7-4.1,5.4c-1.3,1.5-3.1,2.4-5.1,2.5c-0.7,0-1.4-0.2-1.9-0.6
						c-0.9-0.6-1.4-1.7-1.3-2.8c0-0.7,0.1-1.4,0.2-2c0.1-0.5,0.3-1.1,0.5-1.8L-20.9,141.2z"/>
					<path id="Tracé_473" class="st1" d="M7.5,151.7c0.5,0.5,0.9,1.1,1.1,1.8l0.2,0.4l0.7-2.3c0.1-0.2,0.1-0.4,0.2-0.5
						c0.1-0.1,0.3-0.2,0.4-0.2l3.5-0.4c0.2,0,0.3,0,0.3,0.1c0,0.1,0,0.3,0,0.4c-0.1,0.3-0.2,0.5-0.2,0.6c0,0.2-0.1,0.4-0.2,0.7
						l-3,10.9c-0.6,2.4-1.2,4.4-1.7,6.1c-0.5,1.8-0.9,3.5-1.1,5.3c0,0.2,0.1,0.5,0.2,0.6c0.2,0.1,0.4,0.2,0.6,0.2
						c0.2,0,0.4-0.1,0.6-0.2c0.3-0.2,0.6-0.3,0.8-0.5l0.5-0.4c0.2-0.1,0.4-0.3,0.6-0.5s0.5-0.4,0.8-0.7l2-1.9l0.7,0.6
						c-1.5,2-3.3,3.9-5.2,5.5c-1.1,0.9-2.4,1.4-3.7,1.4c-0.7,0-1.3-0.3-1.8-0.8c-0.4-0.6-0.7-1.3-0.6-2c0-1.1,0.2-2.1,0.4-3.1
						c0.3-1.4,0.5-2.5,0.8-3.4c-0.4,0.6-1,1.5-1.8,2.7c-0.9,1.2-2,2.4-3.2,3.4c-1.2,1.2-2.7,2.1-4.2,2.8c-1,0.4-2,0.5-3,0.6
						c-1.7,0-3.3-0.8-4.5-2c-1.4-1.6-2.1-3.6-2-5.7c0-4.3,1.9-8.7,5.8-13.3c4-4.8,8.1-7.2,12.3-7.2C5.1,150.4,6.5,150.8,7.5,151.7
						 M6.5,152.9c-0.6-0.7-1.5-1-2.5-1c-3.3,0-6.4,2.5-9.3,7.6C-7.7,163.9-9,167.8-9,171c-0.1,1.3,0.3,2.5,1,3.5
						c0.7,0.7,1.6,1.1,2.6,1.1c3,0,6-2.5,8.8-7.4c2.7-4.5,4.1-8.5,4.1-12.1C7.6,154.9,7.3,153.8,6.5,152.9"/>
					<path id="Tracé_474" class="st1" d="M16.9,178.1l5.2-18.8c0.4-1.6,0.7-2.6,0.8-2.9c0.1-0.4,0.1-0.7,0.1-1.1
						c0-0.5-0.2-1-0.5-1.4c-0.6-0.4-1.3-0.6-2-0.5c-0.2,0-0.5,0-0.7,0c-0.2,0-0.5,0.1-0.8,0.1v-1c1.3-0.2,2.2-0.4,2.8-0.5
						c0.6-0.1,1.2-0.2,1.8-0.4l5.4-1.2c0.1,0.1,0.2,0.2,0.2,0.3l-4,13.1c1.9-3,3.9-5.8,6.2-8.5c2.9-3.3,5.5-4.9,7.9-4.9
						c0.8,0,1.6,0.2,2.3,0.5c1.3,0.7,2,2.2,1.9,3.6c0,0.5-0.1,1-0.2,1.5c-0.1,0.5-0.2,1.1-0.4,1.7l-4,14.6c-0.1,0.3-0.2,0.7-0.3,1.1
						c-0.1,0.3-0.1,0.6-0.2,0.9c0,0.3,0.1,0.6,0.2,0.8c0.1,0.2,0.4,0.4,0.7,0.4c0.7-0.1,1.3-0.4,1.7-0.9c1.2-1.2,2.3-2.6,3.2-4
						l0.9,0.8c-1.2,1.7-2.5,3.3-3.9,4.7c-1.6,1.6-3.2,2.4-4.7,2.4c-0.7,0-1.4-0.3-1.9-0.7c-0.7-0.6-1.1-1.5-0.9-2.5
						c0-0.4,0-0.7,0.1-1.1c0-0.3,0.1-0.7,0.2-1l3.9-14.8c0.2-0.7,0.3-1.3,0.4-2c0.1-0.4,0.1-0.7,0.1-1.1c0-0.4-0.1-0.9-0.4-1.3
						c-0.3-0.4-0.8-0.6-1.2-0.5c-1.5,0-3.5,1.4-5.8,4.1c-1.5,1.9-2.9,3.8-4.2,5.9c-1,1.6-1.9,3.4-2.5,5.1c-0.6,1.7-1.6,4.7-2.9,9.1
						L16.9,178.1z"/>
					<path id="Tracé_475" class="st1" d="M68.7,130.1h1.5v10.3H74v1.3h-5.3V130.1z"/>
					<path id="Tracé_476" class="st1" d="M80,130.1l3.8,11.6h-1.5l-0.9-3h-4.4l-0.9,3h-1.5l3.9-11.6H80z M80.9,137.4l-1.8-5.8h0
						l-1.8,5.8L80.9,137.4z"/>
					<path id="Tracé_477" class="st1" d="M89.5,130.1h5.2v1.3H91v3.7h3.5v1.3H91v5.4h-1.5V130.1z"/>
					<path id="Tracé_478" class="st1" d="M100.7,130c2.6,0,4.2,2.2,4.2,5.8c0,4-1.6,6-4.4,6c-2.6,0-4.2-2.2-4.2-5.8
						C96.3,132,97.9,130,100.7,130 M100.5,140.6c1.5,0,2.8-1.3,2.8-4.8c0-2.3-0.7-4.6-2.7-4.6c-1.5,0-2.8,1.3-2.8,4.8
						C97.8,138.3,98.6,140.6,100.5,140.6"/>
					<path id="Tracé_479" class="st1" d="M107.1,130.1h1.8l4.4,9.6h0v-9.6h1.4v11.6h-1.8l-4.4-9.5h0v9.5h-1.4L107.1,130.1z"/>
					<path id="Tracé_480" class="st1" d="M117.3,130.1h2.5c1.1-0.1,2.2,0.2,3.1,0.8c1.5,1.1,2.3,2.9,2.1,4.8c0,3.4-1.6,6-6,6h-1.8
						V130.1z M118.8,140.4h0.9c2.6,0,3.9-1.7,3.9-4.7c0-2.4-1-4.4-3.9-4.4h-0.9V140.4z"/>
					<path id="Tracé_481" class="st1" d="M131.3,130.1l3.8,11.6h-1.5l-0.9-3h-4.4l-0.9,3h-1.5l3.9-11.6H131.3z M132.2,137.4
						l-1.8-5.8h0l-1.8,5.8H132.2z"/>
					<path id="Tracé_482" class="st1" d="M137.6,131.3h-2.7v-1.3h6.8v1.3H139v10.4h-1.5V131.3z"/>
					<rect id="Rectangle_46" x="143.4" y="130.1" class="st1" width="1.5" height="11.6"/>
					<path id="Tracé_483" class="st1" d="M151.5,130c2.6,0,4.2,2.2,4.2,5.8c0,4-1.6,6-4.4,6c-2.6,0-4.2-2.2-4.2-5.8
						C147.1,132,148.8,130,151.5,130 M151.4,140.6c1.5,0,2.8-1.3,2.8-4.8c0-2.3-0.7-4.6-2.7-4.6c-1.5,0-2.8,1.3-2.8,4.8
						C148.7,138.3,149.4,140.6,151.4,140.6"/>
					<path id="Tracé_484" class="st1" d="M158,130.1h1.8l4.4,9.6h0v-9.6h1.4v11.6h-1.8l-4.4-9.5h0v9.5H158L158,130.1z"/>
					<path id="Tracé_485" class="st1" d="M68.5,148.6h2.5c1.1-0.1,2.2,0.2,3.1,0.8c1.5,1.1,2.3,2.9,2.1,4.8c0,3.4-1.6,6-6,6h-1.8
						V148.6z M70,158.9h0.9c2.6,0,3.9-1.7,3.9-4.7c0-2.4-1-4.4-3.9-4.4H70V158.9z"/>
					<path id="Tracé_486" class="st1" d="M78.4,148.6h5.4v1.3h-3.9v3.7h3.8v1.3h-3.8v4.1h4.2v1.3h-5.6V148.6z"/>
					<path id="Tracé_487" class="st1" d="M90.5,148.6h1.5v10.4h3.8v1.3h-5.3V148.6z"/>
					<path id="Tracé_488" class="st1" d="M95.4,151.6h1.3l1.1-3.9h-1.5L95.4,151.6z"/>
					<rect id="Rectangle_47" x="100.1" y="148.6" class="st1" width="1.5" height="11.6"/>
					<path id="Tracé_489" class="st1" d="M104.2,148.6h1.8l4.4,9.6h0v-9.6h1.4v11.6h-1.8l-4.4-9.5h0v9.5h-1.4L104.2,148.6z"/>
					<path id="Tracé_490" class="st1" d="M119.4,150.2c-0.6-0.4-1.3-0.5-2-0.5c-0.9-0.1-1.7,0.6-1.8,1.6c0,0.1,0,0.1,0,0.2
						c0,0.7,0.3,1.2,2,2.2c1.8,1,2.4,2,2.4,3.4c0.1,1.7-1.2,3.2-2.9,3.3c-0.2,0-0.3,0-0.5,0c-0.8,0-1.7-0.2-2.4-0.5v-1.5
						c0.7,0.4,1.4,0.7,2.2,0.7c1,0.1,2-0.7,2.1-1.7c0,0,0-0.1,0-0.1c0-0.9-0.2-1.4-1.8-2.4c-2.1-1.3-2.6-2-2.6-3.5
						c0-1.9,1.5-2.9,3.2-2.9c0.7,0,1.4,0.1,2.1,0.4L119.4,150.2z"/>
					<path id="Tracé_491" class="st1" d="M123.8,149.8h-2.7v-1.3h6.8v1.3h-2.7v10.4h-1.5V149.8z"/>
					<rect id="Rectangle_48" x="129.7" y="148.6" class="st1" width="1.5" height="11.6"/>
					<path id="Tracé_492" class="st1" d="M135.6,149.8h-2.7v-1.3h6.8v1.3H137v10.4h-1.5V149.8z"/>
					<path id="Tracé_493" class="st1" d="M148.7,155.9c0.1,0.9-0.1,1.8-0.5,2.6c-1.1,1.8-3.3,2.3-5.1,1.3c-0.5-0.3-1-0.7-1.3-1.3
						c-0.4-0.8-0.5-1.7-0.5-2.6v-7.3h1.5v7.6c0,1.8,0.8,3,2.2,3s2.2-1.2,2.2-3v-7.6h1.5L148.7,155.9z"/>
					<path id="Tracé_494" class="st1" d="M153.2,149.8h-2.7v-1.3h6.8v1.3h-2.7v10.4h-1.5V149.8z"/>
					<path id="Tracé_495" class="st1" d="M163,148.6h2.5c1.1-0.1,2.2,0.2,3.1,0.8c1.5,1.1,2.3,2.9,2.1,4.8c0,3.4-1.6,6-6,6H163
						L163,148.6z M164.5,158.9h0.9c2.6,0,3.9-1.7,3.9-4.7c0-2.4-1-4.4-3.9-4.4h-0.9L164.5,158.9z"/>
					<path id="Tracé_496" class="st1" d="M172.9,148.6h5.4v1.3h-3.9v3.7h3.8v1.3h-3.8v4.1h4.2v1.3h-5.6L172.9,148.6z"/>
					<path id="Tracé_497" class="st1" d="M184.9,148.6h3c0.9-0.1,1.8,0.2,2.4,0.8c0.6,0.6,0.9,1.4,0.9,2.2c0.1,1.4-0.9,2.6-2.3,2.8
						v0c0.6,0.1,1.1,0.5,1.3,1.1l1.6,4.7h-1.6l-1.3-3.9c-0.2-0.9-1-1.5-1.8-1.3h-0.7v5.3h-1.5L184.9,148.6z M186.4,153.7h1.1
						c1.1,0.1,2-0.7,2.2-1.7c0-0.1,0-0.2,0-0.3c0-1.3-0.8-1.9-2.1-1.9h-1.2V153.7z"/>
					<path id="Tracé_498" class="st1" d="M193.7,148.6h5.4v1.3h-3.9v3.7h3.8v1.3h-3.8v4.1h4.2v1.3h-5.6L193.7,148.6z M196.6,145.6
						h1.6l-1.7,2.4h-1.1L196.6,145.6z"/>
					<path id="Tracé_499" class="st1" d="M206,148.6l3.8,11.6h-1.5l-0.9-3h-4.4l-0.9,3h-1.5l3.9-11.6H206z M206.9,155.9l-1.8-5.8h0
						l-1.8,5.8H206.9z"/>
					<path id="Tracé_500" class="st1" d="M211.2,148.6h2.5c1.1-0.1,2.2,0.2,3.1,0.8c1.5,1.1,2.3,2.9,2.1,4.8c0,3.4-1.6,6-6,6h-1.8
						L211.2,148.6z M212.6,158.9h0.9c2.6,0,3.9-1.7,3.9-4.7c0-2.4-1-4.4-3.9-4.4h-0.9V158.9z"/>
					<path id="Tracé_501" class="st1" d="M225.1,148.6l3.8,11.6h-1.5l-0.9-3H222l-0.9,3h-1.5l3.9-11.6H225.1z M226,155.9l-1.8-5.8
						h0l-1.8,5.8H226z"/>
					<path id="Tracé_502" class="st1" d="M230.5,148.6h2.8c0.9-0.1,1.8,0.3,2.5,0.9c0.6,0.6,1,1.5,0.9,2.4c0,2.3-1.3,3.5-3.8,3.5
						h-1v4.9h-1.5L230.5,148.6z M231.9,154.1h0.8c1.8,0,2.4-0.8,2.4-2.1c0-1.6-0.9-2.2-2.4-2.2h-0.8L231.9,154.1z"/>
					<path id="Tracé_503" class="st1" d="M240.3,149.8h-2.7v-1.3h6.8v1.3h-2.7v10.4h-1.5V149.8z"/>
					<path id="Tracé_504" class="st1" d="M249.8,148.6l3.8,11.6h-1.5l-0.9-3h-4.4l-0.9,3h-1.5l3.9-11.6H249.8z M250.7,155.9
						l-1.8-5.8h0l-1.8,5.8L250.7,155.9z"/>
					<path id="Tracé_505" class="st1" d="M256.1,149.8h-2.7v-1.3h6.8v1.3h-2.7v10.4h-1.5V149.8z"/>
					<rect id="Rectangle_49" x="262" y="148.6" class="st1" width="1.5" height="11.6"/>
					<path id="Tracé_506" class="st1" d="M270,148.4c2.6,0,4.2,2.2,4.2,5.8c0,4-1.6,6-4.4,6c-2.6,0-4.2-2.2-4.2-5.8
						C265.7,150.5,267.3,148.4,270,148.4 M269.9,159.1c1.5,0,2.8-1.3,2.8-4.8c0-2.3-0.7-4.6-2.7-4.6c-1.5,0-2.8,1.3-2.8,4.8
						C267.2,156.8,267.9,159.1,269.9,159.1"/>
					<path id="Tracé_507" class="st1" d="M276.5,148.6h1.8l4.4,9.6h0v-9.6h1.4v11.6h-1.8l-4.4-9.5h0v9.5h-1.4L276.5,148.6z"/>
					<path id="Tracé_508" class="st1" d="M68.7,167.1h5.4v1.3h-3.9v3.7h3.8v1.3h-3.8v4.1h4.2v1.3h-5.6V167.1z"/>
					<path id="Tracé_509" class="st1" d="M76.6,167.1h1.8l4.4,9.6h0v-9.6h1.4v11.6h-1.8l-4.4-9.5h0v9.5h-1.4L76.6,167.1z"/>
					<path id="Tracé_510" class="st1" d="M90.9,167.1h2.5c1.1-0.1,2.2,0.2,3.1,0.8c1.5,1.1,2.3,2.9,2.1,4.8c0,3.4-1.6,6-6,6h-1.8
						V167.1z M92.4,177.4h0.9c2.6,0,3.9-1.7,3.9-4.7c0-2.4-1-4.4-3.9-4.4h-0.9V177.4z"/>
					<path id="Tracé_511" class="st1" d="M100.8,167.1h5.4v1.3h-3.9v3.7h3.8v1.3h-3.8v4.1h4.2v1.3h-5.6V167.1z M103.7,164.1h1.6
						l-1.7,2.4h-1.1L103.7,164.1z"/>
					<path id="Tracé_512" class="st1" d="M108.7,167.1h5.2v1.3h-3.7v3.7h3.5v1.3h-3.5v5.4h-1.5V167.1z"/>
					<rect id="Rectangle_50" x="115.9" y="167.1" class="st1" width="1.5" height="11.6"/>
					<path id="Tracé_513" class="st1" d="M127,178.4c-0.7,0.2-1.4,0.3-2.1,0.4c-3.7,0-5.2-2.8-5.2-5.9c0-3.6,2.1-5.9,5.1-5.9
						c0.8,0,1.5,0.1,2.2,0.4v1.4c-0.7-0.4-1.4-0.6-2.2-0.6c-1.9,0-3.6,1.5-3.6,4.3c0,3,1.2,5,3.7,5c0.7,0,1.4-0.2,2.1-0.5L127,178.4
						z"/>
					<rect id="Rectangle_51" x="129.2" y="167.1" class="st1" width="1.5" height="11.6"/>
					<path id="Tracé_514" class="st1" d="M133.4,167.1h5.4v1.3h-3.9v3.7h3.8v1.3h-3.8v4.1h4.2v1.3h-5.6L133.4,167.1z"/>
					<path id="Tracé_515" class="st1" d="M141.3,167.1h1.8l4.4,9.6h0v-9.6h1.4v11.6h-1.8l-4.4-9.5h0v9.5h-1.4V167.1z"/>
					<path id="Tracé_516" class="st1" d="M158.5,178.4c-0.7,0.2-1.4,0.3-2.1,0.4c-3.7,0-5.2-2.8-5.2-5.9c0-3.6,2.1-5.9,5.1-5.9
						c0.8,0,1.5,0.1,2.2,0.4v1.4c-0.7-0.4-1.4-0.6-2.2-0.6c-1.9,0-3.6,1.5-3.6,4.3c0,3,1.2,5,3.7,5c0.7,0,1.4-0.2,2.1-0.5
						L158.5,178.4z"/>
					<path id="Tracé_517" class="st1" d="M160.8,167.1h5.4v1.3h-3.9v3.7h3.8v1.3h-3.8v4.1h4.2v1.3h-5.6L160.8,167.1z"/>
					<path id="Tracé_518" class="st1" d="M172.8,167.1h2.8c0.9-0.1,1.8,0.3,2.5,0.9c0.6,0.6,1,1.5,0.9,2.4c0,2.3-1.3,3.5-3.8,3.5
						h-1v4.9h-1.5L172.8,167.1z M174.3,172.6h0.8c1.8,0,2.4-0.8,2.4-2.1c0-1.6-0.9-2.2-2.4-2.2h-0.8L174.3,172.6z"/>
					<path id="Tracé_519" class="st1" d="M181,167.1h1.5v5h4.1v-5h1.5v11.6h-1.5v-5.4h-4.1v5.4H181V167.1z"/>
					<path id="Tracé_520" class="st1" d="M193,173.8l-3.5-6.7h1.7l2.6,5.1l2.6-5.1h1.6l-3.5,6.7v4.9H193L193,173.8z"/>
					<path id="Tracé_521" class="st1" d="M203.6,168.7c-0.6-0.4-1.3-0.5-2-0.5c-0.9-0.1-1.7,0.6-1.8,1.6c0,0.1,0,0.1,0,0.2
						c0,0.7,0.3,1.2,2,2.2c1.8,1,2.4,2,2.4,3.4c0.1,1.7-1.2,3.2-2.9,3.3c-0.2,0-0.3,0-0.5,0c-0.8,0-1.7-0.2-2.4-0.5v-1.5
						c0.7,0.4,1.4,0.7,2.2,0.7c1,0.1,2-0.7,2.1-1.7c0,0,0-0.1,0-0.1c0-0.9-0.2-1.4-1.8-2.4c-2.1-1.3-2.6-2-2.6-3.5
						c0-1.9,1.5-2.9,3.2-2.9c0.7,0,1.4,0.1,2.1,0.4L203.6,168.7z"/>
					<rect id="Rectangle_52" x="206.4" y="167.1" class="st1" width="1.5" height="11.6"/>
					<path id="Tracé_522" class="st1" d="M216.7,180.8l-1.7-2.1c-0.1,0-0.2,0-0.3,0.1c-0.1,0-0.2,0-0.3,0c-2.6,0-4.2-2.2-4.2-5.8
						c0-4,1.6-6,4.4-6c2.6,0,4.2,2.2,4.2,5.8c0,3-0.9,4.8-2.5,5.6l2.2,2.5L216.7,180.8z M214.3,177.6c1.5,0,2.8-1.3,2.8-4.8
						c0-2.3-0.7-4.6-2.7-4.6c-1.5,0-2.8,1.3-2.8,4.8C211.6,175.3,212.4,177.6,214.3,177.6"/>
					<path id="Tracé_523" class="st1" d="M228.2,174.4c0.1,0.9-0.1,1.8-0.5,2.6c-1.1,1.8-3.3,2.3-5.1,1.3c-0.5-0.3-1-0.7-1.3-1.3
						c-0.4-0.8-0.5-1.7-0.5-2.6v-7.3h1.5v7.6c0,1.8,0.8,3,2.2,3s2.2-1.2,2.2-3v-7.6h1.5L228.2,174.4z"/>
					<path id="Tracé_524" class="st1" d="M231,167.1h5.4v1.3h-3.9v3.7h3.8v1.3h-3.8v4.1h4.2v1.3H231L231,167.1z"/>
					<path id="Tracé_525" class="st1" d="M242.8,167.1h2.5c1.1-0.1,2.2,0.2,3.1,0.8c1.5,1.1,2.3,2.9,2.1,4.8c0,3.4-1.6,6-6,6h-1.8
						V167.1z M244.3,177.4h0.9c2.6,0,3.9-1.7,3.9-4.7c0-2.4-1-4.4-3.9-4.4h-0.9V177.4z"/>
					<path id="Tracé_526" class="st1" d="M252.7,167.1h5.4v1.3h-3.9v3.7h3.8v1.3h-3.8v4.1h4.2v1.3h-5.6L252.7,167.1z"/>
					<path id="Tracé_527" class="st1" d="M270.6,180.8l-1.7-2.1c-0.1,0-0.2,0-0.3,0.1c-0.1,0-0.2,0-0.3,0c-2.6,0-4.2-2.2-4.2-5.8
						c0-4,1.6-6,4.4-6c2.6,0,4.2,2.2,4.2,5.8c0,3-0.9,4.8-2.5,5.6l2.2,2.5L270.6,180.8z M268.3,177.6c1.5,0,2.8-1.3,2.8-4.8
						c0-2.3-0.7-4.6-2.7-4.6c-1.5,0-2.8,1.3-2.8,4.8C265.6,175.3,266.3,177.6,268.3,177.6"/>
					<path id="Tracé_528" class="st1" d="M282.2,174.4c0.1,0.9-0.1,1.8-0.5,2.6c-1.1,1.8-3.3,2.3-5.1,1.3c-0.5-0.3-1-0.7-1.3-1.3
						c-0.4-0.8-0.5-1.7-0.5-2.6v-7.3h1.5v7.6c0,1.8,0.8,3,2.2,3c1.4,0,2.2-1.2,2.2-3v-7.6h1.5L282.2,174.4z"/>
					<path id="Tracé_529" class="st1" d="M284.9,167.1h5.4v1.3h-3.9v3.7h3.8v1.3h-3.8v4.1h4.2v1.3h-5.6V167.1z M287.8,164.1h1.6
						l-1.7,2.4h-1.1L287.8,164.1z"/>
					<path id="Tracé_530" class="st1" d="M292.8,167.1h2.9c2.2,0,3.2,1.2,3.2,2.9c0,1.2-0.8,2.3-1.9,2.6v0c1.4,0.2,2.3,1.5,2.2,2.9
						c0,1.6-1.1,3.2-3.6,3.2h-2.8L292.8,167.1z M294.3,172.1h0.9c1.6,0,2.4-0.7,2.4-2c0-1-0.6-1.8-2.1-1.8h-1.1L294.3,172.1z
						 M294.3,177.5h1.2c1.1,0.1,2.1-0.7,2.2-1.8c0-0.1,0-0.2,0-0.3c0.1-1.1-0.7-2-1.7-2.1c-0.1,0-0.2,0-0.4,0h-1.4L294.3,177.5z"/>
					<path id="Tracé_531" class="st1" d="M301.6,167.1h5.4v1.3h-3.9v3.7h3.8v1.3h-3.8v4.1h4.2v1.3h-5.6L301.6,167.1z"/>
					<path id="Tracé_532" class="st1" d="M316.3,178.4c-0.7,0.2-1.4,0.3-2.1,0.4c-3.7,0-5.2-2.8-5.2-5.9c0-3.6,2.1-5.9,5.1-5.9
						c0.8,0,1.5,0.1,2.2,0.4v1.4c-0.7-0.4-1.4-0.6-2.2-0.6c-1.9,0-3.6,1.5-3.6,4.3c0,3,1.2,5,3.7,5c0.7,0,1.4-0.2,2.1-0.5
						L316.3,178.4z"/>
				</g>
			</g>
		</g>
	</g>
</g>
</svg>
