<?xml version="1.0" encoding="utf-8"?>
<!-- Generator: Adobe Illustrator 16.0.0, SVG Export Plug-In . SVG Version: 6.00 Build 0)  -->
<!DOCTYPE svg PUBLIC "-//W3C//DTD SVG 1.1//EN" "http://www.w3.org/Graphics/SVG/1.1/DTD/svg11.dtd">
<svg version="1.1" id="Layer_1" xmlns="http://www.w3.org/2000/svg" xmlns:xlink="http://www.w3.org/1999/xlink" x="0px" y="0px"
	 width="72px" height="11.1px" viewBox="0 0 72 11.1" style="enable-background:new 0 0 72 11.1;" xml:space="preserve">
<style type="text/css">
<![CDATA[
	.st0{fill:#FFFFFF;}
]]>
</style>
<g>
	<path class="st0" d="M69.9,7.9V4.5c0-1-0.6-1.8-1.7-1.8c-0.6,0-1.2,0.2-1.5,0.8l-0.1-0.7h-1v5.1h1.2V5.8c0-0.4,0-1,0.2-1.4
		c0.2-0.4,0.4-0.6,0.9-0.6c0.6,0,0.8,0.4,0.8,1v3.1H69.9z M64,8.6c0,0.7-0.9,0.7-1.3,0.7c-0.5,0-1.3-0.1-1.3-0.7
		c0-0.3,0.2-0.5,0.5-0.6h1C63.3,8,64,8,64,8.6 M63.5,4.6c0,0.5-0.3,0.9-0.9,0.9c-0.6,0-0.9-0.4-0.9-0.9c0-0.5,0.3-0.9,0.9-0.9
		C63.2,3.6,63.5,4,63.5,4.6 M65.2,8.6c0-0.5-0.2-0.9-0.6-1.2C64.1,7,63.4,7,62.9,7h-0.8c-0.3,0-0.6-0.1-0.6-0.4
		c0-0.2,0.1-0.3,0.3-0.4c0.3,0.1,0.5,0.1,0.8,0.1c1.1,0,2.1-0.7,2.1-1.8c0-0.3-0.1-0.6-0.3-0.9c0.1-0.2,0.3-0.3,0.6-0.3
		c0,0,0.1,0,0.1,0V2.4c-0.1,0-0.3,0-0.3,0c-0.4,0-0.8,0.2-1,0.6c-0.3-0.2-0.7-0.3-1.1-0.3c-1.1,0-2.1,0.7-2.1,1.9
		c0,0.5,0.2,0.9,0.5,1.2c-0.4,0.3-0.6,0.6-0.6,1c0,0.3,0.2,0.7,0.5,0.9c-0.4,0.2-0.6,0.6-0.6,1c0,0.5,0.2,0.8,0.6,1.1
		c0.5,0.4,1.2,0.4,1.8,0.4C63.9,10.3,65.2,9.9,65.2,8.6 M59.8,2.8h-1.2v5.1h1.2V2.8z M59.8,0.9h-1.3v1.3h1.3V0.9z M57.9,6.3
		c0-0.8-0.6-1.3-1.4-1.4c-0.5-0.1-0.6-0.1-1.1-0.1c-0.3,0-0.6-0.1-0.6-0.5c0-0.3,0.2-0.4,0.4-0.5c0.2-0.1,0.3-0.1,0.5-0.1
		c0.3,0,0.5,0.1,0.7,0.2c0.1,0.1,0.2,0.3,0.2,0.5h1.2c0-0.4-0.2-0.7-0.4-1c-0.4-0.4-1-0.6-1.6-0.6c-0.6,0-1.2,0.2-1.5,0.5
		c-0.3,0.3-0.5,0.6-0.5,1.1c0,0.6,0.5,1.2,1.2,1.4c0.4,0.1,1,0.1,1.4,0.2c0.3,0,0.5,0.2,0.5,0.5c0,0.6-0.6,0.6-1,0.6
		c-0.3,0-0.6-0.1-0.8-0.2c-0.2-0.1-0.3-0.4-0.3-0.6h-1.1c0,0.5,0.2,0.9,0.5,1.2c0.4,0.4,1,0.6,1.6,0.6c0.7,0,1.3-0.2,1.7-0.6
		C57.7,7.2,57.9,6.8,57.9,6.3 M52.2,4.9H50c0-0.3,0.1-0.6,0.3-0.8c0.2-0.2,0.5-0.4,0.8-0.4c0.3,0,0.6,0.1,0.8,0.3
		C52,4.2,52.1,4.5,52.2,4.9 M53.4,5.4c0-0.6-0.1-1.2-0.4-1.8c-0.4-0.6-1.1-0.9-1.8-0.9c-0.7,0-1.2,0.3-1.6,0.6
		c-0.5,0.5-0.7,1.2-0.7,2c0,0.8,0.3,1.5,0.8,2C49.9,7.8,50.4,8,51.1,8c0.6,0,1.3-0.2,1.7-0.7c0.2-0.2,0.4-0.6,0.4-0.9h-1.2
		c0,0.2-0.1,0.3-0.2,0.4C51.7,7,51.4,7,51.1,7c-0.3,0-0.6-0.1-0.8-0.3c-0.2-0.2-0.4-0.6-0.4-1h3.4C53.4,5.6,53.4,5.4,53.4,5.4
		 M46.9,5.4c0,0.7-0.2,1.6-1.1,1.6c-0.4,0-0.6-0.2-0.8-0.4c-0.3-0.3-0.3-0.8-0.3-1.2c0-0.4,0.1-0.9,0.3-1.2c0.2-0.2,0.4-0.4,0.8-0.4
		C46.8,3.7,46.9,4.6,46.9,5.4 M48.1,7.9v-7h-1.2v2.3c-0.2-0.3-0.7-0.5-1.3-0.5c-0.5,0-0.9,0.2-1.2,0.4c-0.6,0.5-0.9,1.3-0.9,2.3
		c0,1,0.3,1.7,0.9,2.2C44.6,7.8,45.1,8,45.6,8c0.6,0,1.1-0.2,1.4-0.7l0.1,0.6H48.1z M41.9,4V2.8c-0.1,0-0.3,0-0.4,0
		c-0.6,0-1.2,0.2-1.4,0.8L40,2.8h-1v5.1h1.2V5.3c0-0.8,0.4-1.4,1.3-1.4C41.6,3.9,41.8,3.9,41.9,4 M37.1,5.4c0,0.5-0.1,1-0.4,1.3
		C36.6,6.8,36.3,7,36,7c-0.3,0-0.6-0.1-0.8-0.3c-0.3-0.3-0.4-0.8-0.4-1.3c0-0.5,0.1-1,0.4-1.3c0.2-0.2,0.4-0.3,0.8-0.3
		c0.3,0,0.6,0.1,0.8,0.3C37,4.4,37.1,4.9,37.1,5.4 M38.3,5.4c0-0.9-0.2-1.4-0.6-1.9c-0.4-0.4-1-0.8-1.8-0.8s-1.4,0.4-1.8,0.8
		c-0.4,0.5-0.6,1-0.6,1.9c0,0.9,0.2,1.4,0.6,1.9C34.6,7.7,35.2,8,36,8s1.4-0.4,1.8-0.8C38.1,6.8,38.3,6.2,38.3,5.4 M33.6,7.8v-1
		c-0.3,0-0.5,0-0.8,0c-0.4,0-0.6-0.2-0.6-0.6V3.8h1.3v-1h-1.3V1.3L31,1.6v1.3h-0.9v1H31v2.6c0,1,0.5,1.6,1.5,1.6
		C32.9,8,33.2,7.9,33.6,7.8 M30.2,6.3c0-0.8-0.6-1.3-1.4-1.4c-0.5-0.1-0.6-0.1-1.1-0.1c-0.3,0-0.6-0.1-0.6-0.5
		c0-0.3,0.2-0.4,0.4-0.5c0.2-0.1,0.3-0.1,0.5-0.1c0.3,0,0.5,0.1,0.7,0.2c0.1,0.1,0.2,0.3,0.2,0.5h1.2c0-0.4-0.2-0.7-0.4-1
		c-0.4-0.4-1-0.6-1.6-0.6c-0.6,0-1.2,0.2-1.5,0.5C26.2,3.5,26,3.8,26,4.4c0,0.6,0.5,1.2,1.2,1.4c0.4,0.1,1,0.1,1.4,0.2
		c0.3,0,0.5,0.2,0.5,0.5c0,0.6-0.6,0.6-1,0.6c-0.4,0-0.6-0.1-0.8-0.2C27.1,6.7,27,6.5,27,6.3h-1.1c0,0.5,0.2,0.9,0.5,1.2
		C26.8,7.8,27.4,8,28,8c0.7,0,1.3-0.2,1.7-0.6C30,7.2,30.2,6.8,30.2,6.3 M25.2,2.8H24v5.1h1.2V2.8z M25.3,0.9H24v1.3h1.3V0.9z
		 M23.4,6.3c0-0.8-0.6-1.3-1.4-1.4c-0.5-0.1-0.6-0.1-1.1-0.1c-0.3,0-0.6-0.1-0.6-0.5c0-0.3,0.2-0.4,0.4-0.5c0.2-0.1,0.4-0.1,0.5-0.1
		c0.3,0,0.5,0.1,0.7,0.2C22,4,22.1,4.1,22.1,4.3h1.2c0-0.4-0.2-0.7-0.4-1c-0.4-0.4-1-0.6-1.6-0.6c-0.6,0-1.2,0.2-1.5,0.5
		c-0.3,0.3-0.5,0.6-0.5,1.1c0,0.6,0.5,1.2,1.2,1.4c0.4,0.1,1,0.1,1.4,0.2c0.3,0,0.5,0.2,0.5,0.5c0,0.6-0.6,0.6-1,0.6
		c-0.4,0-0.6-0.1-0.8-0.2c-0.2-0.1-0.3-0.4-0.3-0.6h-1.1c0,0.5,0.2,0.9,0.5,1.2C20,7.8,20.6,8,21.2,8c0.7,0,1.3-0.2,1.7-0.6
		C23.2,7.2,23.4,6.8,23.4,6.3 M18.6,7.9V4.5c0-1-0.6-1.8-1.7-1.8c-0.6,0-1.2,0.2-1.5,0.8l-0.1-0.7h-1v5.1h1.2V5.8c0-0.4,0-1,0.2-1.4
		c0.2-0.4,0.4-0.6,0.9-0.6c0.6,0,0.8,0.4,0.8,1v3.1H18.6z M12.1,5.9c0,0.7-0.5,1.2-1.3,1.2c-0.4,0-0.7-0.2-0.7-0.6
		c0-0.4,0.4-0.6,0.7-0.7l1.3-0.1V5.9z M13.7,7.8V6.9c0,0-0.1,0-0.2,0c-0.2,0-0.3-0.1-0.3-0.3V4.8c0-0.3,0-0.7-0.1-1
		c-0.3-0.8-1-1-1.9-1c-1.1,0-2,0.5-2.1,1.6h1.2c0-0.5,0.4-0.7,0.9-0.7c0.7,0,0.9,0.3,0.9,0.8v0.3l-1.5,0.1c-1,0.1-1.7,0.6-1.7,1.6
		C8.9,7.3,9.5,8,10.7,8c0.7,0,1.3-0.3,1.5-0.8c0,0.4,0.3,0.7,0.9,0.7C13.4,8,13.5,7.9,13.7,7.8 M9.1,4V2.8c-0.1,0-0.3,0-0.4,0
		C8.1,2.8,7.5,3,7.3,3.6L7.1,2.8h-1v5.1h1.2V5.3c0-0.8,0.4-1.4,1.3-1.4C8.8,3.9,8.9,3.9,9.1,4 M5.6,7.8v-1c-0.3,0-0.5,0-0.8,0
		c-0.4,0-0.6-0.2-0.6-0.6V3.8h1.3v-1H4.3V1.3L3.1,1.6v1.3H2.1v1h0.9v2.6c0,1,0.5,1.6,1.5,1.6C4.9,8,5.3,7.9,5.6,7.8"/>
</g>
</svg>
